{
.appVersion = "3151";
DisplayStrings = (
"KHO/Ahookabove NG/space \012kho/ahookabove ng/space",
"/Gbreve h/ecircumflexacute",
"Y/ecircumflexacute n/space xào\012xèo",
"/Wacute endy",
"Study/space with/space me",

glyphs = (
{
glyphname = A;
lastChange = "2023-02-05 07:58:30 +0000";
layers = (
{
guideLines = (
{
position = "{459, 175}";
},
{
angle = 87.0233;
position = "{171, 0}";
}
);
layerId = "96BCCF85-5232-4835-A4EF-A1D5F093B6B0";
paths = (
{
closed = 1;
nodes = (
"171 0 LINE",
"178 129 LINE",
"231 129 LINE",
"240 0 LINE",
"380 0 LINE",
"295 700 LINE",
"115 700 LINE",
"30 0 LINE"
);
},
{
closed = 1;
nodes = (
"197 500 LINE",
"214 500 LINE",
"224 279 LINE",
"186 279 LINE"
);
}
);
width = 410;
},
{
guideLines = (
{
position = "{459, 175}";
},
{
angle = 87.0233;
position = "{171, 0}";
}
);
layerId = m002;
paths = (
{
closed = 1;
nodes = (
"171 0 LINE",
"178 129 LINE",
"231 129 LINE",
"240 0 LINE",
"380 0 LINE",
"295 700 LINE",
"115 700 LINE",
"30 0 LINE"
);
},
{
closed = 1;
nodes = (
"197 500 LINE",
"214 500 LINE",
"224 279 LINE",
"186 279 LINE"
);
}
);
width = 410;
}
);
leftKerningGroup = a;
rightKerningGroup = a;
unicode = 0041;
},
{
glyphname = AE;
lastChange = "2023-02-05 07:58:30 +0000";
layers = (
{
guideLines = (
{
angle = 90;
position = "{240, -49}";
},
{
angle = 85.0867;
position = "{171, 0}";
}
);
layerId = "96BCCF85-5232-4835-A4EF-A1D5F093B6B0";
paths = (
{
closed = 1;
nodes = (
"171 0 LINE",
"182 129 LINE",
"240 129 LINE",
"240 0 LINE",
"380 0 LINE",
"380 700 LINE",
"115 700 LINE",
"30 0 LINE"
);
},
{
closed = 1;
nodes = (
"220 570 LINE",
"240 570 LINE",
"240 279 LINE",
"195 279 LINE"
);
},
{
closed = 1;
nodes = (
"520 0 LINE",
"520 129 LINE",
"389 129 LINE",
"389 275 LINE",
"476 275 LINE",
"476 425 LINE",
"389 425 LINE",
"389 570 LINE",
"520 570 LINE",
"520 700 LINE",
"240 700 LINE",
"240 0 LINE"
);
}
);
width = 550;
},
{
guideLines = (
{
angle = 90;
position = "{240, -49}";
},
{
angle = 85.0867;
position = "{171, 0}";
}
);
layerId = m002;
paths = (
{
closed = 1;
nodes = (
"171 0 LINE",
"182 129 LINE",
"240 129 LINE",
"240 0 LINE",
"380 0 LINE",
"380 700 LINE",
"115 700 LINE",
"30 0 LINE"
);
},
{
closed = 1;
nodes = (
"220 570 LINE",
"240 570 LINE",
"240 279 LINE",
"195 279 LINE"
);
},
{
closed = 1;
nodes = (
"520 0 LINE",
"520 129 LINE",
"389 129 LINE",
"389 275 LINE",
"476 275 LINE",
"476 425 LINE",
"389 425 LINE",
"389 570 LINE",
"520 570 LINE",
"520 700 LINE",
"240 700 LINE",
"240 0 LINE"
);
}
);
width = 550;
}
);
leftKerningGroup = a;
rightKerningGroup = e;
unicode = 00C6;
},
{
glyphname = Dcaron;
lastChange = "2023-02-05 07:58:30 +0000";
layers = (
{
components = (
{
name = caron;
}
);
layerId = "96BCCF85-5232-4835-A4EF-A1D5F093B6B0";
paths = (
{
closed = 1;
nodes = (
"292 0 LINE",
"485 0 OFFCURVE",
"642 157 OFFCURVE",
"642 350 CURVE",
"642 543 OFFCURVE",
"485 700 OFFCURVE",
"292 700 CURVE",
"30 700 LINE",
"30 0 LINE"
);
},
{
closed = 1;
nodes = (
"177 570 LINE",
"275 570 LINE",
"396 570 OFFCURVE",
"494 471 OFFCURVE",
"494 350 CURVE",
"494 229 OFFCURVE",
"396 131 OFFCURVE",
"275 131 CURVE",
"177 131 LINE"
);
}
);
width = 672;
},
{
components = (
{
name = caron;
}
);
layerId = m002;
paths = (
{
closed = 1;
nodes = (
"292 0 LINE",
"485 0 OFFCURVE",
"642 157 OFFCURVE",
"642 350 CURVE",
"642 543 OFFCURVE",
"485 700 OFFCURVE",
"292 700 CURVE",
"30 700 LINE",
"30 0 LINE"
);
},
{
closed = 1;
nodes = (
"177 570 LINE",
"275 570 LINE",
"396 570 OFFCURVE",
"494 471 OFFCURVE",
"494 350 CURVE",
"494 229 OFFCURVE",
"396 131 OFFCURVE",
"275 131 CURVE",
"177 131 LINE"
);
}
);
width = 672;
}
);
leftKerningGroup = H;
rightKerningGroup = O;
unicode = 010E;
},
{
glyphname = E;
lastChange = "2023-02-05 07:58:30 +0000";
layers = (
{
layerId = "96BCCF85-5232-4835-A4EF-A1D5F093B6B0";
paths = (
{
closed = 1;
nodes = (
"310 0 LINE",
"310 129 LINE",
"179 129 LINE",
"179 275 LINE",
"266 275 LINE",
"266 425 LINE",
"179 425 LINE",
"179 570 LINE",
"310 570 LINE",
"310 700 LINE",
"30 700 LINE",
"30 0 LINE"
);
}
);
width = 340;
},
{
layerId = m002;
paths = (
{
closed = 1;
nodes = (
"310 0 LINE",
"310 129 LINE",
"179 129 LINE",
"179 275 LINE",
"266 275 LINE",
"266 425 LINE",
"179 425 LINE",
"179 570 LINE",
"310 570 LINE",
"310 700 LINE",
"30 700 LINE",
"30 0 LINE"
);
}
);
width = 340;
}
);
leftKerningGroup = H;
leftMetricsKey = B;
rightKerningGroup = e;
unicode = 0045;
},
{
glyphname = G;
lastChange = "2023-02-13 17:05:05 +0000";
layers = (
{
guideLines = (
{
angle = 90;
position = "{265, 73}";
},
{
position = "{233, 35}";
},
{
angle = 90;
position = "{228, 35}";
},
{
angle = 90;
position = "{239, 155}";
},
{
angle = 90;
position = "{405, 441}";
},
{
angle = 90;
position = "{233, 572}";
}
);
layerId = "96BCCF85-5232-4835-A4EF-A1D5F093B6B0";
paths = (
{
closed = 1;
nodes = (
"217 -10 OFFCURVE",
"274 9 OFFCURVE",
"285 35 CURVE",
"300 35 LINE",
"300 0 LINE",
"435 0 LINE",
"435 389 LINE",
"232 389 LINE",
"232 249 LINE",
"300 249 LINE",
"300 185 LINE",
"300 155 OFFCURVE",
"269 129 OFFCURVE",
"239 129 CURVE",
"209 129 OFFCURVE",
"179 155 OFFCURVE",
"179 185 CURVE",
"179 520 LINE",
"179 550 OFFCURVE",
"208 570 OFFCURVE",
"233 570 CURVE",
"258 570 OFFCURVE",
"287 550 OFFCURVE",
"287 520 CURVE",
"287 464 LINE",
"435 464 LINE",
"435 535 LINE",
"435 632 OFFCURVE",
"330 710 OFFCURVE",
"233 710 CURVE",
"136 710 OFFCURVE",
"30 632 OFFCURVE",
"30 535 CURVE",
"30 165 LINE",
"30 68 OFFCURVE",
"82 -10 OFFCURVE",
"179 -10 CURVE"
);
}
);
width = 465;
},
{
guideLines = (
{
angle = 90;
position = "{265, 73}";
},
{
position = "{233, 35}";
},
{
angle = 90;
position = "{228, 35}";
}
);
layerId = m002;
paths = (
{
closed = 1;
nodes = (
"217 -10 OFFCURVE",
"240 9 OFFCURVE",
"251 35 CURVE",
"261 35 LINE",
"261 0 LINE",
"380 0 LINE",
"380 389 LINE",
"232 389 LINE",
"232 239 LINE",
"232 240 LINE",
"232 155 LINE",
"232 141 OFFCURVE",
"220 129 OFFCURVE",
"205 129 CURVE",
"191 129 OFFCURVE",
"179 141 OFFCURVE",
"179 155 CURVE",
"179 543 LINE",
"179 558 OFFCURVE",
"191 570 OFFCURVE",
"205 570 CURVE",
"220 570 OFFCURVE",
"232 558 OFFCURVE",
"232 543 CURVE",
"232 464 LINE",
"380 464 LINE",
"380 535 LINE",
"380 632 OFFCURVE",
"302 710 OFFCURVE",
"205 710 CURVE",
"108 710 OFFCURVE",
"30 632 OFFCURVE",
"30 535 CURVE",
"30 165 LINE",
"30 68 OFFCURVE",
"82 -10 OFFCURVE",
"179 -10 CURVE"
);
}
);
width = 410;
}
);
leftKerningGroup = o;
rightKerningGroup = G;
unicode = 0047;
},
{
glyphname = Hbar;
lastChange = "2023-02-11 07:10:49 +0000";
layers = (
{
guideLines = (
{
position = "{210, 562}";
}
);
layerId = "96BCCF85-5232-4835-A4EF-A1D5F093B6B0";
paths = (
{
closed = 1;
nodes = (
"209 0 LINE",
"209 275 LINE",
"542 275 LINE",
"542 0 LINE",
"690 0 LINE",
"690 700 LINE",
"542 700 LINE",
"542 425 LINE",
"209 425 LINE",
"209 700 LINE",
"60 700 LINE",
"60 0 LINE"
);
},
{
closed = 1;
nodes = (
"750 540 LINE",
"750 584 LINE",
"0 584 LINE",
"0 540 LINE"
);
}
);
width = 750;
},
{
guideLines = (
{
position = "{210, 562}";
}
);
layerId = m002;
paths = (
{
closed = 1;
nodes = (
"209 0 LINE",
"209 275 LINE",
"542 275 LINE",
"542 0 LINE",
"690 0 LINE",
"690 700 LINE",
"542 700 LINE",
"542 425 LINE",
"209 425 LINE",
"209 700 LINE",
"60 700 LINE",
"60 0 LINE"
);
},
{
closed = 1;
nodes = (
"750 547 LINE",
"750 577 LINE",
"0 577 LINE",
"0 547 LINE"
);
}
);
width = 750;
}
);
leftKerningGroup = H;
rightKerningGroup = H;
unicode = 0126;
},
{
glyphname = I;
lastChange = "2023-02-15 16:14:46 +0000";
layers = (
{
layerId = "96BCCF85-5232-4835-A4EF-A1D5F093B6B0";
paths = (
{
closed = 1;
nodes = (
"181 0 LINE",
"181 700 LINE",
"30 700 LINE",
"30 0 LINE"
);
}
);
width = 211;
},
{
components = (
{
name = i;
}
);
layerId = m002;
width = 343;
}
);
leftKerningGroup = i;
rightKerningGroup = i;
unicode = 0049;
},
{
glyphname = IJ;
lastChange = "2023-02-05 07:58:30 +0000";
layers = (
{
guideLines = (
{
angle = 90;
position = "{30, 760}";
},
{
angle = 90;
position = "{179, 760}";
}
);
layerId = "96BCCF85-5232-4835-A4EF-A1D5F093B6B0";
paths = (
{
closed = 1;
nodes = (
"302 -10 OFFCURVE",
"380 68 OFFCURVE",
"380 165 CURVE",
"380 700 LINE",
"232 700 LINE",
"232 155 LINE",
"232 141 OFFCURVE",
"220 129 OFFCURVE",
"205 129 CURVE",
"191 129 OFFCURVE",
"179 141 OFFCURVE",
"179 155 CURVE",
"179 275 LINE",
"30 275 LINE",
"30 165 LINE",
"30 68 OFFCURVE",
"108 -10 OFFCURVE",
"205 -10 CURVE"
);
},
{
closed = 1;
nodes = (
"30 389 LINE",
"179 389 LINE",
"179 700 LINE",
"30 700 LINE"
);
}
);
width = 410;
},
{
guideLines = (
{
angle = 90;
position = "{30, 760}";
},
{
angle = 90;
position = "{179, 760}";
}
);
layerId = m002;
paths = (
{
closed = 1;
nodes = (
"302 -10 OFFCURVE",
"380 68 OFFCURVE",
"380 165 CURVE",
"380 700 LINE",
"232 700 LINE",
"232 155 LINE",
"232 141 OFFCURVE",
"220 129 OFFCURVE",
"205 129 CURVE",
"191 129 OFFCURVE",
"179 141 OFFCURVE",
"179 155 CURVE",
"179 275 LINE",
"30 275 LINE",
"30 165 LINE",
"30 68 OFFCURVE",
"108 -10 OFFCURVE",
"205 -10 CURVE"
);
},
{
closed = 1;
nodes = (
"30 389 LINE",
"179 389 LINE",
"179 700 LINE",
"30 700 LINE"
);
}
);
width = 410;
}
);
leftKerningGroup = u;
rightKerningGroup = u;
unicode = 0132;
},
{
glyphname = J;
lastChange = "2023-02-05 07:58:30 +0000";
layers = (
{
layerId = "96BCCF85-5232-4835-A4EF-A1D5F093B6B0";
paths = (
{
closed = 1;
nodes = (
"302 -10 OFFCURVE",
"380 68 OFFCURVE",
"380 165 CURVE",
"380 700 LINE",
"118 700 LINE",
"118 570 LINE",
"232 570 LINE",
"232 155 LINE",
"232 141 OFFCURVE",
"220 129 OFFCURVE",
"205 129 CURVE",
"191 129 OFFCURVE",
"179 141 OFFCURVE",
"179 155 CURVE",
"179 275 LINE",
"30 275 LINE",
"30 165 LINE",
"30 68 OFFCURVE",
"108 -10 OFFCURVE",
"205 -10 CURVE"
);
}
);
width = 410;
},
{
layerId = m002;
paths = (
{
closed = 1;
nodes = (
"302 -10 OFFCURVE",
"380 68 OFFCURVE",
"380 165 CURVE",
"380 700 LINE",
"118 700 LINE",
"118 570 LINE",
"232 570 LINE",
"232 155 LINE",
"232 141 OFFCURVE",
"220 129 OFFCURVE",
"205 129 CURVE",
"191 129 OFFCURVE",
"179 141 OFFCURVE",
"179 155 CURVE",
"179 275 LINE",
"30 275 LINE",
"30 165 LINE",
"30 68 OFFCURVE",
"108 -10 OFFCURVE",
"205 -10 CURVE"
);
}
);
width = 410;
}
);
leftKerningGroup = J;
rightKerningGroup = u;
rightMetricsKey = H;
unicode = 004A;
},
{
glyphname = Lslash;
lastChange = "2023-02-11 07:12:09 +0000";
layers = (
{
components = (
{
name = L.big;
}
);
layerId = "96BCCF85-5232-4835-A4EF-A1D5F093B6B0";
paths = (
{
closed = 1;
nodes = (
"-66 275 LINE",
"275 395 LINE",
"275 439 LINE",
"-66 319 LINE"
);
}
);
width = 690;
},
{
components = (
{
name = L.big;
}
);
layerId = m002;
paths = (
{
closed = 1;
nodes = (
"-66 275 LINE",
"275 395 LINE",
"275 425 LINE",
"-66 305 LINE"
);
}
);
width = 690;
}
);
leftKerningGroup = H;
rightKerningGroup = L;
unicode = 0141;
},
{
glyphname = M;
lastChange = "2023-02-05 07:58:30 +0000";
layers = (
{
layerId = "96BCCF85-5232-4835-A4EF-A1D5F093B6B0";
paths = (
{
closed = 1;
nodes = (
"160 0 LINE",
"160 311 LINE",
"166 311 LINE",
"205 0 LINE",
"292 0 LINE",
"331 311 LINE",
"337 311 LINE",
"337 0 LINE",
"467 0 LINE",
"467 700 LINE",
"295 700 LINE",
"252 389 LINE",
"246 389 LINE",
"201 700 LINE",
"30 700 LINE",
"30 0 LINE"
);
}
);
width = 497;
},
{
layerId = m002;
paths = (
{
closed = 1;
nodes = (
"160 0 LINE",
"160 311 LINE",
"166 311 LINE",
"205 0 LINE",
"292 0 LINE",
"331 311 LINE",
"337 311 LINE",
"337 0 LINE",
"467 0 LINE",
"467 700 LINE",
"295 700 LINE",
"252 389 LINE",
"246 389 LINE",
"201 700 LINE",
"30 700 LINE",
"30 0 LINE"
);
}
);
width = 497;
}
);
leftKerningGroup = H;
leftMetricsKey = B;
rightKerningGroup = H;
unicode = 004D;
},
{
glyphname = N;
lastChange = "2023-02-05 07:58:30 +0000";
layers = (
{
layerId = "96BCCF85-5232-4835-A4EF-A1D5F093B6B0";
paths = (
{
closed = 1;
nodes = (
"160 0 LINE",
"160 275 LINE",
"175 275 LINE",
"260 0 LINE",
"380 0 LINE",
"380 700 LINE",
"250 700 LINE",
"250 425 LINE",
"235 425 LINE",
"150 700 LINE",
"30 700 LINE",
"30 0 LINE"
);
}
);
width = 410;
},
{
layerId = m002;
paths = (
{
closed = 1;
nodes = (
"160 0 LINE",
"160 275 LINE",
"175 275 LINE",
"260 0 LINE",
"380 0 LINE",
"380 700 LINE",
"250 700 LINE",
"250 425 LINE",
"235 425 LINE",
"150 700 LINE",
"30 700 LINE",
"30 0 LINE"
);
}
);
width = 410;
}
);
leftKerningGroup = H;
leftMetricsKey = B;
rightKerningGroup = H;
rightMetricsKey = H;
unicode = 004E;
},
{
glyphname = Eng;
lastChange = "2023-02-05 07:58:30 +0000";
layers = (
{
components = (
{
name = N.big;
}
);
layerId = "96BCCF85-5232-4835-A4EF-A1D5F093B6B0";
paths = (
{
closed = 1;
nodes = (
"582 -200 OFFCURVE",
"660 -122 OFFCURVE",
"660 -25 CURVE",
"660 0 LINE",
"501 0 LINE",
"501 -34 LINE",
"501 -49 OFFCURVE",
"489 -61 OFFCURVE",
"474 -61 CURVE",
"412 -61 LINE",
"412 -200 LINE",
"485 -200 LINE"
);
}
);
width = 690;
},
{
components = (
{
name = N.big;
}
);
layerId = m002;
paths = (
{
closed = 1;
nodes = (
"582 -200 OFFCURVE",
"660 -122 OFFCURVE",
"660 -25 CURVE",
"660 0 LINE",
"501 0 LINE",
"501 -34 LINE",
"501 -49 OFFCURVE",
"489 -61 OFFCURVE",
"474 -61 CURVE",
"412 -61 LINE",
"412 -200 LINE",
"485 -200 LINE"
);
}
);
width = 690;
}
);
leftKerningGroup = H;
rightKerningGroup = H;
unicode = 014A;
},
{
glyphname = Ohorn;
lastChange = "2023-02-05 07:58:30 +0000";
layers = (
{
layerId = "96BCCF85-5232-4835-A4EF-A1D5F093B6B0";
paths = (
{
closed = 1;
nodes = (
"734 475 OFFCURVE",
"750 417 OFFCURVE",
"750 350 CURVE",
"750 151 OFFCURVE",
"589 -10 OFFCURVE",
"390 -10 CURVE",
"191 -10 OFFCURVE",
"30 151 OFFCURVE",
"30 350 CURVE",
"30 549 OFFCURVE",
"191 710 OFFCURVE",
"390 710 CURVE SMOOTH",
"535 710 OFFCURVE",
"609 636 OFFCURVE",
"627 584 CURVE",
"637 584 LINE",
"653 615 OFFCURVE",
"659 647 OFFCURVE",
"659 700 CURVE",
"749 700 LINE",
"749 634 OFFCURVE",
"741 577 OFFCURVE",
"702 529 CURVE"
);
},
{
closed = 1;
nodes = (
"601 467 OFFCURVE",
"507 561 OFFCURVE",
"390 561 CURVE",
"274 561 OFFCURVE",
"180 467 OFFCURVE",
"180 350 CURVE",
"180 234 OFFCURVE",
"274 140 OFFCURVE",
"390 140 CURVE",
"507 140 OFFCURVE",
"601 234 OFFCURVE",
"601 350 CURVE"
);
}
);
width = 780;
},
{
layerId = m002;
paths = (
{
closed = 1;
nodes = (
"734 475 OFFCURVE",
"750 417 OFFCURVE",
"750 350 CURVE",
"750 151 OFFCURVE",
"589 -10 OFFCURVE",
"390 -10 CURVE",
"191 -10 OFFCURVE",
"30 151 OFFCURVE",
"30 350 CURVE",
"30 549 OFFCURVE",
"191 710 OFFCURVE",
"390 710 CURVE SMOOTH",
"535 710 OFFCURVE",
"609 636 OFFCURVE",
"627 584 CURVE",
"637 584 LINE",
"653 615 OFFCURVE",
"659 647 OFFCURVE",
"659 700 CURVE",
"749 700 LINE",
"749 634 OFFCURVE",
"741 577 OFFCURVE",
"702 529 CURVE"
);
},
{
closed = 1;
nodes = (
"601 467 OFFCURVE",
"507 561 OFFCURVE",
"390 561 CURVE",
"274 561 OFFCURVE",
"180 467 OFFCURVE",
"180 350 CURVE",
"180 234 OFFCURVE",
"274 140 OFFCURVE",
"390 140 CURVE",
"507 140 OFFCURVE",
"601 234 OFFCURVE",
"601 350 CURVE"
);
}
);
width = 780;
}
);
leftKerningGroup = O;
rightKerningGroup = O;
unicode = 01A0;
},
{
glyphname = Oslash;
lastChange = "2023-02-05 07:58:30 +0000";
layers = (
{
components = (
{
name = O.big;
}
);
layerId = "96BCCF85-5232-4835-A4EF-A1D5F093B6B0";
paths = (
{
closed = 1;
nodes = (
"117 -10 LINE",
"153 -10 LINE",
"663 710 LINE",
"628 710 LINE"
);
}
);
width = 780;
},
{
components = (
{
name = O.big;
}
);
layerId = m002;
paths = (
{
closed = 1;
nodes = (
"117 -10 LINE",
"153 -10 LINE",
"663 710 LINE",
"628 710 LINE"
);
}
);
width = 780;
}
);
leftKerningGroup = O;
rightKerningGroup = O;
unicode = 00D8;
},
{
glyphname = OE;
lastChange = "2023-02-05 07:58:30 +0000";
layers = (
{
layerId = "96BCCF85-5232-4835-A4EF-A1D5F093B6B0";
paths = (
{
closed = 1;
nodes = (
"301 0 OFFCURVE",
"380 78 OFFCURVE",
"380 175 CURVE",
"380 525 LINE",
"380 622 OFFCURVE",
"301 700 OFFCURVE",
"205 700 CURVE",
"108 700 OFFCURVE",
"30 622 OFFCURVE",
"30 525 CURVE",
"30 175 LINE",
"30 78 OFFCURVE",
"108 0 OFFCURVE",
"205 0 CURVE"
);
},
{
closed = 1;
nodes = (
"190 132 OFFCURVE",
"179 143 OFFCURVE",
"179 157 CURVE",
"179 544 LINE",
"179 558 OFFCURVE",
"190 570 OFFCURVE",
"205 570 CURVE",
"219 570 OFFCURVE",
"230 558 OFFCURVE",
"230 544 CURVE",
"230 157 LINE",
"230 143 OFFCURVE",
"219 132 OFFCURVE",
"205 132 CURVE"
);
},
{
closed = 1;
nodes = (
"511 0 LINE",
"511 129 LINE",
"380 129 LINE",
"380 275 LINE",
"467 275 LINE",
"467 425 LINE",
"380 425 LINE",
"380 570 LINE",
"511 570 LINE",
"511 700 LINE",
"205 700 LINE",
"231 685 LINE",
"231 15 LINE",
"205 0 LINE"
);
}
);
width = 541;
},
{
layerId = m002;
paths = (
{
closed = 1;
nodes = (
"301 0 OFFCURVE",
"380 78 OFFCURVE",
"380 175 CURVE",
"380 525 LINE",
"380 622 OFFCURVE",
"301 700 OFFCURVE",
"205 700 CURVE",
"108 700 OFFCURVE",
"30 622 OFFCURVE",
"30 525 CURVE",
"30 175 LINE",
"30 78 OFFCURVE",
"108 0 OFFCURVE",
"205 0 CURVE"
);
},
{
closed = 1;
nodes = (
"190 132 OFFCURVE",
"179 143 OFFCURVE",
"179 157 CURVE",
"179 544 LINE",
"179 558 OFFCURVE",
"190 570 OFFCURVE",
"205 570 CURVE",
"219 570 OFFCURVE",
"230 558 OFFCURVE",
"230 544 CURVE",
"230 157 LINE",
"230 143 OFFCURVE",
"219 132 OFFCURVE",
"205 132 CURVE"
);
},
{
closed = 1;
nodes = (
"511 0 LINE",
"511 129 LINE",
"380 129 LINE",
"380 275 LINE",
"467 275 LINE",
"467 425 LINE",
"380 425 LINE",
"380 570 LINE",
"511 570 LINE",
"511 700 LINE",
"205 700 LINE",
"231 685 LINE",
"231 15 LINE",
"205 0 LINE"
);
}
);
width = 541;
}
);
leftKerningGroup = o;
rightKerningGroup = e;
unicode = 0152;
},
{
glyphname = Thorn;
lastChange = "2023-02-05 07:58:30 +0000";
layers = (
{
guideLines = (
{
position = "{486, 350}";
}
);
layerId = "96BCCF85-5232-4835-A4EF-A1D5F093B6B0";
paths = (
{
closed = 1;
nodes = (
"179 0 LINE",
"179 96 LINE",
"185 96 LINE",
"292 96 OFFCURVE",
"379 182 OFFCURVE",
"380 290 CURVE SMOOTH",
"380 290 OFFCURVE",
"380 410 OFFCURVE",
"380 410 CURVE",
"380 517 OFFCURVE",
"292 604 OFFCURVE",
"185 604 CURVE",
"185 700 LINE",
"30 700 LINE",
"30 0 LINE"
);
},
{
closed = 1;
nodes = (
"179 474 LINE",
"182 474 LINE",
"208 474 OFFCURVE",
"230 474 OFFCURVE",
"230 406 CURVE",
"230 293 LINE",
"230 226 OFFCURVE",
"208 226 OFFCURVE",
"182 226 CURVE",
"179 226 LINE"
);
}
);
width = 410;
},
{
guideLines = (
{
position = "{486, 350}";
}
);
layerId = m002;
paths = (
{
closed = 1;
nodes = (
"179 0 LINE",
"179 96 LINE",
"185 96 LINE",
"292 96 OFFCURVE",
"379 182 OFFCURVE",
"380 290 CURVE SMOOTH",
"380 290 OFFCURVE",
"380 410 OFFCURVE",
"380 410 CURVE",
"380 517 OFFCURVE",
"292 604 OFFCURVE",
"185 604 CURVE",
"185 700 LINE",
"30 700 LINE",
"30 0 LINE"
);
},
{
closed = 1;
nodes = (
"179 474 LINE",
"182 474 LINE",
"208 474 OFFCURVE",
"230 474 OFFCURVE",
"230 406 CURVE",
"230 293 LINE",
"230 226 OFFCURVE",
"208 226 OFFCURVE",
"182 226 CURVE",
"179 226 LINE"
);
}
);
width = 410;
}
);
leftKerningGroup = H;
rightKerningGroup = p;
unicode = 00DE;
},
{
glyphname = Q;
lastChange = "2023-02-05 07:58:30 +0000";
layers = (
{
layerId = "96BCCF85-5232-4835-A4EF-A1D5F093B6B0";
paths = (
{
closed = 1;
nodes = (
"380 -88 LINE",
"380 -73 LINE",
"316 24 LINE",
"316 39 LINE",
"355 72 OFFCURVE",
"380 120 OFFCURVE",
"380 175 CURVE",
"380 535 LINE",
"380 631 OFFCURVE",
"302 710 OFFCURVE",
"205 710 CURVE",
"108 710 OFFCURVE",
"30 631 OFFCURVE",
"30 535 CURVE",
"30 175 LINE",
"30 78 OFFCURVE",
"108 0 OFFCURVE",
"205 0 CURVE",
"206 0 LINE",
"253 -88 LINE"
);
},
{
closed = 1;
nodes = (
"191 129 OFFCURVE",
"179 140 OFFCURVE",
"179 155 CURVE",
"179 544 LINE",
"179 559 OFFCURVE",
"191 570 OFFCURVE",
"205 570 CURVE",
"220 570 OFFCURVE",
"232 559 OFFCURVE",
"232 544 CURVE",
"232 155 LINE",
"232 140 OFFCURVE",
"220 129 OFFCURVE",
"205 129 CURVE"
);
}
);
width = 411;
},
{
layerId = m002;
paths = (
{
closed = 1;
nodes = (
"380 -88 LINE",
"380 -73 LINE",
"316 24 LINE",
"316 39 LINE",
"355 72 OFFCURVE",
"380 120 OFFCURVE",
"380 175 CURVE",
"380 535 LINE",
"380 631 OFFCURVE",
"302 710 OFFCURVE",
"205 710 CURVE",
"108 710 OFFCURVE",
"30 631 OFFCURVE",
"30 535 CURVE",
"30 175 LINE",
"30 78 OFFCURVE",
"108 0 OFFCURVE",
"205 0 CURVE",
"206 0 LINE",
"253 -88 LINE"
);
},
{
closed = 1;
nodes = (
"191 129 OFFCURVE",
"179 140 OFFCURVE",
"179 155 CURVE",
"179 544 LINE",
"179 559 OFFCURVE",
"191 570 OFFCURVE",
"205 570 CURVE",
"220 570 OFFCURVE",
"232 559 OFFCURVE",
"232 544 CURVE",
"232 155 LINE",
"232 140 OFFCURVE",
"220 129 OFFCURVE",
"205 129 CURVE"
);
}
);
width = 411;
}
);
leftKerningGroup = o;
rightKerningGroup = o;
unicode = 0051;
},
{
glyphname = R;
lastChange = "2023-02-05 07:58:30 +0000";
layers = (
{
layerId = "96BCCF85-5232-4835-A4EF-A1D5F093B6B0";
paths = (
{
closed = 1;
nodes = (
"179 0 LINE",
"179 193 LINE",
"188 193 LINE",
"230 0 LINE",
"380 0 LINE",
"318 229 LINE",
"318 244 LINE",
"366 288 OFFCURVE",
"380 351 OFFCURVE",
"380 386 CURVE",
"380 387 OFFCURVE",
"380 466 OFFCURVE",
"380 503 CURVE",
"380 612 OFFCURVE",
"291 700 OFFCURVE",
"183 700 CURVE",
"30 700 LINE",
"30 0 LINE"
);
},
{
closed = 1;
nodes = (
"179 570 LINE",
"187 570 LINE SMOOTH",
"211 570 OFFCURVE",
"230 562 OFFCURVE",
"230 506 CURVE SMOOTH",
"230 471 OFFCURVE",
"230 412 OFFCURVE",
"230 386 CURVE SMOOTH",
"230 328 OFFCURVE",
"211 322 OFFCURVE",
"187 322 CURVE SMOOTH",
"179 322 LINE"
);
}
);
width = 410;
},
{
layerId = m002;
paths = (
{
closed = 1;
nodes = (
"179 0 LINE",
"179 193 LINE",
"188 193 LINE",
"230 0 LINE",
"380 0 LINE",
"318 229 LINE",
"318 244 LINE",
"366 288 OFFCURVE",
"380 351 OFFCURVE",
"380 386 CURVE",
"380 387 OFFCURVE",
"380 466 OFFCURVE",
"380 503 CURVE",
"380 612 OFFCURVE",
"291 700 OFFCURVE",
"183 700 CURVE",
"30 700 LINE",
"30 0 LINE"
);
},
{
closed = 1;
nodes = (
"179 570 LINE",
"187 570 LINE SMOOTH",
"211 570 OFFCURVE",
"230 562 OFFCURVE",
"230 506 CURVE SMOOTH",
"230 471 OFFCURVE",
"230 412 OFFCURVE",
"230 386 CURVE SMOOTH",
"230 328 OFFCURVE",
"211 322 OFFCURVE",
"187 322 CURVE SMOOTH",
"179 322 LINE"
);
}
);
width = 410;
}
);
leftKerningGroup = H;
leftMetricsKey = B;
rightKerningGroup = r;
unicode = 0052;
},
{
glyphname = Germandbls;
lastChange = "2023-02-05 07:58:30 +0000";
layers = (
{
guideLines = (
{
angle = 43.9584;
position = "{595, 570}";
}
);
layerId = "96BCCF85-5232-4835-A4EF-A1D5F093B6B0";
paths = (
{
closed = 1;
nodes = (
"562 -10 OFFCURVE",
"655 57 OFFCURVE",
"655 202 CURVE SMOOTH",
"655 316 OFFCURVE",
"573 406 OFFCURVE",
"429 395 CURVE",
"429 410 LINE",
"595 570 LINE",
"595 700 LINE",
"30 700 LINE",
"30 -10 LINE",
"175 -10 LINE",
"175 570 LINE",
"435 570 LINE",
"435 560 LINE",
"295 425 LINE",
"295 275 LINE",
"445 275 LINE SMOOTH",
"483 275 OFFCURVE",
"515 240 OFFCURVE",
"515 202 CURVE SMOOTH",
"515 161 OFFCURVE",
"483 129 OFFCURVE",
"445 129 CURVE SMOOTH",
"295 129 LINE",
"295 -10 LINE",
"449 -10 LINE"
);
}
);
width = 685;
},
{
guideLines = (
{
angle = 43.9584;
position = "{595, 570}";
}
);
layerId = m002;
paths = (
{
closed = 1;
nodes = (
"562 -10 OFFCURVE",
"655 57 OFFCURVE",
"655 202 CURVE SMOOTH",
"655 316 OFFCURVE",
"573 406 OFFCURVE",
"429 395 CURVE",
"429 410 LINE",
"595 570 LINE",
"595 700 LINE",
"30 700 LINE",
"30 -10 LINE",
"175 -10 LINE",
"175 570 LINE",
"435 570 LINE",
"435 560 LINE",
"295 425 LINE",
"295 275 LINE",
"445 275 LINE SMOOTH",
"483 275 OFFCURVE",
"515 240 OFFCURVE",
"515 202 CURVE SMOOTH",
"515 161 OFFCURVE",
"483 129 OFFCURVE",
"445 129 CURVE SMOOTH",
"295 129 LINE",
"295 -10 LINE",
"449 -10 LINE"
);
}
);
width = 685;
}
);
leftKerningGroup = H;
rightKerningGroup = o;
unicode = 1E9E;
},
{
glyphname = T;
lastChange = "2023-02-05 07:58:30 +0000";
layers = (
{
layerId = "96BCCF85-5232-4835-A4EF-A1D5F093B6B0";
paths = (
{
closed = 1;
nodes = (
"275 0 LINE",
"275 570 LINE",
"370 570 LINE",
"370 700 LINE",
"30 700 LINE",
"30 570 LINE",
"125 570 LINE",
"125 0 LINE"
);
}
);
width = 400;
},
{
layerId = m002;
paths = (
{
closed = 1;
nodes = (
"275 0 LINE",
"275 570 LINE",
"370 570 LINE",
"370 700 LINE",
"30 700 LINE",
"30 570 LINE",
"125 570 LINE",
"125 0 LINE"
);
}
);
width = 400;
}
);
leftKerningGroup = T;
rightKerningGroup = T;
unicode = 0054;
},
{
glyphname = U;
lastChange = "2023-02-05 07:58:30 +0000";
layers = (
{
layerId = "96BCCF85-5232-4835-A4EF-A1D5F093B6B0";
paths = (
{
closed = 1;
nodes = (
"302 -10 OFFCURVE",
"380 68 OFFCURVE",
"380 165 CURVE",
"380 700 LINE",
"232 700 LINE",
"232 156 LINE",
"232 141 OFFCURVE",
"220 129 OFFCURVE",
"205 129 CURVE",
"191 129 OFFCURVE",
"179 141 OFFCURVE",
"179 156 CURVE",
"179 700 LINE",
"30 700 LINE",
"30 165 LINE",
"30 68 OFFCURVE",
"108 -10 OFFCURVE",
"205 -10 CURVE"
);
}
);
width = 410;
},
{
layerId = m002;
paths = (
{
closed = 1;
nodes = (
"302 -10 OFFCURVE",
"380 68 OFFCURVE",
"380 165 CURVE",
"380 700 LINE",
"232 700 LINE",
"232 156 LINE",
"232 141 OFFCURVE",
"220 129 OFFCURVE",
"205 129 CURVE",
"191 129 OFFCURVE",
"179 141 OFFCURVE",
"179 156 CURVE",
"179 700 LINE",
"30 700 LINE",
"30 165 LINE",
"30 68 OFFCURVE",
"108 -10 OFFCURVE",
"205 -10 CURVE"
);
}
);
width = 410;
}
);
leftKerningGroup = u;
rightKerningGroup = u;
rightMetricsKey = H;
unicode = 0055;
},
{
glyphname = Uhorn;
lastChange = "2023-02-05 07:58:30 +0000";
layers = (
{
guideLines = (
{
position = "{852, 491}";
},
{
position = "{852, 521}";
},
{
angle = 90;
position = "{609, 211}";
}
);
layerId = "96BCCF85-5232-4835-A4EF-A1D5F093B6B0";
paths = (
{
closed = 1;
nodes = (
"659 635 OFFCURVE",
"647 570 OFFCURVE",
"609 570 CURVE",
"609 700 LINE",
"459 700 LINE",
"458 268 LINE",
"458 191 OFFCURVE",
"396 129 OFFCURVE",
"319 129 CURVE",
"241 129 OFFCURVE",
"179 191 OFFCURVE",
"179 268 CURVE",
"180 700 LINE",
"30 700 LINE",
"30 279 LINE",
"30 119 OFFCURVE",
"160 -10 OFFCURVE",
"320 -10 CURVE",
"480 -10 OFFCURVE",
"609 119 OFFCURVE",
"609 279 CURVE",
"609 491 LINE",
"735 491 OFFCURVE",
"749 622 OFFCURVE",
"749 700 CURVE",
"659 700 LINE"
);
}
);
width = 779;
},
{
guideLines = (
{
position = "{852, 491}";
},
{
position = "{852, 521}";
},
{
angle = 90;
position = "{609, 211}";
}
);
layerId = m002;
paths = (
{
closed = 1;
nodes = (
"659 635 OFFCURVE",
"647 570 OFFCURVE",
"609 570 CURVE",
"609 700 LINE",
"459 700 LINE",
"458 268 LINE",
"458 191 OFFCURVE",
"396 129 OFFCURVE",
"319 129 CURVE",
"241 129 OFFCURVE",
"179 191 OFFCURVE",
"179 268 CURVE",
"180 700 LINE",
"30 700 LINE",
"30 279 LINE",
"30 119 OFFCURVE",
"160 -10 OFFCURVE",
"320 -10 CURVE",
"480 -10 OFFCURVE",
"609 119 OFFCURVE",
"609 279 CURVE",
"609 491 LINE",
"735 491 OFFCURVE",
"749 622 OFFCURVE",
"749 700 CURVE",
"659 700 LINE"
);
}
);
width = 779;
}
);
leftKerningGroup = U;
rightKerningGroup = Uhorn;
unicode = 01AF;
},
{
glyphname = V;
lastChange = "2023-02-05 07:58:30 +0000";
layers = (
{
layerId = "96BCCF85-5232-4835-A4EF-A1D5F093B6B0";
paths = (
{
closed = 1;
nodes = (
"290 0 LINE",
"380 685 LINE",
"380 700 LINE",
"230 700 LINE",
"211 200 LINE",
"198 200 LINE",
"179 700 LINE",
"30 700 LINE",
"30 685 LINE",
"120 0 LINE"
);
}
);
width = 411;
},
{
layerId = m002;
paths = (
{
closed = 1;
nodes = (
"290 0 LINE",
"380 685 LINE",
"380 700 LINE",
"230 700 LINE",
"211 200 LINE",
"198 200 LINE",
"179 700 LINE",
"30 700 LINE",
"30 685 LINE",
"120 0 LINE"
);
}
);
width = 411;
}
);
leftKerningGroup = V;
rightKerningGroup = V;
unicode = 0056;
},
{
glyphname = W;
lastChange = "2023-02-05 07:58:30 +0000";
layers = (
{
layerId = "96BCCF85-5232-4835-A4EF-A1D5F093B6B0";
paths = (
{
closed = 1;
nodes = (
"224 0 LINE",
"241 250 LINE",
"257 250 LINE",
"273 0 LINE",
"424 0 LINE",
"467 685 LINE",
"467 700 LINE",
"356 700 LINE",
"342 389 LINE",
"329 389 LINE",
"292 700 LINE",
"205 700 LINE",
"168 389 LINE",
"155 389 LINE",
"141 700 LINE",
"30 700 LINE",
"30 685 LINE",
"74 0 LINE"
);
}
);
width = 497;
},
{
layerId = m002;
paths = (
{
closed = 1;
nodes = (
"224 0 LINE",
"241 250 LINE",
"257 250 LINE",
"273 0 LINE",
"424 0 LINE",
"467 685 LINE",
"467 700 LINE",
"356 700 LINE",
"342 389 LINE",
"329 389 LINE",
"292 700 LINE",
"205 700 LINE",
"168 389 LINE",
"155 389 LINE",
"141 700 LINE",
"30 700 LINE",
"30 685 LINE",
"74 0 LINE"
);
}
);
width = 497;
}
);
leftKerningGroup = W;
rightKerningGroup = W;
unicode = 0057;
},
{
glyphname = Y;
lastChange = "2023-02-13 16:55:22 +0000";
layers = (
{
layerId = "96BCCF85-5232-4835-A4EF-A1D5F093B6B0";
paths = (
{
closed = 1;
nodes = (
"280 0 LINE",
"280 311 LINE",
"380 685 LINE",
"380 700 LINE",
"232 700 LINE",
"212 440 LINE",
"199 440 LINE",
"179 700 LINE",
"30 700 LINE",
"30 685 LINE",
"131 311 LINE",
"131 0 LINE"
);
}
);
width = 411;
},
{
layerId = m002;
paths = (
{
closed = 1;
nodes = (
"280 0 LINE",
"280 311 LINE",
"380 685 LINE",
"380 700 LINE",
"232 700 LINE",
"212 440 LINE",
"199 440 LINE",
"179 700 LINE",
"30 700 LINE",
"30 685 LINE",
"131 311 LINE",
"131 0 LINE"
);
}
);
width = 411;
}
);
leftKerningGroup = Y;
rightKerningGroup = Y;
unicode = 0059;
},
{
glyphname = Dcroat.001;
lastChange = "2023-02-05 07:58:30 +0000";
layers = (
{
guideLines = (
{
angle = 90;
position = "{759, 362}";
},
{
angle = 90;
position = "{324, 389}";
}
);
layerId = "96BCCF85-5232-4835-A4EF-A1D5F093B6B0";
paths = (
{
closed = 1;
nodes = (
"284 559 OFFCURVE",
"274 570 OFFCURVE",
"261 570 CURVE",
"233 570 LINE",
"233 129 LINE",
"261 129 LINE",
"274 129 OFFCURVE",
"284 140 OFFCURVE",
"284 152 CURVE",
"284 547 LINE"
);
},
{
closed = 1;
nodes = (
"356 700 OFFCURVE",
"434 622 OFFCURVE",
"434 525 CURVE",
"434 175 LINE",
"434 78 OFFCURVE",
"356 0 OFFCURVE",
"259 0 CURVE",
"84 0 LINE",
"84 285 LINE",
"30 285 LINE",
"30 415 LINE",
"84 415 LINE",
"84 700 LINE",
"259 700 LINE"
);
}
);
width = 464;
},
{
guideLines = (
{
angle = 90;
position = "{759, 362}";
},
{
angle = 90;
position = "{324, 389}";
}
);
layerId = m002;
paths = (
{
closed = 1;
nodes = (
"284 559 OFFCURVE",
"274 570 OFFCURVE",
"261 570 CURVE",
"233 570 LINE",
"233 129 LINE",
"261 129 LINE",
"274 129 OFFCURVE",
"284 140 OFFCURVE",
"284 152 CURVE",
"284 547 LINE"
);
},
{
closed = 1;
nodes = (
"356 700 OFFCURVE",
"434 622 OFFCURVE",
"434 525 CURVE",
"434 175 LINE",
"434 78 OFFCURVE",
"356 0 OFFCURVE",
"259 0 CURVE",
"84 0 LINE",
"84 285 LINE",
"30 285 LINE",
"30 415 LINE",
"84 415 LINE",
"84 700 LINE",
"259 700 LINE"
);
}
);
width = 464;
}
);
leftKerningGroup = dcroat;
rightKerningGroup = o;
},
{
glyphname = G.001;
lastChange = "2023-02-05 07:58:30 +0000";
layers = (
{
layerId = "96BCCF85-5232-4835-A4EF-A1D5F093B6B0";
paths = (
{
closed = 1;
nodes = (
"380 389 LINE",
"380 165 LINE",
"380 68 OFFCURVE",
"302 -10 OFFCURVE",
"205 -10 CURVE",
"108 -10 OFFCURVE",
"30 68 OFFCURVE",
"30 165 CURVE",
"30 535 LINE",
"30 632 OFFCURVE",
"108 710 OFFCURVE",
"205 710 CURVE",
"302 710 OFFCURVE",
"380 632 OFFCURVE",
"380 535 CURVE",
"380 425 LINE",
"231 425 LINE",
"231 544 LINE",
"231 558 OFFCURVE",
"220 570 OFFCURVE",
"205 570 CURVE",
"191 570 OFFCURVE",
"180 558 OFFCURVE",
"180 544 CURVE",
"180 155 LINE",
"180 141 OFFCURVE",
"191 129 OFFCURVE",
"205 129 CURVE",
"220 129 OFFCURVE",
"231 141 OFFCURVE",
"231 155 CURVE",
"231 239 LINE",
"205 239 LINE",
"205 389 LINE"
);
}
);
width = 410;
},
{
layerId = m002;
paths = (
{
closed = 1;
nodes = (
"380 389 LINE",
"380 165 LINE",
"380 68 OFFCURVE",
"302 -10 OFFCURVE",
"205 -10 CURVE",
"108 -10 OFFCURVE",
"30 68 OFFCURVE",
"30 165 CURVE",
"30 535 LINE",
"30 632 OFFCURVE",
"108 710 OFFCURVE",
"205 710 CURVE",
"302 710 OFFCURVE",
"380 632 OFFCURVE",
"380 535 CURVE",
"380 425 LINE",
"231 425 LINE",
"231 544 LINE",
"231 558 OFFCURVE",
"220 570 OFFCURVE",
"205 570 CURVE",
"191 570 OFFCURVE",
"180 558 OFFCURVE",
"180 544 CURVE",
"180 155 LINE",
"180 141 OFFCURVE",
"191 129 OFFCURVE",
"205 129 CURVE",
"220 129 OFFCURVE",
"231 141 OFFCURVE",
"231 155 CURVE",
"231 239 LINE",
"205 239 LINE",
"205 389 LINE"
);
}
);
width = 410;
}
);
leftKerningGroup = o;
rightKerningGroup = o;
},
{
glyphname = A.big;
lastChange = "2023-02-05 07:58:30 +0000";
layers = (
{
layerId = "96BCCF85-5232-4835-A4EF-A1D5F093B6B0";
paths = (
{
closed = 1;
nodes = (
"507 180 LINE",
"254 180 LINE",
"180 0 LINE",
"30 0 LINE",
"336 700 LINE",
"424 700 LINE",
"730 0 LINE",
"581 0 LINE"
);
},
{
closed = 1;
nodes = (
"453 311 LINE",
"387 470 LINE",
"374 470 LINE",
"308 311 LINE"
);
}
);
width = 760;
},
{
layerId = m002;
paths = (
{
closed = 1;
nodes = (
"507 180 LINE",
"254 180 LINE",
"180 0 LINE",
"30 0 LINE",
"336 700 LINE",
"424 700 LINE",
"730 0 LINE",
"581 0 LINE"
);
},
{
closed = 1;
nodes = (
"453 311 LINE",
"387 470 LINE",
"374 470 LINE",
"308 311 LINE"
);
}
);
width = 760;
}
);
leftKerningGroup = A;
rightKerningGroup = A;
},
{
glyphname = C.big;
lastChange = "2023-02-11 07:17:18 +0000";
layers = (
{
layerId = "96BCCF85-5232-4835-A4EF-A1D5F093B6B0";
paths = (
{
closed = 1;
nodes = (
"577 184 OFFCURVE",
"496 122 OFFCURVE",
"390 122 CURVE SMOOTH",
"255 122 OFFCURVE",
"160 220 OFFCURVE",
"160 350 CURVE SMOOTH",
"160 482 OFFCURVE",
"255 580 OFFCURVE",
"390 580 CURVE SMOOTH",
"496 580 OFFCURVE",
"578 517 OFFCURVE",
"607 425 CURVE",
"743 425 LINE",
"708 598 OFFCURVE",
"565 710 OFFCURVE",
"390 710 CURVE SMOOTH",
"180 710 OFFCURVE",
"30 554 OFFCURVE",
"30 350 CURVE SMOOTH",
"30 146 OFFCURVE",
"180 -10 OFFCURVE",
"390 -10 CURVE SMOOTH",
"589 -10 OFFCURVE",
"717 129 OFFCURVE",
"743 275 CURVE",
"607 275 LINE"
);
}
);
width = 773;
},
{
layerId = m002;
paths = (
{
closed = 1;
nodes = (
"577 184 OFFCURVE",
"496 122 OFFCURVE",
"390 122 CURVE SMOOTH",
"255 122 OFFCURVE",
"160 220 OFFCURVE",
"160 350 CURVE SMOOTH",
"160 482 OFFCURVE",
"255 580 OFFCURVE",
"390 580 CURVE SMOOTH",
"496 580 OFFCURVE",
"578 517 OFFCURVE",
"607 425 CURVE",
"743 425 LINE",
"708 598 OFFCURVE",
"565 710 OFFCURVE",
"390 710 CURVE SMOOTH",
"180 710 OFFCURVE",
"30 554 OFFCURVE",
"30 350 CURVE SMOOTH",
"30 146 OFFCURVE",
"180 -10 OFFCURVE",
"390 -10 CURVE SMOOTH",
"589 -10 OFFCURVE",
"717 129 OFFCURVE",
"743 275 CURVE",
"607 275 LINE"
);
}
);
width = 773;
}
);
leftKerningGroup = O;
rightKerningGroup = O;
},
{
glyphname = E.big;
lastChange = "2023-02-05 07:58:30 +0000";
layers = (
{
layerId = "96BCCF85-5232-4835-A4EF-A1D5F093B6B0";
paths = (
{
closed = 1;
nodes = (
"180 570 LINE",
"180 425 LINE",
"573 425 LINE",
"573 275 LINE",
"180 275 LINE",
"180 129 LINE",
"660 129 LINE",
"660 0 LINE",
"30 0 LINE",
"30 700 LINE",
"660 700 LINE",
"660 570 LINE"
);
}
);
width = 690;
},
{
layerId = m002;
paths = (
{
closed = 1;
nodes = (
"180 570 LINE",
"180 425 LINE",
"573 425 LINE",
"573 275 LINE",
"180 275 LINE",
"180 129 LINE",
"660 129 LINE",
"660 0 LINE",
"30 0 LINE",
"30 700 LINE",
"660 700 LINE",
"660 570 LINE"
);
}
);
width = 690;
}
);
leftKerningGroup = H;
rightKerningGroup = E;
},
{
glyphname = G.big;
lastChange = "2023-02-11 07:17:06 +0000";
layers = (
{
guideLines = (
{
position = "{533, 450}";
}
);
layerId = "96BCCF85-5232-4835-A4EF-A1D5F093B6B0";
paths = (
{
closed = 1;
nodes = (
"583 167 OFFCURVE",
"496 122 OFFCURVE",
"390 122 CURVE SMOOTH",
"255 122 OFFCURVE",
"160 220 OFFCURVE",
"160 350 CURVE SMOOTH",
"160 482 OFFCURVE",
"255 580 OFFCURVE",
"390 580 CURVE SMOOTH",
"486 580 OFFCURVE",
"562 528 OFFCURVE",
"597 450 CURVE",
"737 450 LINE",
"694 609 OFFCURVE",
"556 710 OFFCURVE",
"390 710 CURVE SMOOTH",
"180 710 OFFCURVE",
"30 554 OFFCURVE",
"30 350 CURVE SMOOTH",
"30 146 OFFCURVE",
"180 -10 OFFCURVE",
"390 -10 CURVE SMOOTH",
"515 -10 OFFCURVE",
"571 49 OFFCURVE",
"597 88 CURVE",
"607 88 LINE",
"607 275 LINE"
);
},
{
closed = 1;
nodes = (
"390 250 LINE",
"607 250 LINE",
"607 15 LINE",
"743 15 LINE",
"743 350 LINE",
"390 350 LINE"
);
}
);
width = 773;
},
{
guideLines = (
{
position = "{533, 450}";
}
);
layerId = m002;
paths = (
{
closed = 1;
nodes = (
"583 167 OFFCURVE",
"496 122 OFFCURVE",
"390 122 CURVE SMOOTH",
"255 122 OFFCURVE",
"160 220 OFFCURVE",
"160 350 CURVE SMOOTH",
"160 482 OFFCURVE",
"255 580 OFFCURVE",
"390 580 CURVE SMOOTH",
"486 580 OFFCURVE",
"562 528 OFFCURVE",
"597 450 CURVE",
"737 450 LINE",
"694 609 OFFCURVE",
"556 710 OFFCURVE",
"390 710 CURVE SMOOTH",
"180 710 OFFCURVE",
"30 554 OFFCURVE",
"30 350 CURVE SMOOTH",
"30 146 OFFCURVE",
"180 -10 OFFCURVE",
"390 -10 CURVE SMOOTH",
"515 -10 OFFCURVE",
"571 49 OFFCURVE",
"597 88 CURVE",
"607 88 LINE",
"607 275 LINE"
);
},
{
closed = 1;
nodes = (
"390 250 LINE",
"607 250 LINE",
"607 15 LINE",
"743 15 LINE",
"743 350 LINE",
"390 350 LINE"
);
}
);
width = 773;
}
);
leftKerningGroup = O;
rightKerningGroup = H;
},
{
glyphname = I.big;
lastChange = "2023-02-05 07:58:30 +0000";
layers = (
{
layerId = "96BCCF85-5232-4835-A4EF-A1D5F093B6B0";
paths = (
{
closed = 1;
nodes = (
"630 700 LINE",
"630 570 LINE",
"405 570 LINE",
"405 129 LINE",
"630 129 LINE",
"630 0 LINE",
"30 0 LINE",
"30 129 LINE",
"255 129 LINE",
"255 570 LINE",
"30 570 LINE",
"30 700 LINE"
);
}
);
width = 660;
},
{
layerId = m002;
paths = (
{
closed = 1;
nodes = (
"630 700 LINE",
"630 570 LINE",
"405 570 LINE",
"405 129 LINE",
"630 129 LINE",
"630 0 LINE",
"30 0 LINE",
"30 129 LINE",
"255 129 LINE",
"255 570 LINE",
"30 570 LINE",
"30 700 LINE"
);
}
);
width = 660;
}
);
leftKerningGroup = I;
rightKerningGroup = I;
},
{
glyphname = K.big;
lastChange = "2023-02-05 07:58:30 +0000";
layers = (
{
layerId = "96BCCF85-5232-4835-A4EF-A1D5F093B6B0";
paths = (
{
closed = 1;
nodes = (
"179 0 LINE",
"179 275 LINE",
"189 275 LINE",
"490 0 LINE",
"660 0 LINE",
"660 20 LINE",
"304 345 LINE",
"304 355 LINE",
"660 680 LINE",
"660 700 LINE",
"490 700 LINE",
"189 425 LINE",
"179 425 LINE",
"179 700 LINE",
"30 700 LINE",
"30 0 LINE"
);
}
);
width = 690;
},
{
layerId = m002;
paths = (
{
closed = 1;
nodes = (
"179 0 LINE",
"179 275 LINE",
"189 275 LINE",
"490 0 LINE",
"660 0 LINE",
"660 20 LINE",
"304 345 LINE",
"304 355 LINE",
"660 680 LINE",
"660 700 LINE",
"490 700 LINE",
"189 425 LINE",
"179 425 LINE",
"179 700 LINE",
"30 700 LINE",
"30 0 LINE"
);
}
);
width = 690;
}
);
},
{
glyphname = L.big;
lastChange = "2023-02-05 07:58:30 +0000";
layers = (
{
layerId = "96BCCF85-5232-4835-A4EF-A1D5F093B6B0";
paths = (
{
closed = 1;
nodes = (
"660 0 LINE",
"660 129 LINE",
"179 129 LINE",
"179 700 LINE",
"30 700 LINE",
"30 0 LINE"
);
}
);
width = 690;
},
{
layerId = m002;
paths = (
{
closed = 1;
nodes = (
"660 0 LINE",
"660 129 LINE",
"179 129 LINE",
"179 700 LINE",
"30 700 LINE",
"30 0 LINE"
);
}
);
width = 690;
}
);
},
{
glyphname = N.big;
lastChange = "2023-02-05 07:58:30 +0000";
layers = (
{
layerId = "96BCCF85-5232-4835-A4EF-A1D5F093B6B0";
paths = (
{
closed = 1;
nodes = (
"179 0 LINE",
"179 435 LINE",
"194 435 LINE",
"501 0 LINE",
"660 0 LINE",
"660 700 LINE",
"501 700 LINE",
"501 265 LINE",
"486 265 LINE",
"179 700 LINE",
"30 700 LINE",
"30 0 LINE"
);
}
);
width = 690;
},
{
layerId = m002;
paths = (
{
closed = 1;
nodes = (
"179 0 LINE",
"179 435 LINE",
"194 435 LINE",
"501 0 LINE",
"660 0 LINE",
"660 700 LINE",
"501 700 LINE",
"501 265 LINE",
"486 265 LINE",
"179 700 LINE",
"30 700 LINE",
"30 0 LINE"
);
}
);
width = 690;
}
);
},
{
glyphname = O.big;
lastChange = "2023-02-05 07:58:30 +0000";
layers = (
{
layerId = "96BCCF85-5232-4835-A4EF-A1D5F093B6B0";
paths = (
{
closed = 1;
nodes = (
"180 710 OFFCURVE",
"30 554 OFFCURVE",
"30 350 CURVE SMOOTH",
"30 146 OFFCURVE",
"180 -10 OFFCURVE",
"390 -10 CURVE SMOOTH",
"599 -10 OFFCURVE",
"750 146 OFFCURVE",
"750 350 CURVE SMOOTH",
"750 554 OFFCURVE",
"599 710 OFFCURVE",
"390 710 CURVE SMOOTH"
);
},
{
closed = 1;
nodes = (
"618 220 OFFCURVE",
"523 122 OFFCURVE",
"390 122 CURVE SMOOTH",
"255 122 OFFCURVE",
"160 220 OFFCURVE",
"160 350 CURVE SMOOTH",
"160 482 OFFCURVE",
"255 580 OFFCURVE",
"390 580 CURVE SMOOTH",
"523 580 OFFCURVE",
"618 482 OFFCURVE",
"618 350 CURVE SMOOTH"
);
}
);
width = 780;
},
{
layerId = m002;
paths = (
{
closed = 1;
nodes = (
"180 710 OFFCURVE",
"30 554 OFFCURVE",
"30 350 CURVE SMOOTH",
"30 146 OFFCURVE",
"180 -10 OFFCURVE",
"390 -10 CURVE SMOOTH",
"599 -10 OFFCURVE",
"750 146 OFFCURVE",
"750 350 CURVE SMOOTH",
"750 554 OFFCURVE",
"599 710 OFFCURVE",
"390 710 CURVE SMOOTH"
);
},
{
closed = 1;
nodes = (
"618 220 OFFCURVE",
"523 122 OFFCURVE",
"390 122 CURVE SMOOTH",
"255 122 OFFCURVE",
"160 220 OFFCURVE",
"160 350 CURVE SMOOTH",
"160 482 OFFCURVE",
"255 580 OFFCURVE",
"390 580 CURVE SMOOTH",
"523 580 OFFCURVE",
"618 482 OFFCURVE",
"618 350 CURVE SMOOTH"
);
}
);
width = 780;
}
);
leftKerningGroup = O;
rightKerningGroup = O;
},
{
glyphname = R.big;
lastChange = "2023-02-05 07:58:30 +0000";
layers = (
{
guideLines = (
{
position = "{7, 446}";
}
);
layerId = "96BCCF85-5232-4835-A4EF-A1D5F093B6B0";
paths = (
{
closed = 1;
nodes = (
"179 0 LINE",
"179 193 LINE",
"440 193 LINE",
"510 0 LINE",
"660 0 LINE",
"572 229 LINE",
"572 244 LINE",
"631 299 OFFCURVE",
"660 370 OFFCURVE",
"660 446 CURVE SMOOTH",
"660 586 OFFCURVE",
"545 700 OFFCURVE",
"406 700 CURVE SMOOTH",
"30 700 LINE",
"30 0 LINE"
);
},
{
closed = 1;
nodes = (
"179 570 LINE",
"371 570 LINE SMOOTH",
"465 570 OFFCURVE",
"510 518 OFFCURVE",
"510 447 CURVE SMOOTH",
"510 376 OFFCURVE",
"465 322 OFFCURVE",
"371 322 CURVE SMOOTH",
"179 322 LINE"
);
}
);
width = 690;
},
{
guideLines = (
{
position = "{7, 446}";
}
);
layerId = m002;
paths = (
{
closed = 1;
nodes = (
"179 0 LINE",
"179 193 LINE",
"440 193 LINE",
"510 0 LINE",
"660 0 LINE",
"572 229 LINE",
"572 244 LINE",
"631 299 OFFCURVE",
"660 370 OFFCURVE",
"660 446 CURVE SMOOTH",
"660 586 OFFCURVE",
"545 700 OFFCURVE",
"406 700 CURVE SMOOTH",
"30 700 LINE",
"30 0 LINE"
);
},
{
closed = 1;
nodes = (
"179 570 LINE",
"371 570 LINE SMOOTH",
"465 570 OFFCURVE",
"510 518 OFFCURVE",
"510 447 CURVE SMOOTH",
"510 376 OFFCURVE",
"465 322 OFFCURVE",
"371 322 CURVE SMOOTH",
"179 322 LINE"
);
}
);
width = 690;
}
);
},
{
glyphname = S.big;
lastChange = "2023-02-05 07:58:30 +0000";
layers = (
{
layerId = "96BCCF85-5232-4835-A4EF-A1D5F093B6B0";
paths = (
{
closed = 1;
nodes = (
"549 -10 OFFCURVE",
"687 57 OFFCURVE",
"687 169 CURVE SMOOTH",
"687 296 OFFCURVE",
"583 341 OFFCURVE",
"446 379 CURVE SMOOTH",
"281 425 OFFCURVE",
"170 422 OFFCURVE",
"170 500 CURVE SMOOTH",
"170 557 OFFCURVE",
"236 590 OFFCURVE",
"367 590 CURVE SMOOTH",
"487 590 OFFCURVE",
"547 546 OFFCURVE",
"547 477 CURVE SMOOTH",
"547 464 LINE",
"687 464 LINE",
"687 500 LINE SMOOTH",
"687 621 OFFCURVE",
"546 710 OFFCURVE",
"371 710 CURVE SMOOTH",
"144 710 OFFCURVE",
"30 610 OFFCURVE",
"30 500 CURVE SMOOTH",
"30 398 OFFCURVE",
"119 356 OFFCURVE",
"166 341 CURVE SMOOTH",
"396 270 OFFCURVE",
"547 267 OFFCURVE",
"547 193 CURVE SMOOTH",
"547 132 OFFCURVE",
"478 120 OFFCURVE",
"371 120 CURVE SMOOTH",
"270 120 OFFCURVE",
"197 138 OFFCURVE",
"197 233 CURVE SMOOTH",
"197 245 LINE",
"57 245 LINE",
"57 213 LINE SMOOTH",
"57 54 OFFCURVE",
"198 -10 OFFCURVE",
"371 -10 CURVE SMOOTH"
);
}
);
width = 717;
},
{
layerId = m002;
paths = (
{
closed = 1;
nodes = (
"549 -10 OFFCURVE",
"687 57 OFFCURVE",
"687 169 CURVE SMOOTH",
"687 296 OFFCURVE",
"583 341 OFFCURVE",
"446 379 CURVE SMOOTH",
"281 425 OFFCURVE",
"170 422 OFFCURVE",
"170 500 CURVE SMOOTH",
"170 557 OFFCURVE",
"236 590 OFFCURVE",
"367 590 CURVE SMOOTH",
"487 590 OFFCURVE",
"547 546 OFFCURVE",
"547 477 CURVE SMOOTH",
"547 464 LINE",
"687 464 LINE",
"687 500 LINE SMOOTH",
"687 621 OFFCURVE",
"546 710 OFFCURVE",
"371 710 CURVE SMOOTH",
"144 710 OFFCURVE",
"30 610 OFFCURVE",
"30 500 CURVE SMOOTH",
"30 398 OFFCURVE",
"119 356 OFFCURVE",
"166 341 CURVE SMOOTH",
"396 270 OFFCURVE",
"547 267 OFFCURVE",
"547 193 CURVE SMOOTH",
"547 132 OFFCURVE",
"478 120 OFFCURVE",
"371 120 CURVE SMOOTH",
"270 120 OFFCURVE",
"197 138 OFFCURVE",
"197 233 CURVE SMOOTH",
"197 245 LINE",
"57 245 LINE",
"57 213 LINE SMOOTH",
"57 54 OFFCURVE",
"198 -10 OFFCURVE",
"371 -10 CURVE SMOOTH"
);
}
);
width = 717;
}
);
},
{
glyphname = T.big;
lastChange = "2023-02-05 07:58:30 +0000";
layers = (
{
layerId = "96BCCF85-5232-4835-A4EF-A1D5F093B6B0";
paths = (
{
closed = 1;
nodes = (
"420 0 LINE",
"420 570 LINE",
"660 570 LINE",
"660 700 LINE",
"30 700 LINE",
"30 570 LINE",
"270 570 LINE",
"270 0 LINE"
);
}
);
width = 690;
},
{
layerId = m002;
paths = (
{
closed = 1;
nodes = (
"420 0 LINE",
"420 570 LINE",
"660 570 LINE",
"660 700 LINE",
"30 700 LINE",
"30 570 LINE",
"270 570 LINE",
"270 0 LINE"
);
}
);
width = 690;
}
);
},
{
glyphname = U.big;
lastChange = "2023-02-05 07:58:30 +0000";
layers = (
{
layerId = "96BCCF85-5232-4835-A4EF-A1D5F093B6B0";
paths = (
{
closed = 1;
nodes = (
"581 228 OFFCURVE",
"490 140 OFFCURVE",
"380 140 CURVE",
"269 140 OFFCURVE",
"180 228 OFFCURVE",
"180 340 CURVE",
"180 700 LINE",
"30 700 LINE",
"30 340 LINE",
"30 147 OFFCURVE",
"187 -10 OFFCURVE",
"380 -10 CURVE",
"573 -10 OFFCURVE",
"730 147 OFFCURVE",
"730 340 CURVE",
"730 700 LINE",
"581 700 LINE",
"581 340 LINE"
);
}
);
width = 760;
},
{
layerId = m002;
paths = (
{
closed = 1;
nodes = (
"581 228 OFFCURVE",
"490 140 OFFCURVE",
"380 140 CURVE",
"269 140 OFFCURVE",
"180 228 OFFCURVE",
"180 340 CURVE",
"180 700 LINE",
"30 700 LINE",
"30 340 LINE",
"30 147 OFFCURVE",
"187 -10 OFFCURVE",
"380 -10 CURVE",
"573 -10 OFFCURVE",
"730 147 OFFCURVE",
"730 340 CURVE",
"730 700 LINE",
"581 700 LINE",
"581 340 LINE"
);
}
);
width = 760;
}
);
leftKerningGroup = U;
rightKerningGroup = U;
},
{
glyphname = W.big;
lastChange = "2023-02-05 07:58:30 +0000";
layers = (
{
layerId = "96BCCF85-5232-4835-A4EF-A1D5F093B6B0";
paths = (
{
closed = 1;
nodes = (
"320 0 LINE",
"338 220 LINE",
"353 220 LINE",
"370 0 LINE",
"598 0 LINE",
"660 685 LINE",
"660 700 LINE",
"501 700 LINE",
"476 175 LINE",
"463 175 LINE",
"407 698 LINE",
"282 698 LINE",
"228 175 LINE",
"212 175 LINE",
"189 700 LINE",
"30 700 LINE",
"30 685 LINE",
"93 0 LINE"
);
}
);
width = 690;
},
{
layerId = m002;
paths = (
{
closed = 1;
nodes = (
"320 0 LINE",
"338 220 LINE",
"353 220 LINE",
"370 0 LINE",
"598 0 LINE",
"660 685 LINE",
"660 700 LINE",
"501 700 LINE",
"476 175 LINE",
"463 175 LINE",
"407 698 LINE",
"282 698 LINE",
"228 175 LINE",
"212 175 LINE",
"189 700 LINE",
"30 700 LINE",
"30 685 LINE",
"93 0 LINE"
);
}
);
width = 690;
}
);
leftKerningGroup = W;
rightKerningGroup = W;
},
{
glyphname = Y.big;
lastChange = "2023-02-05 07:58:30 +0000";
layers = (
{
layerId = "96BCCF85-5232-4835-A4EF-A1D5F093B6B0";
paths = (
{
closed = 1;
nodes = (
"730 700 LINE",
"730 685 LINE",
"455 311 LINE",
"455 0 LINE",
"305 0 LINE",
"305 311 LINE",
"30 685 LINE",
"30 700 LINE",
"200 700 LINE",
"373 440 LINE",
"387 440 LINE",
"561 700 LINE"
);
}
);
width = 760;
},
{
layerId = m002;
paths = (
{
closed = 1;
nodes = (
"730 700 LINE",
"730 685 LINE",
"455 311 LINE",
"455 0 LINE",
"305 0 LINE",
"305 311 LINE",
"30 685 LINE",
"30 700 LINE",
"200 700 LINE",
"373 440 LINE",
"387 440 LINE",
"561 700 LINE"
);
}
);
width = 760;
}
);
leftKerningGroup = Y;
rightKerningGroup = Y;
},
{
glyphname = Z.big;
lastChange = "2023-02-05 07:58:30 +0000";
layers = (
{
layerId = "96BCCF85-5232-4835-A4EF-A1D5F093B6B0";
paths = (
{
closed = 1;
nodes = (
"660 0 LINE",
"660 129 LINE",
"220 129 LINE",
"220 144 LINE",
"660 570 LINE",
"660 700 LINE",
"30 700 LINE",
"30 570 LINE",
"470 570 LINE",
"470 555 LINE",
"30 134 LINE",
"30 0 LINE"
);
}
);
width = 690;
},
{
layerId = m002;
paths = (
{
closed = 1;
nodes = (
"660 0 LINE",
"660 129 LINE",
"220 129 LINE",
"220 144 LINE",
"660 570 LINE",
"660 700 LINE",
"30 700 LINE",
"30 570 LINE",
"470 570 LINE",
"470 555 LINE",
"30 134 LINE",
"30 0 LINE"
);
}
);
width = 690;
}
);
},
{
glyphname = C_A;
lastChange = "2023-02-05 07:58:30 +0000";
layers = (
{
guideLines = (
{
position = "{47, 425}";
},
{
position = "{-3, 275}";
}
);
layerId = "96BCCF85-5232-4835-A4EF-A1D5F093B6B0";
paths = (
{
closed = 1;
nodes = (
"428 290 LINE",
"353 290 LINE",
"331 200 LINE",
"215 200 LINE",
"325 550 LINE",
"455 550 LINE",
"565 200 LINE",
"450 200 LINE"
);
},
{
closed = 1;
nodes = (
"412 356 LINE",
"395 435 LINE",
"386 435 LINE",
"369 356 LINE"
);
},
{
closed = 1;
nodes = (
"497 102 OFFCURVE",
"587 168 OFFCURVE",
"622 262 CURVE",
"729 231 LINE",
"680 91 OFFCURVE",
"547 -10 OFFCURVE",
"390 -10 CURVE",
"190 -10 OFFCURVE",
"30 151 OFFCURVE",
"30 350 CURVE",
"30 549 OFFCURVE",
"190 710 OFFCURVE",
"390 710 CURVE",
"547 710 OFFCURVE",
"680 610 OFFCURVE",
"729 470 CURVE",
"622 438 LINE",
"586 532 OFFCURVE",
"497 598 OFFCURVE",
"390 598 CURVE SMOOTH",
"252 598 OFFCURVE",
"140 487 OFFCURVE",
"140 349 CURVE SMOOTH",
"140 211 OFFCURVE",
"252 102 OFFCURVE",
"390 102 CURVE"
);
}
);
width = 759;
},
{
guideLines = (
{
position = "{47, 425}";
},
{
position = "{-3, 275}";
}
);
layerId = m002;
paths = (
{
closed = 1;
nodes = (
"428 290 LINE",
"353 290 LINE",
"331 200 LINE",
"215 200 LINE",
"325 550 LINE",
"455 550 LINE",
"565 200 LINE",
"450 200 LINE"
);
},
{
closed = 1;
nodes = (
"412 356 LINE",
"395 435 LINE",
"386 435 LINE",
"369 356 LINE"
);
},
{
closed = 1;
nodes = (
"497 102 OFFCURVE",
"587 168 OFFCURVE",
"622 262 CURVE",
"729 231 LINE",
"680 91 OFFCURVE",
"547 -10 OFFCURVE",
"390 -10 CURVE",
"190 -10 OFFCURVE",
"30 151 OFFCURVE",
"30 350 CURVE",
"30 549 OFFCURVE",
"190 710 OFFCURVE",
"390 710 CURVE",
"547 710 OFFCURVE",
"680 610 OFFCURVE",
"729 470 CURVE",
"622 438 LINE",
"586 532 OFFCURVE",
"497 598 OFFCURVE",
"390 598 CURVE SMOOTH",
"252 598 OFFCURVE",
"140 487 OFFCURVE",
"140 349 CURVE SMOOTH",
"140 211 OFFCURVE",
"252 102 OFFCURVE",
"390 102 CURVE"
);
}
);
width = 759;
}
);
leftKerningGroup = O;
rightKerningGroup = O;
},
{
glyphname = C_Aacute;
lastChange = "2023-02-11 08:18:45 +0000";
layers = (
{
components = (
{
name = acutecomb;
transform = "{1, 0, 0, 1, 169, -20}";
}
);
guideLines = (
{
position = "{47, 425}";
},
{
position = "{-3, 275}";
},
{
angle = 90;
position = "{390, 716}";
},
{
angle = 90;
position = "{380, 712}";
}
);
layerId = "96BCCF85-5232-4835-A4EF-A1D5F093B6B0";
paths = (
{
closed = 1;
nodes = (
"428 290 LINE",
"353 290 LINE",
"331 200 LINE",
"215 200 LINE",
"325 550 LINE",
"455 550 LINE",
"565 200 LINE",
"450 200 LINE"
);
},
{
closed = 1;
nodes = (
"412 356 LINE",
"395 435 LINE",
"386 435 LINE",
"369 356 LINE"
);
},
{
closed = 1;
nodes = (
"497 102 OFFCURVE",
"587 168 OFFCURVE",
"622 262 CURVE",
"729 231 LINE",
"680 91 OFFCURVE",
"547 -10 OFFCURVE",
"390 -10 CURVE",
"190 -10 OFFCURVE",
"30 151 OFFCURVE",
"30 350 CURVE",
"30 549 OFFCURVE",
"190 710 OFFCURVE",
"390 710 CURVE",
"547 710 OFFCURVE",
"680 610 OFFCURVE",
"729 470 CURVE",
"622 438 LINE",
"586 532 OFFCURVE",
"497 598 OFFCURVE",
"390 598 CURVE SMOOTH",
"252 598 OFFCURVE",
"140 487 OFFCURVE",
"140 349 CURVE SMOOTH",
"140 211 OFFCURVE",
"252 102 OFFCURVE",
"390 102 CURVE"
);
}
);
width = 759;
},
{
components = (
{
name = acutecomb;
transform = "{1, 0, 0, 1, 340, 0}";
}
);
guideLines = (
{
position = "{47, 425}";
},
{
position = "{-3, 275}";
},
{
angle = 90;
position = "{390, 716}";
}
);
layerId = m002;
paths = (
{
closed = 1;
nodes = (
"428 290 LINE",
"353 290 LINE",
"331 200 LINE",
"215 200 LINE",
"325 550 LINE",
"455 550 LINE",
"565 200 LINE",
"450 200 LINE"
);
},
{
closed = 1;
nodes = (
"412 356 LINE",
"395 435 LINE",
"386 435 LINE",
"369 356 LINE"
);
},
{
closed = 1;
nodes = (
"497 102 OFFCURVE",
"587 168 OFFCURVE",
"622 262 CURVE",
"729 231 LINE",
"680 91 OFFCURVE",
"547 -10 OFFCURVE",
"390 -10 CURVE",
"190 -10 OFFCURVE",
"30 151 OFFCURVE",
"30 350 CURVE",
"30 549 OFFCURVE",
"190 710 OFFCURVE",
"390 710 CURVE",
"547 710 OFFCURVE",
"680 610 OFFCURVE",
"729 470 CURVE",
"622 438 LINE",
"586 532 OFFCURVE",
"497 598 OFFCURVE",
"390 598 CURVE SMOOTH",
"252 598 OFFCURVE",
"140 487 OFFCURVE",
"140 349 CURVE SMOOTH",
"140 211 OFFCURVE",
"252 102 OFFCURVE",
"390 102 CURVE"
);
}
);
width = 759;
}
);
leftKerningGroup = O;
rightKerningGroup = O;
},
{
glyphname = C_Agrave;
lastChange = "2023-02-11 08:18:50 +0000";
layers = (
{
components = (
{
name = gravecomb;
transform = "{1, 0, 0, 1, 169, -20}";
}
);
guideLines = (
{
position = "{47, 425}";
},
{
position = "{-3, 275}";
},
{
angle = 90;
position = "{390, 716}";
},
{
angle = 90;
position = "{380, 712}";
}
);
layerId = "96BCCF85-5232-4835-A4EF-A1D5F093B6B0";
paths = (
{
closed = 1;
nodes = (
"428 290 LINE",
"353 290 LINE",
"331 200 LINE",
"215 200 LINE",
"325 550 LINE",
"455 550 LINE",
"565 200 LINE",
"450 200 LINE"
);
},
{
closed = 1;
nodes = (
"412 356 LINE",
"395 435 LINE",
"386 435 LINE",
"369 356 LINE"
);
},
{
closed = 1;
nodes = (
"497 102 OFFCURVE",
"587 168 OFFCURVE",
"622 262 CURVE",
"729 231 LINE",
"680 91 OFFCURVE",
"547 -10 OFFCURVE",
"390 -10 CURVE",
"190 -10 OFFCURVE",
"30 151 OFFCURVE",
"30 350 CURVE",
"30 549 OFFCURVE",
"190 710 OFFCURVE",
"390 710 CURVE",
"547 710 OFFCURVE",
"680 610 OFFCURVE",
"729 470 CURVE",
"622 438 LINE",
"586 532 OFFCURVE",
"497 598 OFFCURVE",
"390 598 CURVE SMOOTH",
"252 598 OFFCURVE",
"140 487 OFFCURVE",
"140 349 CURVE SMOOTH",
"140 211 OFFCURVE",
"252 102 OFFCURVE",
"390 102 CURVE"
);
}
);
width = 759;
},
{
components = (
{
name = gravecomb;
transform = "{1, 0, 0, 1, 271, 0}";
}
);
guideLines = (
{
position = "{47, 425}";
},
{
position = "{-3, 275}";
},
{
angle = 90;
position = "{390, 716}";
}
);
layerId = m002;
paths = (
{
closed = 1;
nodes = (
"428 290 LINE",
"353 290 LINE",
"331 200 LINE",
"215 200 LINE",
"325 550 LINE",
"455 550 LINE",
"565 200 LINE",
"450 200 LINE"
);
},
{
closed = 1;
nodes = (
"412 356 LINE",
"395 435 LINE",
"386 435 LINE",
"369 356 LINE"
);
},
{
closed = 1;
nodes = (
"497 102 OFFCURVE",
"587 168 OFFCURVE",
"622 262 CURVE",
"729 231 LINE",
"680 91 OFFCURVE",
"547 -10 OFFCURVE",
"390 -10 CURVE",
"190 -10 OFFCURVE",
"30 151 OFFCURVE",
"30 350 CURVE",
"30 549 OFFCURVE",
"190 710 OFFCURVE",
"390 710 CURVE",
"547 710 OFFCURVE",
"680 610 OFFCURVE",
"729 470 CURVE",
"622 438 LINE",
"586 532 OFFCURVE",
"497 598 OFFCURVE",
"390 598 CURVE SMOOTH",
"252 598 OFFCURVE",
"140 487 OFFCURVE",
"140 349 CURVE SMOOTH",
"140 211 OFFCURVE",
"252 102 OFFCURVE",
"390 102 CURVE"
);
}
);
width = 759;
}
);
leftKerningGroup = O;
rightKerningGroup = O;
},
{
glyphname = C_Ahookabove;
lastChange = "2023-02-11 08:08:54 +0000";
layers = (
{
components = (
{
name = hookabovecomb;
transform = "{1, 0, 0, 1, 264, -30}";
}
);
guideLines = (
{
position = "{47, 425}";
},
{
position = "{-3, 275}";
},
{
angle = 90;
position = "{390, 716}";
},
{
angle = 90;
position = "{380, 712}";
}
);
layerId = "96BCCF85-5232-4835-A4EF-A1D5F093B6B0";
paths = (
{
closed = 1;
nodes = (
"428 290 LINE",
"353 290 LINE",
"331 200 LINE",
"215 200 LINE",
"325 550 LINE",
"455 550 LINE",
"565 200 LINE",
"450 200 LINE"
);
},
{
closed = 1;
nodes = (
"412 356 LINE",
"395 435 LINE",
"386 435 LINE",
"369 356 LINE"
);
},
{
closed = 1;
nodes = (
"497 102 OFFCURVE",
"587 168 OFFCURVE",
"622 262 CURVE",
"729 231 LINE",
"680 91 OFFCURVE",
"547 -10 OFFCURVE",
"390 -10 CURVE",
"190 -10 OFFCURVE",
"30 151 OFFCURVE",
"30 350 CURVE",
"30 549 OFFCURVE",
"190 710 OFFCURVE",
"390 710 CURVE",
"547 710 OFFCURVE",
"680 610 OFFCURVE",
"729 470 CURVE",
"622 438 LINE",
"586 532 OFFCURVE",
"497 598 OFFCURVE",
"390 598 CURVE SMOOTH",
"252 598 OFFCURVE",
"140 487 OFFCURVE",
"140 349 CURVE SMOOTH",
"140 211 OFFCURVE",
"252 102 OFFCURVE",
"390 102 CURVE"
);
}
);
width = 759;
},
{
components = (
{
name = hookabovecomb;
transform = "{1, 0, 0, 1, 289, -30}";
}
);
guideLines = (
{
position = "{47, 425}";
},
{
position = "{-3, 275}";
},
{
angle = 90;
position = "{390, 716}";
}
);
layerId = m002;
paths = (
{
closed = 1;
nodes = (
"428 290 LINE",
"353 290 LINE",
"331 200 LINE",
"215 200 LINE",
"325 550 LINE",
"455 550 LINE",
"565 200 LINE",
"450 200 LINE"
);
},
{
closed = 1;
nodes = (
"412 356 LINE",
"395 435 LINE",
"386 435 LINE",
"369 356 LINE"
);
},
{
closed = 1;
nodes = (
"497 102 OFFCURVE",
"587 168 OFFCURVE",
"622 262 CURVE",
"729 231 LINE",
"680 91 OFFCURVE",
"547 -10 OFFCURVE",
"390 -10 CURVE",
"190 -10 OFFCURVE",
"30 151 OFFCURVE",
"30 350 CURVE",
"30 549 OFFCURVE",
"190 710 OFFCURVE",
"390 710 CURVE",
"547 710 OFFCURVE",
"680 610 OFFCURVE",
"729 470 CURVE",
"622 438 LINE",
"586 532 OFFCURVE",
"497 598 OFFCURVE",
"390 598 CURVE SMOOTH",
"252 598 OFFCURVE",
"140 487 OFFCURVE",
"140 349 CURVE SMOOTH",
"140 211 OFFCURVE",
"252 102 OFFCURVE",
"390 102 CURVE"
);
}
);
width = 759;
}
);
leftKerningGroup = O;
rightKerningGroup = O;
},
{
glyphname = C_Atilde;
lastChange = "2023-02-11 08:18:59 +0000";
layers = (
{
components = (
{
name = tildecomb;
transform = "{1, 0, 0, 1, 160, -40}";
}
);
guideLines = (
{
position = "{47, 425}";
},
{
position = "{-3, 275}";
},
{
angle = 90;
position = "{390, 716}";
},
{
angle = 90;
position = "{380, 712}";
}
);
layerId = "96BCCF85-5232-4835-A4EF-A1D5F093B6B0";
paths = (
{
closed = 1;
nodes = (
"428 290 LINE",
"353 290 LINE",
"331 200 LINE",
"215 200 LINE",
"325 550 LINE",
"455 550 LINE",
"565 200 LINE",
"450 200 LINE"
);
},
{
closed = 1;
nodes = (
"412 356 LINE",
"395 435 LINE",
"386 435 LINE",
"369 356 LINE"
);
},
{
closed = 1;
nodes = (
"497 102 OFFCURVE",
"587 168 OFFCURVE",
"622 262 CURVE",
"729 231 LINE",
"680 91 OFFCURVE",
"547 -10 OFFCURVE",
"390 -10 CURVE",
"190 -10 OFFCURVE",
"30 151 OFFCURVE",
"30 350 CURVE",
"30 549 OFFCURVE",
"190 710 OFFCURVE",
"390 710 CURVE",
"547 710 OFFCURVE",
"680 610 OFFCURVE",
"729 470 CURVE",
"622 438 LINE",
"586 532 OFFCURVE",
"497 598 OFFCURVE",
"390 598 CURVE SMOOTH",
"252 598 OFFCURVE",
"140 487 OFFCURVE",
"140 349 CURVE SMOOTH",
"140 211 OFFCURVE",
"252 102 OFFCURVE",
"390 102 CURVE"
);
}
);
width = 759;
},
{
components = (
{
name = tildecomb;
transform = "{1, 0, 0, 1, 169, -28}";
}
);
guideLines = (
{
position = "{47, 425}";
},
{
position = "{-3, 275}";
},
{
angle = 90;
position = "{390, 716}";
}
);
layerId = m002;
paths = (
{
closed = 1;
nodes = (
"428 290 LINE",
"353 290 LINE",
"331 200 LINE",
"215 200 LINE",
"325 550 LINE",
"455 550 LINE",
"565 200 LINE",
"450 200 LINE"
);
},
{
closed = 1;
nodes = (
"412 356 LINE",
"395 435 LINE",
"386 435 LINE",
"369 356 LINE"
);
},
{
closed = 1;
nodes = (
"497 102 OFFCURVE",
"587 168 OFFCURVE",
"622 262 CURVE",
"729 231 LINE",
"680 91 OFFCURVE",
"547 -10 OFFCURVE",
"390 -10 CURVE",
"190 -10 OFFCURVE",
"30 151 OFFCURVE",
"30 350 CURVE",
"30 549 OFFCURVE",
"190 710 OFFCURVE",
"390 710 CURVE",
"547 710 OFFCURVE",
"680 610 OFFCURVE",
"729 470 CURVE",
"622 438 LINE",
"586 532 OFFCURVE",
"497 598 OFFCURVE",
"390 598 CURVE SMOOTH",
"252 598 OFFCURVE",
"140 487 OFFCURVE",
"140 349 CURVE SMOOTH",
"140 211 OFFCURVE",
"252 102 OFFCURVE",
"390 102 CURVE"
);
}
);
width = 759;
}
);
leftKerningGroup = O;
rightKerningGroup = O;
},
{
glyphname = C_O;
lastChange = "2023-02-05 07:58:30 +0000";
layers = (
{
layerId = "96BCCF85-5232-4835-A4EF-A1D5F093B6B0";
paths = (
{
closed = 1;
nodes = (
"497 102 OFFCURVE",
"587 168 OFFCURVE",
"622 262 CURVE",
"729 231 LINE",
"680 91 OFFCURVE",
"547 -10 OFFCURVE",
"390 -10 CURVE",
"190 -10 OFFCURVE",
"30 151 OFFCURVE",
"30 350 CURVE",
"30 549 OFFCURVE",
"190 710 OFFCURVE",
"390 710 CURVE",
"547 710 OFFCURVE",
"680 610 OFFCURVE",
"729 470 CURVE",
"622 438 LINE",
"586 532 OFFCURVE",
"497 598 OFFCURVE",
"390 598 CURVE SMOOTH",
"252 598 OFFCURVE",
"140 487 OFFCURVE",
"140 349 CURVE SMOOTH",
"140 211 OFFCURVE",
"252 102 OFFCURVE",
"390 102 CURVE"
);
},
{
closed = 1;
nodes = (
"492 535 OFFCURVE",
"575 452 OFFCURVE",
"575 350 CURVE",
"575 247 OFFCURVE",
"492 164 OFFCURVE",
"390 164 CURVE",
"287 164 OFFCURVE",
"204 247 OFFCURVE",
"204 350 CURVE",
"204 452 OFFCURVE",
"287 535 OFFCURVE",
"390 535 CURVE"
);
},
{
closed = 1;
nodes = (
"465 392 OFFCURVE",
"431 425 OFFCURVE",
"390 425 CURVE",
"348 425 OFFCURVE",
"314 392 OFFCURVE",
"314 350 CURVE",
"314 308 OFFCURVE",
"348 275 OFFCURVE",
"390 275 CURVE",
"431 275 OFFCURVE",
"465 308 OFFCURVE",
"465 350 CURVE"
);
}
);
width = 759;
},
{
layerId = m002;
paths = (
{
closed = 1;
nodes = (
"497 102 OFFCURVE",
"587 168 OFFCURVE",
"622 262 CURVE",
"729 231 LINE",
"680 91 OFFCURVE",
"547 -10 OFFCURVE",
"390 -10 CURVE",
"190 -10 OFFCURVE",
"30 151 OFFCURVE",
"30 350 CURVE",
"30 549 OFFCURVE",
"190 710 OFFCURVE",
"390 710 CURVE",
"547 710 OFFCURVE",
"680 610 OFFCURVE",
"729 470 CURVE",
"622 438 LINE",
"586 532 OFFCURVE",
"497 598 OFFCURVE",
"390 598 CURVE SMOOTH",
"252 598 OFFCURVE",
"140 487 OFFCURVE",
"140 349 CURVE SMOOTH",
"140 211 OFFCURVE",
"252 102 OFFCURVE",
"390 102 CURVE"
);
},
{
closed = 1;
nodes = (
"492 535 OFFCURVE",
"575 452 OFFCURVE",
"575 350 CURVE",
"575 247 OFFCURVE",
"492 164 OFFCURVE",
"390 164 CURVE",
"287 164 OFFCURVE",
"204 247 OFFCURVE",
"204 350 CURVE",
"204 452 OFFCURVE",
"287 535 OFFCURVE",
"390 535 CURVE"
);
},
{
closed = 1;
nodes = (
"465 392 OFFCURVE",
"431 425 OFFCURVE",
"390 425 CURVE",
"348 425 OFFCURVE",
"314 392 OFFCURVE",
"314 350 CURVE",
"314 308 OFFCURVE",
"348 275 OFFCURVE",
"390 275 CURVE",
"431 275 OFFCURVE",
"465 308 OFFCURVE",
"465 350 CURVE"
);
}
);
width = 759;
}
);
leftKerningGroup = O;
rightKerningGroup = O;
},
{
glyphname = C_Oacute;
lastChange = "2023-02-11 08:09:03 +0000";
layers = (
{
components = (
{
name = acutecomb;
transform = "{1, 0, 0, 1, 169, -20}";
}
);
guideLines = (
{
angle = 90;
position = "{390, 716}";
},
{
angle = 90;
position = "{380, 712}";
},
{
angle = 90;
position = "{380, 712}";
}
);
layerId = "96BCCF85-5232-4835-A4EF-A1D5F093B6B0";
paths = (
{
closed = 1;
nodes = (
"497 102 OFFCURVE",
"587 168 OFFCURVE",
"622 262 CURVE",
"729 231 LINE",
"680 91 OFFCURVE",
"547 -10 OFFCURVE",
"390 -10 CURVE",
"190 -10 OFFCURVE",
"30 151 OFFCURVE",
"30 350 CURVE",
"30 549 OFFCURVE",
"190 710 OFFCURVE",
"390 710 CURVE",
"547 710 OFFCURVE",
"680 610 OFFCURVE",
"729 470 CURVE",
"622 438 LINE",
"586 532 OFFCURVE",
"497 598 OFFCURVE",
"390 598 CURVE SMOOTH",
"252 598 OFFCURVE",
"140 487 OFFCURVE",
"140 349 CURVE SMOOTH",
"140 211 OFFCURVE",
"252 102 OFFCURVE",
"390 102 CURVE"
);
},
{
closed = 1;
nodes = (
"492 535 OFFCURVE",
"575 452 OFFCURVE",
"575 350 CURVE",
"575 247 OFFCURVE",
"492 164 OFFCURVE",
"390 164 CURVE",
"287 164 OFFCURVE",
"204 247 OFFCURVE",
"204 350 CURVE",
"204 452 OFFCURVE",
"287 535 OFFCURVE",
"390 535 CURVE"
);
},
{
closed = 1;
nodes = (
"465 392 OFFCURVE",
"431 425 OFFCURVE",
"390 425 CURVE",
"348 425 OFFCURVE",
"314 392 OFFCURVE",
"314 350 CURVE",
"314 308 OFFCURVE",
"348 275 OFFCURVE",
"390 275 CURVE",
"431 275 OFFCURVE",
"465 308 OFFCURVE",
"465 350 CURVE"
);
}
);
width = 759;
},
{
components = (
{
name = acutecomb;
transform = "{1, 0, 0, 1, 340, 0}";
}
);
guideLines = (
{
angle = 90;
position = "{390, 716}";
}
);
layerId = m002;
paths = (
{
closed = 1;
nodes = (
"497 102 OFFCURVE",
"587 168 OFFCURVE",
"622 262 CURVE",
"729 231 LINE",
"680 91 OFFCURVE",
"547 -10 OFFCURVE",
"390 -10 CURVE",
"190 -10 OFFCURVE",
"30 151 OFFCURVE",
"30 350 CURVE",
"30 549 OFFCURVE",
"190 710 OFFCURVE",
"390 710 CURVE",
"547 710 OFFCURVE",
"680 610 OFFCURVE",
"729 470 CURVE",
"622 438 LINE",
"586 532 OFFCURVE",
"497 598 OFFCURVE",
"390 598 CURVE SMOOTH",
"252 598 OFFCURVE",
"140 487 OFFCURVE",
"140 349 CURVE SMOOTH",
"140 211 OFFCURVE",
"252 102 OFFCURVE",
"390 102 CURVE"
);
},
{
closed = 1;
nodes = (
"492 535 OFFCURVE",
"575 452 OFFCURVE",
"575 350 CURVE",
"575 247 OFFCURVE",
"492 164 OFFCURVE",
"390 164 CURVE",
"287 164 OFFCURVE",
"204 247 OFFCURVE",
"204 350 CURVE",
"204 452 OFFCURVE",
"287 535 OFFCURVE",
"390 535 CURVE"
);
},
{
closed = 1;
nodes = (
"465 392 OFFCURVE",
"431 425 OFFCURVE",
"390 425 CURVE",
"348 425 OFFCURVE",
"314 392 OFFCURVE",
"314 350 CURVE",
"314 308 OFFCURVE",
"348 275 OFFCURVE",
"390 275 CURVE",
"431 275 OFFCURVE",
"465 308 OFFCURVE",
"465 350 CURVE"
);
}
);
width = 759;
}
);
leftKerningGroup = O;
rightKerningGroup = O;
},
{
glyphname = C_Ograve;
lastChange = "2023-02-11 08:09:07 +0000";
layers = (
{
components = (
{
name = gravecomb;
transform = "{1, 0, 0, 1, 169, -20}";
}
);
guideLines = (
{
angle = 90;
position = "{390, 716}";
},
{
angle = 90;
position = "{380, 712}";
}
);
layerId = "96BCCF85-5232-4835-A4EF-A1D5F093B6B0";
paths = (
{
closed = 1;
nodes = (
"497 102 OFFCURVE",
"587 168 OFFCURVE",
"622 262 CURVE",
"729 231 LINE",
"680 91 OFFCURVE",
"547 -10 OFFCURVE",
"390 -10 CURVE",
"190 -10 OFFCURVE",
"30 151 OFFCURVE",
"30 350 CURVE",
"30 549 OFFCURVE",
"190 710 OFFCURVE",
"390 710 CURVE",
"547 710 OFFCURVE",
"680 610 OFFCURVE",
"729 470 CURVE",
"622 438 LINE",
"586 532 OFFCURVE",
"497 598 OFFCURVE",
"390 598 CURVE SMOOTH",
"252 598 OFFCURVE",
"140 487 OFFCURVE",
"140 349 CURVE SMOOTH",
"140 211 OFFCURVE",
"252 102 OFFCURVE",
"390 102 CURVE"
);
},
{
closed = 1;
nodes = (
"492 535 OFFCURVE",
"575 452 OFFCURVE",
"575 350 CURVE",
"575 247 OFFCURVE",
"492 164 OFFCURVE",
"390 164 CURVE",
"287 164 OFFCURVE",
"204 247 OFFCURVE",
"204 350 CURVE",
"204 452 OFFCURVE",
"287 535 OFFCURVE",
"390 535 CURVE"
);
},
{
closed = 1;
nodes = (
"465 392 OFFCURVE",
"431 425 OFFCURVE",
"390 425 CURVE",
"348 425 OFFCURVE",
"314 392 OFFCURVE",
"314 350 CURVE",
"314 308 OFFCURVE",
"348 275 OFFCURVE",
"390 275 CURVE",
"431 275 OFFCURVE",
"465 308 OFFCURVE",
"465 350 CURVE"
);
}
);
width = 759;
},
{
components = (
{
name = gravecomb;
transform = "{1, 0, 0, 1, 282, 0}";
}
);
guideLines = (
{
angle = 90;
position = "{390, 716}";
}
);
layerId = m002;
paths = (
{
closed = 1;
nodes = (
"497 102 OFFCURVE",
"587 168 OFFCURVE",
"622 262 CURVE",
"729 231 LINE",
"680 91 OFFCURVE",
"547 -10 OFFCURVE",
"390 -10 CURVE",
"190 -10 OFFCURVE",
"30 151 OFFCURVE",
"30 350 CURVE",
"30 549 OFFCURVE",
"190 710 OFFCURVE",
"390 710 CURVE",
"547 710 OFFCURVE",
"680 610 OFFCURVE",
"729 470 CURVE",
"622 438 LINE",
"586 532 OFFCURVE",
"497 598 OFFCURVE",
"390 598 CURVE SMOOTH",
"252 598 OFFCURVE",
"140 487 OFFCURVE",
"140 349 CURVE SMOOTH",
"140 211 OFFCURVE",
"252 102 OFFCURVE",
"390 102 CURVE"
);
},
{
closed = 1;
nodes = (
"492 535 OFFCURVE",
"575 452 OFFCURVE",
"575 350 CURVE",
"575 247 OFFCURVE",
"492 164 OFFCURVE",
"390 164 CURVE",
"287 164 OFFCURVE",
"204 247 OFFCURVE",
"204 350 CURVE",
"204 452 OFFCURVE",
"287 535 OFFCURVE",
"390 535 CURVE"
);
},
{
closed = 1;
nodes = (
"465 392 OFFCURVE",
"431 425 OFFCURVE",
"390 425 CURVE",
"348 425 OFFCURVE",
"314 392 OFFCURVE",
"314 350 CURVE",
"314 308 OFFCURVE",
"348 275 OFFCURVE",
"390 275 CURVE",
"431 275 OFFCURVE",
"465 308 OFFCURVE",
"465 350 CURVE"
);
}
);
width = 759;
}
);
leftKerningGroup = O;
rightKerningGroup = O;
},
{
glyphname = C_Ohookabove;
lastChange = "2023-02-11 07:18:40 +0000";
layers = (
{
components = (
{
name = hookabovecomb;
transform = "{1, 0, 0, 1, 264, -30}";
}
);
guideLines = (
{
angle = 90;
position = "{390, 716}";
},
{
angle = 90;
position = "{380, 712}";
}
);
layerId = "96BCCF85-5232-4835-A4EF-A1D5F093B6B0";
paths = (
{
closed = 1;
nodes = (
"497 102 OFFCURVE",
"587 168 OFFCURVE",
"622 262 CURVE",
"729 231 LINE",
"680 91 OFFCURVE",
"547 -10 OFFCURVE",
"390 -10 CURVE",
"190 -10 OFFCURVE",
"30 151 OFFCURVE",
"30 350 CURVE",
"30 549 OFFCURVE",
"190 710 OFFCURVE",
"390 710 CURVE",
"547 710 OFFCURVE",
"680 610 OFFCURVE",
"729 470 CURVE",
"622 438 LINE",
"586 532 OFFCURVE",
"497 598 OFFCURVE",
"390 598 CURVE SMOOTH",
"252 598 OFFCURVE",
"140 487 OFFCURVE",
"140 349 CURVE SMOOTH",
"140 211 OFFCURVE",
"252 102 OFFCURVE",
"390 102 CURVE"
);
},
{
closed = 1;
nodes = (
"492 535 OFFCURVE",
"575 452 OFFCURVE",
"575 350 CURVE",
"575 247 OFFCURVE",
"492 164 OFFCURVE",
"390 164 CURVE",
"287 164 OFFCURVE",
"204 247 OFFCURVE",
"204 350 CURVE",
"204 452 OFFCURVE",
"287 535 OFFCURVE",
"390 535 CURVE"
);
},
{
closed = 1;
nodes = (
"465 392 OFFCURVE",
"431 425 OFFCURVE",
"390 425 CURVE",
"348 425 OFFCURVE",
"314 392 OFFCURVE",
"314 350 CURVE",
"314 308 OFFCURVE",
"348 275 OFFCURVE",
"390 275 CURVE",
"431 275 OFFCURVE",
"465 308 OFFCURVE",
"465 350 CURVE"
);
}
);
width = 759;
},
{
components = (
{
name = hookabovecomb;
transform = "{1, 0, 0, 1, 289, -30}";
}
);
guideLines = (
{
angle = 90;
position = "{390, 716}";
}
);
layerId = m002;
paths = (
{
closed = 1;
nodes = (
"497 102 OFFCURVE",
"587 168 OFFCURVE",
"622 262 CURVE",
"729 231 LINE",
"680 91 OFFCURVE",
"547 -10 OFFCURVE",
"390 -10 CURVE",
"190 -10 OFFCURVE",
"30 151 OFFCURVE",
"30 350 CURVE",
"30 549 OFFCURVE",
"190 710 OFFCURVE",
"390 710 CURVE",
"547 710 OFFCURVE",
"680 610 OFFCURVE",
"729 470 CURVE",
"622 438 LINE",
"586 532 OFFCURVE",
"497 598 OFFCURVE",
"390 598 CURVE SMOOTH",
"252 598 OFFCURVE",
"140 487 OFFCURVE",
"140 349 CURVE SMOOTH",
"140 211 OFFCURVE",
"252 102 OFFCURVE",
"390 102 CURVE"
);
},
{
closed = 1;
nodes = (
"492 535 OFFCURVE",
"575 452 OFFCURVE",
"575 350 CURVE",
"575 247 OFFCURVE",
"492 164 OFFCURVE",
"390 164 CURVE",
"287 164 OFFCURVE",
"204 247 OFFCURVE",
"204 350 CURVE",
"204 452 OFFCURVE",
"287 535 OFFCURVE",
"390 535 CURVE"
);
},
{
closed = 1;
nodes = (
"465 392 OFFCURVE",
"431 425 OFFCURVE",
"390 425 CURVE",
"348 425 OFFCURVE",
"314 392 OFFCURVE",
"314 350 CURVE",
"314 308 OFFCURVE",
"348 275 OFFCURVE",
"390 275 CURVE",
"431 275 OFFCURVE",
"465 308 OFFCURVE",
"465 350 CURVE"
);
}
);
width = 759;
}
);
leftKerningGroup = O;
rightKerningGroup = O;
},
{
glyphname = C_Otilde;
lastChange = "2023-02-11 08:09:12 +0000";
layers = (
{
components = (
{
name = tildecomb;
transform = "{1, 0, 0, 1, 160, -40}";
}
);
guideLines = (
{
angle = 90;
position = "{390, 716}";
},
{
angle = 90;
position = "{380, 712}";
}
);
layerId = "96BCCF85-5232-4835-A4EF-A1D5F093B6B0";
paths = (
{
closed = 1;
nodes = (
"497 102 OFFCURVE",
"587 168 OFFCURVE",
"622 262 CURVE",
"729 231 LINE",
"680 91 OFFCURVE",
"547 -10 OFFCURVE",
"390 -10 CURVE",
"190 -10 OFFCURVE",
"30 151 OFFCURVE",
"30 350 CURVE",
"30 549 OFFCURVE",
"190 710 OFFCURVE",
"390 710 CURVE",
"547 710 OFFCURVE",
"680 610 OFFCURVE",
"729 470 CURVE",
"622 438 LINE",
"586 532 OFFCURVE",
"497 598 OFFCURVE",
"390 598 CURVE SMOOTH",
"252 598 OFFCURVE",
"140 487 OFFCURVE",
"140 349 CURVE SMOOTH",
"140 211 OFFCURVE",
"252 102 OFFCURVE",
"390 102 CURVE"
);
},
{
closed = 1;
nodes = (
"492 535 OFFCURVE",
"575 452 OFFCURVE",
"575 350 CURVE",
"575 247 OFFCURVE",
"492 164 OFFCURVE",
"390 164 CURVE",
"287 164 OFFCURVE",
"204 247 OFFCURVE",
"204 350 CURVE",
"204 452 OFFCURVE",
"287 535 OFFCURVE",
"390 535 CURVE"
);
},
{
closed = 1;
nodes = (
"465 392 OFFCURVE",
"431 425 OFFCURVE",
"390 425 CURVE",
"348 425 OFFCURVE",
"314 392 OFFCURVE",
"314 350 CURVE",
"314 308 OFFCURVE",
"348 275 OFFCURVE",
"390 275 CURVE",
"431 275 OFFCURVE",
"465 308 OFFCURVE",
"465 350 CURVE"
);
}
);
width = 759;
},
{
components = (
{
name = tildecomb;
transform = "{1, 0, 0, 1, 170, -28}";
}
);
guideLines = (
{
angle = 90;
position = "{390, 716}";
}
);
layerId = m002;
paths = (
{
closed = 1;
nodes = (
"497 102 OFFCURVE",
"587 168 OFFCURVE",
"622 262 CURVE",
"729 231 LINE",
"680 91 OFFCURVE",
"547 -10 OFFCURVE",
"390 -10 CURVE",
"190 -10 OFFCURVE",
"30 151 OFFCURVE",
"30 350 CURVE",
"30 549 OFFCURVE",
"190 710 OFFCURVE",
"390 710 CURVE",
"547 710 OFFCURVE",
"680 610 OFFCURVE",
"729 470 CURVE",
"622 438 LINE",
"586 532 OFFCURVE",
"497 598 OFFCURVE",
"390 598 CURVE SMOOTH",
"252 598 OFFCURVE",
"140 487 OFFCURVE",
"140 349 CURVE SMOOTH",
"140 211 OFFCURVE",
"252 102 OFFCURVE",
"390 102 CURVE"
);
},
{
closed = 1;
nodes = (
"492 535 OFFCURVE",
"575 452 OFFCURVE",
"575 350 CURVE",
"575 247 OFFCURVE",
"492 164 OFFCURVE",
"390 164 CURVE",
"287 164 OFFCURVE",
"204 247 OFFCURVE",
"204 350 CURVE",
"204 452 OFFCURVE",
"287 535 OFFCURVE",
"390 535 CURVE"
);
},
{
closed = 1;
nodes = (
"465 392 OFFCURVE",
"431 425 OFFCURVE",
"390 425 CURVE",
"348 425 OFFCURVE",
"314 392 OFFCURVE",
"314 350 CURVE",
"314 308 OFFCURVE",
"348 275 OFFCURVE",
"390 275 CURVE",
"431 275 OFFCURVE",
"465 308 OFFCURVE",
"465 350 CURVE"
);
}
);
width = 759;
}
);
leftKerningGroup = O;
rightKerningGroup = O;
},
{
glyphname = C_a;
lastChange = "2023-02-05 07:58:30 +0000";
layers = (
{
components = (
{
name = a;
transform = "{0.6, 0, 0, 0.6, 268, 144}";
}
);
guideLines = (
{
position = "{47, 425}";
},
{
position = "{-3, 275}";
}
);
layerId = "96BCCF85-5232-4835-A4EF-A1D5F093B6B0";
paths = (
{
closed = 1;
nodes = (
"497 102 OFFCURVE",
"587 168 OFFCURVE",
"622 262 CURVE",
"729 231 LINE",
"680 91 OFFCURVE",
"547 -10 OFFCURVE",
"390 -10 CURVE",
"190 -10 OFFCURVE",
"30 151 OFFCURVE",
"30 350 CURVE",
"30 549 OFFCURVE",
"190 710 OFFCURVE",
"390 710 CURVE",
"547 710 OFFCURVE",
"680 610 OFFCURVE",
"729 470 CURVE",
"622 438 LINE",
"586 532 OFFCURVE",
"497 598 OFFCURVE",
"390 598 CURVE SMOOTH",
"252 598 OFFCURVE",
"140 487 OFFCURVE",
"140 349 CURVE SMOOTH",
"140 211 OFFCURVE",
"252 102 OFFCURVE",
"390 102 CURVE"
);
}
);
width = 759;
},
{
components = (
{
name = a;
transform = "{0.6, 0, 0, 0.6, 268, 144}";
}
);
guideLines = (
{
position = "{47, 425}";
},
{
position = "{-3, 275}";
}
);
layerId = m002;
paths = (
{
closed = 1;
nodes = (
"497 102 OFFCURVE",
"587 168 OFFCURVE",
"622 262 CURVE",
"729 231 LINE",
"680 91 OFFCURVE",
"547 -10 OFFCURVE",
"390 -10 CURVE",
"190 -10 OFFCURVE",
"30 151 OFFCURVE",
"30 350 CURVE",
"30 549 OFFCURVE",
"190 710 OFFCURVE",
"390 710 CURVE",
"547 710 OFFCURVE",
"680 610 OFFCURVE",
"729 470 CURVE",
"622 438 LINE",
"586 532 OFFCURVE",
"497 598 OFFCURVE",
"390 598 CURVE SMOOTH",
"252 598 OFFCURVE",
"140 487 OFFCURVE",
"140 349 CURVE SMOOTH",
"140 211 OFFCURVE",
"252 102 OFFCURVE",
"390 102 CURVE"
);
}
);
width = 759;
}
);
leftKerningGroup = O;
rightKerningGroup = O;
},
{
glyphname = C_aacute;
lastChange = "2023-02-11 08:19:08 +0000";
layers = (
{
components = (
{
name = a;
transform = "{0.6, 0, 0, 0.6, 268, 144}";
},
{
name = acutecomb;
transform = "{1, 0, 0, 1, 169, -20}";
}
);
guideLines = (
{
position = "{47, 425}";
},
{
position = "{-3, 275}";
},
{
angle = 90;
position = "{390, 716}";
},
{
angle = 90;
position = "{380, 712}";
}
);
layerId = "96BCCF85-5232-4835-A4EF-A1D5F093B6B0";
paths = (
{
closed = 1;
nodes = (
"497 102 OFFCURVE",
"587 168 OFFCURVE",
"622 262 CURVE",
"729 231 LINE",
"680 91 OFFCURVE",
"547 -10 OFFCURVE",
"390 -10 CURVE",
"190 -10 OFFCURVE",
"30 151 OFFCURVE",
"30 350 CURVE",
"30 549 OFFCURVE",
"190 710 OFFCURVE",
"390 710 CURVE",
"547 710 OFFCURVE",
"680 610 OFFCURVE",
"729 470 CURVE",
"622 438 LINE",
"586 532 OFFCURVE",
"497 598 OFFCURVE",
"390 598 CURVE SMOOTH",
"252 598 OFFCURVE",
"140 487 OFFCURVE",
"140 349 CURVE SMOOTH",
"140 211 OFFCURVE",
"252 102 OFFCURVE",
"390 102 CURVE"
);
}
);
width = 759;
},
{
components = (
{
name = a;
transform = "{0.6, 0, 0, 0.6, 268, 144}";
},
{
name = acutecomb;
transform = "{1, 0, 0, 1, 340, 0}";
}
);
guideLines = (
{
position = "{47, 425}";
},
{
position = "{-3, 275}";
},
{
angle = 90;
position = "{390, 716}";
}
);
layerId = m002;
paths = (
{
closed = 1;
nodes = (
"497 102 OFFCURVE",
"587 168 OFFCURVE",
"622 262 CURVE",
"729 231 LINE",
"680 91 OFFCURVE",
"547 -10 OFFCURVE",
"390 -10 CURVE",
"190 -10 OFFCURVE",
"30 151 OFFCURVE",
"30 350 CURVE",
"30 549 OFFCURVE",
"190 710 OFFCURVE",
"390 710 CURVE",
"547 710 OFFCURVE",
"680 610 OFFCURVE",
"729 470 CURVE",
"622 438 LINE",
"586 532 OFFCURVE",
"497 598 OFFCURVE",
"390 598 CURVE SMOOTH",
"252 598 OFFCURVE",
"140 487 OFFCURVE",
"140 349 CURVE SMOOTH",
"140 211 OFFCURVE",
"252 102 OFFCURVE",
"390 102 CURVE"
);
}
);
width = 759;
}
);
leftKerningGroup = O;
rightKerningGroup = O;
},
{
glyphname = C_agrave;
lastChange = "2023-02-11 08:19:12 +0000";
layers = (
{
components = (
{
name = a;
transform = "{0.6, 0, 0, 0.6, 268, 144}";
},
{
name = gravecomb;
transform = "{1, 0, 0, 1, 169, -20}";
}
);
guideLines = (
{
position = "{47, 425}";
},
{
position = "{-3, 275}";
},
{
angle = 90;
position = "{390, 716}";
},
{
angle = 90;
position = "{380, 712}";
}
);
layerId = "96BCCF85-5232-4835-A4EF-A1D5F093B6B0";
paths = (
{
closed = 1;
nodes = (
"497 102 OFFCURVE",
"587 168 OFFCURVE",
"622 262 CURVE",
"729 231 LINE",
"680 91 OFFCURVE",
"547 -10 OFFCURVE",
"390 -10 CURVE",
"190 -10 OFFCURVE",
"30 151 OFFCURVE",
"30 350 CURVE",
"30 549 OFFCURVE",
"190 710 OFFCURVE",
"390 710 CURVE",
"547 710 OFFCURVE",
"680 610 OFFCURVE",
"729 470 CURVE",
"622 438 LINE",
"586 532 OFFCURVE",
"497 598 OFFCURVE",
"390 598 CURVE SMOOTH",
"252 598 OFFCURVE",
"140 487 OFFCURVE",
"140 349 CURVE SMOOTH",
"140 211 OFFCURVE",
"252 102 OFFCURVE",
"390 102 CURVE"
);
}
);
width = 759;
},
{
components = (
{
name = a;
transform = "{0.6, 0, 0, 0.6, 268, 144}";
},
{
name = gravecomb;
transform = "{1, 0, 0, 1, 281, 0}";
}
);
guideLines = (
{
position = "{47, 425}";
},
{
position = "{-3, 275}";
},
{
angle = 90;
position = "{390, 716}";
}
);
layerId = m002;
paths = (
{
closed = 1;
nodes = (
"497 102 OFFCURVE",
"587 168 OFFCURVE",
"622 262 CURVE",
"729 231 LINE",
"680 91 OFFCURVE",
"547 -10 OFFCURVE",
"390 -10 CURVE",
"190 -10 OFFCURVE",
"30 151 OFFCURVE",
"30 350 CURVE",
"30 549 OFFCURVE",
"190 710 OFFCURVE",
"390 710 CURVE",
"547 710 OFFCURVE",
"680 610 OFFCURVE",
"729 470 CURVE",
"622 438 LINE",
"586 532 OFFCURVE",
"497 598 OFFCURVE",
"390 598 CURVE SMOOTH",
"252 598 OFFCURVE",
"140 487 OFFCURVE",
"140 349 CURVE SMOOTH",
"140 211 OFFCURVE",
"252 102 OFFCURVE",
"390 102 CURVE"
);
}
);
width = 759;
}
);
leftKerningGroup = O;
rightKerningGroup = O;
},
{
glyphname = C_ahookabove;
lastChange = "2023-02-11 07:19:09 +0000";
layers = (
{
components = (
{
name = a;
transform = "{0.6, 0, 0, 0.6, 268, 144}";
},
{
name = hookabovecomb;
transform = "{1, 0, 0, 1, 264, -30}";
}
);
guideLines = (
{
position = "{47, 425}";
},
{
position = "{-3, 275}";
},
{
angle = 90;
position = "{390, 716}";
},
{
angle = 90;
position = "{380, 712}";
}
);
layerId = "96BCCF85-5232-4835-A4EF-A1D5F093B6B0";
paths = (
{
closed = 1;
nodes = (
"497 102 OFFCURVE",
"587 168 OFFCURVE",
"622 262 CURVE",
"729 231 LINE",
"680 91 OFFCURVE",
"547 -10 OFFCURVE",
"390 -10 CURVE",
"190 -10 OFFCURVE",
"30 151 OFFCURVE",
"30 350 CURVE",
"30 549 OFFCURVE",
"190 710 OFFCURVE",
"390 710 CURVE",
"547 710 OFFCURVE",
"680 610 OFFCURVE",
"729 470 CURVE",
"622 438 LINE",
"586 532 OFFCURVE",
"497 598 OFFCURVE",
"390 598 CURVE SMOOTH",
"252 598 OFFCURVE",
"140 487 OFFCURVE",
"140 349 CURVE SMOOTH",
"140 211 OFFCURVE",
"252 102 OFFCURVE",
"390 102 CURVE"
);
}
);
width = 759;
},
{
components = (
{
name = a;
transform = "{0.6, 0, 0, 0.6, 268, 144}";
},
{
name = hookabovecomb;
transform = "{1, 0, 0, 1, 289, -30}";
}
);
guideLines = (
{
position = "{47, 425}";
},
{
position = "{-3, 275}";
},
{
angle = 90;
position = "{390, 716}";
}
);
layerId = m002;
paths = (
{
closed = 1;
nodes = (
"497 102 OFFCURVE",
"587 168 OFFCURVE",
"622 262 CURVE",
"729 231 LINE",
"680 91 OFFCURVE",
"547 -10 OFFCURVE",
"390 -10 CURVE",
"190 -10 OFFCURVE",
"30 151 OFFCURVE",
"30 350 CURVE",
"30 549 OFFCURVE",
"190 710 OFFCURVE",
"390 710 CURVE",
"547 710 OFFCURVE",
"680 610 OFFCURVE",
"729 470 CURVE",
"622 438 LINE",
"586 532 OFFCURVE",
"497 598 OFFCURVE",
"390 598 CURVE SMOOTH",
"252 598 OFFCURVE",
"140 487 OFFCURVE",
"140 349 CURVE SMOOTH",
"140 211 OFFCURVE",
"252 102 OFFCURVE",
"390 102 CURVE"
);
}
);
width = 759;
}
);
leftKerningGroup = O;
rightKerningGroup = O;
},
{
glyphname = C_atilde;
lastChange = "2023-02-11 08:19:20 +0000";
layers = (
{
components = (
{
name = a;
transform = "{0.6, 0, 0, 0.6, 268, 144}";
},
{
name = tildecomb;
transform = "{1, 0, 0, 1, 160, -40}";
}
);
guideLines = (
{
position = "{47, 425}";
},
{
position = "{-3, 275}";
},
{
angle = 90;
position = "{390, 716}";
},
{
angle = 90;
position = "{380, 712}";
}
);
layerId = "96BCCF85-5232-4835-A4EF-A1D5F093B6B0";
paths = (
{
closed = 1;
nodes = (
"497 102 OFFCURVE",
"587 168 OFFCURVE",
"622 262 CURVE",
"729 231 LINE",
"680 91 OFFCURVE",
"547 -10 OFFCURVE",
"390 -10 CURVE",
"190 -10 OFFCURVE",
"30 151 OFFCURVE",
"30 350 CURVE",
"30 549 OFFCURVE",
"190 710 OFFCURVE",
"390 710 CURVE",
"547 710 OFFCURVE",
"680 610 OFFCURVE",
"729 470 CURVE",
"622 438 LINE",
"586 532 OFFCURVE",
"497 598 OFFCURVE",
"390 598 CURVE SMOOTH",
"252 598 OFFCURVE",
"140 487 OFFCURVE",
"140 349 CURVE SMOOTH",
"140 211 OFFCURVE",
"252 102 OFFCURVE",
"390 102 CURVE"
);
}
);
width = 759;
},
{
components = (
{
name = a;
transform = "{0.6, 0, 0, 0.6, 268, 144}";
},
{
name = tildecomb;
transform = "{1, 0, 0, 1, 170, -28}";
}
);
guideLines = (
{
position = "{47, 425}";
},
{
position = "{-3, 275}";
},
{
angle = 90;
position = "{390, 716}";
}
);
layerId = m002;
paths = (
{
closed = 1;
nodes = (
"497 102 OFFCURVE",
"587 168 OFFCURVE",
"622 262 CURVE",
"729 231 LINE",
"680 91 OFFCURVE",
"547 -10 OFFCURVE",
"390 -10 CURVE",
"190 -10 OFFCURVE",
"30 151 OFFCURVE",
"30 350 CURVE",
"30 549 OFFCURVE",
"190 710 OFFCURVE",
"390 710 CURVE",
"547 710 OFFCURVE",
"680 610 OFFCURVE",
"729 470 CURVE",
"622 438 LINE",
"586 532 OFFCURVE",
"497 598 OFFCURVE",
"390 598 CURVE SMOOTH",
"252 598 OFFCURVE",
"140 487 OFFCURVE",
"140 349 CURVE SMOOTH",
"140 211 OFFCURVE",
"252 102 OFFCURVE",
"390 102 CURVE"
);
}
);
width = 759;
}
);
leftKerningGroup = O;
rightKerningGroup = O;
},
{
glyphname = H_E;
lastChange = "2023-02-05 07:58:30 +0000";
layers = (
{
layerId = "96BCCF85-5232-4835-A4EF-A1D5F093B6B0";
paths = (
{
closed = 1;
nodes = (
"660 570 LINE",
"380 570 LINE",
"380 425 LINE",
"616 425 LINE",
"616 275 LINE",
"380 275 LINE",
"380 129 LINE",
"660 129 LINE",
"660 0 LINE",
"232 0 LINE",
"232 250 LINE",
"179 250 LINE",
"179 0 LINE",
"30 0 LINE",
"30 700 LINE",
"179 700 LINE",
"179 450 LINE",
"232 450 LINE",
"232 700 LINE",
"660 700 LINE"
);
}
);
width = 690;
},
{
layerId = m002;
paths = (
{
closed = 1;
nodes = (
"660 570 LINE",
"380 570 LINE",
"380 425 LINE",
"616 425 LINE",
"616 275 LINE",
"380 275 LINE",
"380 129 LINE",
"660 129 LINE",
"660 0 LINE",
"232 0 LINE",
"232 250 LINE",
"179 250 LINE",
"179 0 LINE",
"30 0 LINE",
"30 700 LINE",
"179 700 LINE",
"179 450 LINE",
"232 450 LINE",
"232 700 LINE",
"660 700 LINE"
);
}
);
width = 690;
}
);
leftKerningGroup = H;
leftMetricsKey = B;
rightKerningGroup = H;
},
{
glyphname = L_A;
lastChange = "2023-02-05 07:58:30 +0000";
layers = (
{
layerId = "96BCCF85-5232-4835-A4EF-A1D5F093B6B0";
paths = (
{
closed = 1;
nodes = (
"179 129 LINE",
"548 129 LINE",
"548 0 LINE",
"30 0 LINE",
"30 700 LINE",
"179 700 LINE"
);
},
{
closed = 1;
nodes = (
"399 267 LINE",
"369 267 LINE",
"361 170 LINE",
"220 170 LINE",
"300 700 LINE",
"468 700 LINE",
"548 170 LINE",
"408 170 LINE"
);
},
{
closed = 1;
nodes = (
"394 381 LINE",
"390 549 LINE",
"379 549 LINE",
"374 381 LINE"
);
}
);
width = 578;
},
{
layerId = m002;
paths = (
{
closed = 1;
nodes = (
"179 129 LINE",
"548 129 LINE",
"548 0 LINE",
"30 0 LINE",
"30 700 LINE",
"179 700 LINE"
);
},
{
closed = 1;
nodes = (
"399 267 LINE",
"369 267 LINE",
"361 170 LINE",
"220 170 LINE",
"300 700 LINE",
"468 700 LINE",
"548 170 LINE",
"408 170 LINE"
);
},
{
closed = 1;
nodes = (
"394 381 LINE",
"390 549 LINE",
"379 549 LINE",
"374 381 LINE"
);
}
);
width = 578;
}
);
leftKerningGroup = H;
leftMetricsKey = B;
rightKerningGroup = H;
},
{
glyphname = L_E;
lastChange = "2023-02-05 07:58:30 +0000";
layers = (
{
layerId = "96BCCF85-5232-4835-A4EF-A1D5F093B6B0";
paths = (
{
closed = 1;
nodes = (
"332 580 LINE",
"332 495 LINE",
"514 495 LINE",
"514 375 LINE",
"332 375 LINE",
"332 290 LINE",
"548 290 LINE",
"548 170 LINE",
"220 170 LINE",
"220 700 LINE",
"548 700 LINE",
"548 580 LINE"
);
},
{
closed = 1;
nodes = (
"179 129 LINE",
"548 129 LINE",
"548 0 LINE",
"30 0 LINE",
"30 700 LINE",
"179 700 LINE"
);
}
);
width = 578;
},
{
layerId = m002;
paths = (
{
closed = 1;
nodes = (
"332 580 LINE",
"332 495 LINE",
"514 495 LINE",
"514 375 LINE",
"332 375 LINE",
"332 290 LINE",
"548 290 LINE",
"548 170 LINE",
"220 170 LINE",
"220 700 LINE",
"548 700 LINE",
"548 580 LINE"
);
},
{
closed = 1;
nodes = (
"179 129 LINE",
"548 129 LINE",
"548 0 LINE",
"30 0 LINE",
"30 700 LINE",
"179 700 LINE"
);
}
);
width = 578;
}
);
leftKerningGroup = H;
leftMetricsKey = B;
rightKerningGroup = H;
},
{
glyphname = L_I;
lastChange = "2023-02-05 07:58:30 +0000";
layers = (
{
guideLines = (
{
position = "{591, 170}";
},
{
position = "{591, 170}";
},
{
angle = 90;
position = "{548, 316}";
},
{
position = "{548, 316}";
}
);
layerId = "96BCCF85-5232-4835-A4EF-A1D5F093B6B0";
paths = (
{
closed = 1;
nodes = (
"179 129 LINE",
"548 129 LINE",
"548 0 LINE",
"30 0 LINE",
"30 700 LINE",
"179 700 LINE"
);
},
{
closed = 1;
nodes = (
"548 700 LINE",
"548 570 LINE",
"439 570 LINE",
"439 300 LINE",
"548 300 LINE",
"548 170 LINE",
"220 170 LINE",
"220 300 LINE",
"328 300 LINE",
"328 570 LINE",
"220 570 LINE",
"220 700 LINE"
);
}
);
width = 578;
},
{
guideLines = (
{
position = "{591, 170}";
},
{
position = "{591, 170}";
},
{
angle = 90;
position = "{548, 316}";
},
{
position = "{548, 316}";
}
);
layerId = m002;
paths = (
{
closed = 1;
nodes = (
"179 129 LINE",
"548 129 LINE",
"548 0 LINE",
"30 0 LINE",
"30 700 LINE",
"179 700 LINE"
);
},
{
closed = 1;
nodes = (
"548 700 LINE",
"548 570 LINE",
"439 570 LINE",
"439 300 LINE",
"548 300 LINE",
"548 170 LINE",
"220 170 LINE",
"220 300 LINE",
"328 300 LINE",
"328 570 LINE",
"220 570 LINE",
"220 700 LINE"
);
}
);
width = 578;
}
);
leftKerningGroup = H;
leftMetricsKey = B;
rightKerningGroup = H;
},
{
glyphname = L_O;
lastChange = "2023-02-05 07:58:30 +0000";
layers = (
{
guideLines = (
{
position = "{591, 170}";
},
{
position = "{480, 160}";
}
);
layerId = "96BCCF85-5232-4835-A4EF-A1D5F093B6B0";
paths = (
{
closed = 1;
nodes = (
"179 129 LINE",
"548 129 LINE",
"548 0 LINE",
"30 0 LINE",
"30 700 LINE",
"179 700 LINE"
);
},
{
closed = 1;
nodes = (
"474 710 OFFCURVE",
"548 636 OFFCURVE",
"548 546 CURVE",
"548 324 LINE",
"548 233 OFFCURVE",
"474 160 OFFCURVE",
"384 160 CURVE",
"293 160 OFFCURVE",
"220 233 OFFCURVE",
"220 324 CURVE",
"220 546 LINE",
"220 636 OFFCURVE",
"293 710 OFFCURVE",
"384 710 CURVE"
);
},
{
closed = 1;
nodes = (
"408 554 LINE",
"408 567 OFFCURVE",
"398 578 OFFCURVE",
"384 578 CURVE",
"370 578 OFFCURVE",
"360 567 OFFCURVE",
"360 554 CURVE",
"360 313 LINE",
"360 300 OFFCURVE",
"370 290 OFFCURVE",
"384 290 CURVE",
"398 290 OFFCURVE",
"408 300 OFFCURVE",
"408 313 CURVE"
);
}
);
width = 578;
},
{
guideLines = (
{
position = "{591, 170}";
},
{
position = "{480, 160}";
}
);
layerId = m002;
paths = (
{
closed = 1;
nodes = (
"179 129 LINE",
"548 129 LINE",
"548 0 LINE",
"30 0 LINE",
"30 700 LINE",
"179 700 LINE"
);
},
{
closed = 1;
nodes = (
"474 710 OFFCURVE",
"548 636 OFFCURVE",
"548 546 CURVE",
"548 324 LINE",
"548 233 OFFCURVE",
"474 160 OFFCURVE",
"384 160 CURVE",
"293 160 OFFCURVE",
"220 233 OFFCURVE",
"220 324 CURVE",
"220 546 LINE",
"220 636 OFFCURVE",
"293 710 OFFCURVE",
"384 710 CURVE"
);
},
{
closed = 1;
nodes = (
"408 554 LINE",
"408 567 OFFCURVE",
"398 578 OFFCURVE",
"384 578 CURVE",
"370 578 OFFCURVE",
"360 567 OFFCURVE",
"360 554 CURVE",
"360 313 LINE",
"360 300 OFFCURVE",
"370 290 OFFCURVE",
"384 290 CURVE",
"398 290 OFFCURVE",
"408 300 OFFCURVE",
"408 313 CURVE"
);
}
);
width = 578;
}
);
leftKerningGroup = H;
leftMetricsKey = B;
rightKerningGroup = H;
},
{
glyphname = L_U;
lastChange = "2023-02-05 07:58:30 +0000";
layers = (
{
guideLines = (
{
position = "{548, 316}";
},
{
position = "{591, 170}";
},
{
angle = 90;
position = "{548, 316}";
},
{
position = "{548, 316}";
},
{
position = "{480, 160}";
}
);
layerId = "96BCCF85-5232-4835-A4EF-A1D5F093B6B0";
paths = (
{
closed = 1;
nodes = (
"179 129 LINE",
"548 129 LINE",
"548 0 LINE",
"30 0 LINE",
"30 700 LINE",
"179 700 LINE"
);
},
{
closed = 1;
nodes = (
"548 700 LINE",
"548 324 LINE",
"548 233 OFFCURVE",
"475 160 OFFCURVE",
"384 160 CURVE",
"293 160 OFFCURVE",
"219 233 OFFCURVE",
"219 324 CURVE",
"219 700 LINE",
"359 700 LINE",
"359 315 LINE",
"359 301 OFFCURVE",
"371 290 OFFCURVE",
"384 290 CURVE",
"398 290 OFFCURVE",
"409 301 OFFCURVE",
"409 315 CURVE",
"409 700 LINE"
);
}
);
width = 578;
},
{
guideLines = (
{
position = "{548, 316}";
},
{
position = "{591, 170}";
},
{
angle = 90;
position = "{548, 316}";
},
{
position = "{548, 316}";
},
{
position = "{480, 160}";
}
);
layerId = m002;
paths = (
{
closed = 1;
nodes = (
"179 129 LINE",
"548 129 LINE",
"548 0 LINE",
"30 0 LINE",
"30 700 LINE",
"179 700 LINE"
);
},
{
closed = 1;
nodes = (
"548 700 LINE",
"548 324 LINE",
"548 233 OFFCURVE",
"475 160 OFFCURVE",
"384 160 CURVE",
"293 160 OFFCURVE",
"219 233 OFFCURVE",
"219 324 CURVE",
"219 700 LINE",
"359 700 LINE",
"359 315 LINE",
"359 301 OFFCURVE",
"371 290 OFFCURVE",
"384 290 CURVE",
"398 290 OFFCURVE",
"409 301 OFFCURVE",
"409 315 CURVE",
"409 700 LINE"
);
}
);
width = 578;
}
);
leftKerningGroup = H;
leftMetricsKey = B;
rightKerningGroup = H;
rightMetricsKey = H;
},
{
glyphname = L_Y;
lastChange = "2023-02-05 07:58:30 +0000";
layers = (
{
guideLines = (
{
position = "{212, 167}";
}
);
layerId = "96BCCF85-5232-4835-A4EF-A1D5F093B6B0";
paths = (
{
closed = 1;
nodes = (
"404 502 LINE",
"423 700 LINE",
"574 700 LINE",
"574 689 LINE",
"471 316 LINE",
"471 167 LINE",
"322 167 LINE",
"322 316 LINE",
"220 689 LINE",
"220 700 LINE",
"369 700 LINE",
"391 502 LINE"
);
},
{
closed = 1;
nodes = (
"179 129 LINE",
"574 129 LINE",
"574 0 LINE",
"30 0 LINE",
"30 700 LINE",
"179 700 LINE"
);
}
);
width = 604;
},
{
guideLines = (
{
position = "{212, 167}";
}
);
layerId = m002;
paths = (
{
closed = 1;
nodes = (
"404 502 LINE",
"423 700 LINE",
"574 700 LINE",
"574 689 LINE",
"471 316 LINE",
"471 167 LINE",
"322 167 LINE",
"322 316 LINE",
"220 689 LINE",
"220 700 LINE",
"369 700 LINE",
"391 502 LINE"
);
},
{
closed = 1;
nodes = (
"179 129 LINE",
"574 129 LINE",
"574 0 LINE",
"30 0 LINE",
"30 700 LINE",
"179 700 LINE"
);
}
);
width = 604;
}
);
leftKerningGroup = H;
leftMetricsKey = B;
rightKerningGroup = H;
},
{
glyphname = L_a;
lastChange = "2023-02-05 07:58:30 +0000";
layers = (
{
layerId = "96BCCF85-5232-4835-A4EF-A1D5F093B6B0";
paths = (
{
closed = 1;
nodes = (
"179 129 LINE",
"486 129 LINE",
"486 0 LINE",
"30 0 LINE",
"30 700 LINE",
"179 700 LINE"
);
},
{
closed = 1;
nodes = (
"427 710 OFFCURVE",
"486 651 OFFCURVE",
"486 577 CURVE",
"486 172 LINE",
"406 172 LINE",
"406 199 LINE",
"399 199 LINE",
"388 176 OFFCURVE",
"361 164 OFFCURVE",
"339 164 CURVE",
"266 164 OFFCURVE",
"221 223 OFFCURVE",
"221 297 CURVE",
"221 371 LINE",
"221 444 OFFCURVE",
"280 504 OFFCURVE",
"353 504 CURVE",
"374 504 LINE",
"374 601 LINE",
"374 611 OFFCURVE",
"364 620 OFFCURVE",
"353 620 CURVE",
"342 620 OFFCURVE",
"333 611 OFFCURVE",
"333 601 CURVE",
"333 524 LINE",
"221 524 LINE",
"221 577 LINE",
"221 651 OFFCURVE",
"280 710 OFFCURVE",
"353 710 CURVE"
);
},
{
closed = 1;
nodes = (
"364 270 OFFCURVE",
"374 278 OFFCURVE",
"374 289 CURVE",
"374 390 LINE",
"353 390 LINE",
"342 390 OFFCURVE",
"333 382 OFFCURVE",
"333 370 CURVE",
"333 289 LINE",
"333 278 OFFCURVE",
"342 270 OFFCURVE",
"353 270 CURVE"
);
}
);
width = 516;
},
{
layerId = m002;
paths = (
{
closed = 1;
nodes = (
"179 129 LINE",
"486 129 LINE",
"486 0 LINE",
"30 0 LINE",
"30 700 LINE",
"179 700 LINE"
);
},
{
closed = 1;
nodes = (
"427 710 OFFCURVE",
"486 651 OFFCURVE",
"486 577 CURVE",
"486 172 LINE",
"406 172 LINE",
"406 199 LINE",
"399 199 LINE",
"388 176 OFFCURVE",
"361 164 OFFCURVE",
"339 164 CURVE",
"266 164 OFFCURVE",
"221 223 OFFCURVE",
"221 297 CURVE",
"221 371 LINE",
"221 444 OFFCURVE",
"280 504 OFFCURVE",
"353 504 CURVE",
"374 504 LINE",
"374 601 LINE",
"374 611 OFFCURVE",
"364 620 OFFCURVE",
"353 620 CURVE",
"342 620 OFFCURVE",
"333 611 OFFCURVE",
"333 601 CURVE",
"333 524 LINE",
"221 524 LINE",
"221 577 LINE",
"221 651 OFFCURVE",
"280 710 OFFCURVE",
"353 710 CURVE"
);
},
{
closed = 1;
nodes = (
"364 270 OFFCURVE",
"374 278 OFFCURVE",
"374 289 CURVE",
"374 390 LINE",
"353 390 LINE",
"342 390 OFFCURVE",
"333 382 OFFCURVE",
"333 370 CURVE",
"333 289 LINE",
"333 278 OFFCURVE",
"342 270 OFFCURVE",
"353 270 CURVE"
);
}
);
width = 516;
}
);
leftKerningGroup = H;
leftMetricsKey = B;
rightKerningGroup = H;
rightMetricsKey = H;
},
{
glyphname = L_e;
lastChange = "2023-02-05 07:58:30 +0000";
layers = (
{
guideLines = (
{
position = "{480, 160}";
}
);
layerId = "96BCCF85-5232-4835-A4EF-A1D5F093B6B0";
paths = (
{
closed = 1;
nodes = (
"179 129 LINE",
"495 129 LINE",
"495 0 LINE",
"30 0 LINE",
"30 700 LINE",
"179 700 LINE"
);
},
{
closed = 1;
nodes = (
"433 710 OFFCURVE",
"495 649 OFFCURVE",
"495 573 CURVE",
"495 404 LINE",
"337 404 LINE",
"337 282 LINE",
"337 271 OFFCURVE",
"345 261 OFFCURVE",
"357 261 CURVE",
"368 261 OFFCURVE",
"377 271 OFFCURVE",
"377 282 CURVE",
"377 364 LINE",
"495 364 LINE",
"495 289 LINE",
"491 217 OFFCURVE",
"430 160 OFFCURVE",
"357 160 CURVE",
"281 160 OFFCURVE",
"220 221 OFFCURVE",
"220 298 CURVE",
"220 573 LINE",
"220 649 OFFCURVE",
"281 710 OFFCURVE",
"357 710 CURVE"
);
},
{
closed = 1;
nodes = (
"377 588 LINE",
"377 599 OFFCURVE",
"368 608 OFFCURVE",
"357 608 CURVE",
"345 608 OFFCURVE",
"337 599 OFFCURVE",
"337 588 CURVE",
"337 507 LINE",
"377 507 LINE"
);
}
);
width = 525;
},
{
guideLines = (
{
position = "{480, 160}";
}
);
layerId = m002;
paths = (
{
closed = 1;
nodes = (
"179 129 LINE",
"495 129 LINE",
"495 0 LINE",
"30 0 LINE",
"30 700 LINE",
"179 700 LINE"
);
},
{
closed = 1;
nodes = (
"433 710 OFFCURVE",
"495 649 OFFCURVE",
"495 573 CURVE",
"495 404 LINE",
"337 404 LINE",
"337 282 LINE",
"337 271 OFFCURVE",
"345 261 OFFCURVE",
"357 261 CURVE",
"368 261 OFFCURVE",
"377 271 OFFCURVE",
"377 282 CURVE",
"377 364 LINE",
"495 364 LINE",
"495 289 LINE",
"491 217 OFFCURVE",
"430 160 OFFCURVE",
"357 160 CURVE",
"281 160 OFFCURVE",
"220 221 OFFCURVE",
"220 298 CURVE",
"220 573 LINE",
"220 649 OFFCURVE",
"281 710 OFFCURVE",
"357 710 CURVE"
);
},
{
closed = 1;
nodes = (
"377 588 LINE",
"377 599 OFFCURVE",
"368 608 OFFCURVE",
"357 608 CURVE",
"345 608 OFFCURVE",
"337 599 OFFCURVE",
"337 588 CURVE",
"337 507 LINE",
"377 507 LINE"
);
}
);
width = 525;
}
);
leftKerningGroup = H;
leftMetricsKey = B;
rightKerningGroup = H;
},
{
glyphname = N_H;
lastChange = "2023-02-05 07:58:30 +0000";
layers = (
{
layerId = "96BCCF85-5232-4835-A4EF-A1D5F093B6B0";
paths = (
{
closed = 1;
nodes = (
"610 0 LINE",
"462 0 LINE",
"462 251 LINE",
"409 251 LINE",
"409 0 LINE",
"260 0 LINE",
"175 275 LINE",
"160 275 LINE",
"160 0 LINE",
"30 0 LINE",
"30 700 LINE",
"150 700 LINE",
"235 425 LINE",
"250 425 LINE",
"250 700 LINE",
"409 700 LINE",
"409 450 LINE",
"462 450 LINE",
"462 700 LINE",
"610 700 LINE"
);
}
);
width = 640;
},
{
layerId = m002;
paths = (
{
closed = 1;
nodes = (
"610 0 LINE",
"462 0 LINE",
"462 251 LINE",
"409 251 LINE",
"409 0 LINE",
"260 0 LINE",
"175 275 LINE",
"160 275 LINE",
"160 0 LINE",
"30 0 LINE",
"30 700 LINE",
"150 700 LINE",
"235 425 LINE",
"250 425 LINE",
"250 700 LINE",
"409 700 LINE",
"409 450 LINE",
"462 450 LINE",
"462 700 LINE",
"610 700 LINE"
);
}
);
width = 640;
}
);
leftKerningGroup = H;
leftMetricsKey = B;
rightKerningGroup = H;
rightMetricsKey = H;
},
{
glyphname = O_A;
lastChange = "2023-02-05 07:58:30 +0000";
layers = (
{
components = (
{
name = O.big;
}
);
layerId = "96BCCF85-5232-4835-A4EF-A1D5F093B6B0";
paths = (
{
closed = 1;
nodes = (
"428 269 LINE",
"353 269 LINE",
"331 204 LINE",
"215 204 LINE",
"336 554 LINE",
"444 554 LINE",
"565 204 LINE",
"450 204 LINE"
);
},
{
closed = 1;
nodes = (
"412 340 LINE",
"395 419 LINE",
"386 419 LINE",
"369 340 LINE"
);
}
);
width = 780;
},
{
components = (
{
name = O.big;
}
);
layerId = m002;
paths = (
{
closed = 1;
nodes = (
"428 269 LINE",
"353 269 LINE",
"331 204 LINE",
"215 204 LINE",
"336 554 LINE",
"444 554 LINE",
"565 204 LINE",
"450 204 LINE"
);
},
{
closed = 1;
nodes = (
"412 340 LINE",
"395 419 LINE",
"386 419 LINE",
"369 340 LINE"
);
}
);
width = 780;
}
);
leftKerningGroup = O;
rightKerningGroup = O;
},
{
glyphname = O_Aacute;
lastChange = "2023-02-11 08:09:18 +0000";
layers = (
{
components = (
{
name = acutecomb;
transform = "{1, 0, 0, 1, 179, -20}";
},
{
name = O.big;
}
);
guideLines = (
{
angle = 90;
position = "{390, 716}";
}
);
layerId = "96BCCF85-5232-4835-A4EF-A1D5F093B6B0";
paths = (
{
closed = 1;
nodes = (
"428 269 LINE",
"353 269 LINE",
"331 204 LINE",
"215 204 LINE",
"336 554 LINE",
"444 554 LINE",
"565 204 LINE",
"450 204 LINE"
);
},
{
closed = 1;
nodes = (
"412 340 LINE",
"395 419 LINE",
"386 419 LINE",
"369 340 LINE"
);
}
);
width = 780;
},
{
components = (
{
name = acutecomb;
transform = "{1, 0, 0, 1, 340, 0}";
},
{
name = O.big;
}
);
guideLines = (
{
angle = 90;
position = "{390, 716}";
}
);
layerId = m002;
paths = (
{
closed = 1;
nodes = (
"428 269 LINE",
"353 269 LINE",
"331 204 LINE",
"215 204 LINE",
"336 554 LINE",
"444 554 LINE",
"565 204 LINE",
"450 204 LINE"
);
},
{
closed = 1;
nodes = (
"412 340 LINE",
"395 419 LINE",
"386 419 LINE",
"369 340 LINE"
);
}
);
width = 780;
}
);
leftKerningGroup = O;
rightKerningGroup = O;
},
{
glyphname = O_Agrave;
lastChange = "2023-02-11 08:09:25 +0000";
layers = (
{
components = (
{
name = gravecomb;
transform = "{1, 0, 0, 1, 179, -20}";
},
{
name = O.big;
}
);
guideLines = (
{
angle = 90;
position = "{390, 716}";
}
);
layerId = "96BCCF85-5232-4835-A4EF-A1D5F093B6B0";
paths = (
{
closed = 1;
nodes = (
"428 269 LINE",
"353 269 LINE",
"331 204 LINE",
"215 204 LINE",
"336 554 LINE",
"444 554 LINE",
"565 204 LINE",
"450 204 LINE"
);
},
{
closed = 1;
nodes = (
"412 340 LINE",
"395 419 LINE",
"386 419 LINE",
"369 340 LINE"
);
}
);
width = 780;
},
{
components = (
{
name = gravecomb;
transform = "{1, 0, 0, 1, 281, 0}";
},
{
name = O.big;
}
);
guideLines = (
{
angle = 90;
position = "{390, 716}";
}
);
layerId = m002;
paths = (
{
closed = 1;
nodes = (
"428 269 LINE",
"353 269 LINE",
"331 204 LINE",
"215 204 LINE",
"336 554 LINE",
"444 554 LINE",
"565 204 LINE",
"450 204 LINE"
);
},
{
closed = 1;
nodes = (
"412 340 LINE",
"395 419 LINE",
"386 419 LINE",
"369 340 LINE"
);
}
);
width = 780;
}
);
leftKerningGroup = O;
rightKerningGroup = O;
},
{
glyphname = O_Ahookabove;
lastChange = "2023-02-11 07:20:40 +0000";
layers = (
{
components = (
{
name = hookabovecomb;
transform = "{1, 0, 0, 1, 273, -30}";
},
{
name = O.big;
}
);
guideLines = (
{
angle = 90;
position = "{390, 716}";
}
);
layerId = "96BCCF85-5232-4835-A4EF-A1D5F093B6B0";
paths = (
{
closed = 1;
nodes = (
"428 269 LINE",
"353 269 LINE",
"331 204 LINE",
"215 204 LINE",
"336 554 LINE",
"444 554 LINE",
"565 204 LINE",
"450 204 LINE"
);
},
{
closed = 1;
nodes = (
"411 340 LINE",
"394 419 LINE",
"385 419 LINE",
"368 340 LINE"
);
}
);
width = 780;
},
{
components = (
{
name = hookabovecomb;
transform = "{1, 0, 0, 1, 289, -30}";
},
{
name = O.big;
}
);
guideLines = (
{
angle = 90;
position = "{390, 716}";
}
);
layerId = m002;
paths = (
{
closed = 1;
nodes = (
"428 269 LINE",
"353 269 LINE",
"331 204 LINE",
"215 204 LINE",
"336 554 LINE",
"444 554 LINE",
"565 204 LINE",
"450 204 LINE"
);
},
{
closed = 1;
nodes = (
"412 340 LINE",
"395 419 LINE",
"386 419 LINE",
"369 340 LINE"
);
}
);
width = 780;
}
);
leftKerningGroup = O;
rightKerningGroup = O;
},
{
glyphname = O_Atilde;
lastChange = "2023-02-11 08:09:31 +0000";
layers = (
{
components = (
{
name = tildecomb;
transform = "{1, 0, 0, 1, 170, -40}";
},
{
name = O.big;
}
);
guideLines = (
{
angle = 90;
position = "{390, 716}";
}
);
layerId = "96BCCF85-5232-4835-A4EF-A1D5F093B6B0";
paths = (
{
closed = 1;
nodes = (
"428 269 LINE",
"353 269 LINE",
"331 204 LINE",
"215 204 LINE",
"336 554 LINE",
"444 554 LINE",
"565 204 LINE",
"450 204 LINE"
);
},
{
closed = 1;
nodes = (
"411 340 LINE",
"394 419 LINE",
"385 419 LINE",
"368 340 LINE"
);
}
);
width = 780;
},
{
components = (
{
name = tildecomb;
transform = "{1, 0, 0, 1, 170, -28}";
},
{
name = O.big;
}
);
guideLines = (
{
angle = 90;
position = "{390, 716}";
}
);
layerId = m002;
paths = (
{
closed = 1;
nodes = (
"428 269 LINE",
"353 269 LINE",
"331 204 LINE",
"215 204 LINE",
"336 554 LINE",
"444 554 LINE",
"565 204 LINE",
"450 204 LINE"
);
},
{
closed = 1;
nodes = (
"412 340 LINE",
"395 419 LINE",
"386 419 LINE",
"369 340 LINE"
);
}
);
width = 780;
}
);
leftKerningGroup = O;
rightKerningGroup = O;
},
{
glyphname = O_I;
lastChange = "2023-02-05 07:58:30 +0000";
layers = (
{
components = (
{
name = O.big;
}
);
layerId = "96BCCF85-5232-4835-A4EF-A1D5F093B6B0";
paths = (
{
closed = 1;
nodes = (
"440 425 LINE",
"440 275 LINE",
"489 275 LINE",
"489 175 LINE",
"291 175 LINE",
"291 275 LINE",
"340 275 LINE",
"340 425 LINE",
"291 425 LINE",
"291 525 LINE",
"489 525 LINE",
"489 425 LINE"
);
}
);
width = 780;
},
{
components = (
{
name = O.big;
}
);
layerId = m002;
paths = (
{
closed = 1;
nodes = (
"440 425 LINE",
"440 275 LINE",
"489 275 LINE",
"489 175 LINE",
"291 175 LINE",
"291 275 LINE",
"340 275 LINE",
"340 425 LINE",
"291 425 LINE",
"291 525 LINE",
"489 525 LINE",
"489 425 LINE"
);
}
);
width = 780;
}
);
leftKerningGroup = O;
rightKerningGroup = O;
},
{
glyphname = O_O;
lastChange = "2023-02-05 07:58:30 +0000";
layers = (
{
guideLines = (
{
angle = 90;
position = "{477, 797}";
}
);
layerId = "96BCCF85-5232-4835-A4EF-A1D5F093B6B0";
paths = (
{
closed = 1;
nodes = (
"853 122 OFFCURVE",
"948 220 OFFCURVE",
"948 350 CURVE",
"948 482 OFFCURVE",
"853 580 OFFCURVE",
"720 580 CURVE",
"704 580 OFFCURVE",
"689 579 OFFCURVE",
"675 576 CURVE",
"723 515 OFFCURVE",
"750 437 OFFCURVE",
"750 350 CURVE",
"750 264 OFFCURVE",
"723 186 OFFCURVE",
"676 126 CURVE",
"690 123 OFFCURVE",
"705 122 OFFCURVE",
"720 122 CURVE"
);
},
{
closed = 1;
nodes = (
"160 220 OFFCURVE",
"255 122 OFFCURVE",
"390 122 CURVE",
"405 122 OFFCURVE",
"419 123 OFFCURVE",
"433 126 CURVE",
"387 186 OFFCURVE",
"360 264 OFFCURVE",
"360 350 CURVE",
"360 437 OFFCURVE",
"387 515 OFFCURVE",
"435 576 CURVE",
"420 579 OFFCURVE",
"405 580 OFFCURVE",
"390 580 CURVE",
"255 580 OFFCURVE",
"160 482 OFFCURVE",
"160 350 CURVE"
);
},
{
closed = 1;
nodes = (
"594 228 OFFCURVE",
"618 285 OFFCURVE",
"618 350 CURVE",
"618 416 OFFCURVE",
"594 473 OFFCURVE",
"554 514 CURVE",
"514 473 OFFCURVE",
"490 416 OFFCURVE",
"490 350 CURVE",
"490 285 OFFCURVE",
"514 228 OFFCURVE",
"554 188 CURVE"
);
},
{
closed = 1;
nodes = (
"929 710 OFFCURVE",
"1080 554 OFFCURVE",
"1080 350 CURVE",
"1080 146 OFFCURVE",
"929 -10 OFFCURVE",
"720 -10 CURVE",
"659 -10 OFFCURVE",
"603 3 OFFCURVE",
"555 27 CURVE",
"506 3 OFFCURVE",
"451 -10 OFFCURVE",
"390 -10 CURVE",
"180 -10 OFFCURVE",
"30 146 OFFCURVE",
"30 350 CURVE",
"30 554 OFFCURVE",
"180 710 OFFCURVE",
"390 710 CURVE",
"451 710 OFFCURVE",
"506 697 OFFCURVE",
"555 673 CURVE",
"603 697 OFFCURVE",
"659 710 OFFCURVE",
"720 710 CURVE"
);
}
);
width = 1110;
},
{
guideLines = (
{
angle = 90;
position = "{477, 797}";
}
);
layerId = m002;
paths = (
{
closed = 1;
nodes = (
"853 122 OFFCURVE",
"948 220 OFFCURVE",
"948 350 CURVE",
"948 482 OFFCURVE",
"853 580 OFFCURVE",
"720 580 CURVE",
"704 580 OFFCURVE",
"689 579 OFFCURVE",
"675 576 CURVE",
"723 515 OFFCURVE",
"750 437 OFFCURVE",
"750 350 CURVE",
"750 264 OFFCURVE",
"723 186 OFFCURVE",
"676 126 CURVE",
"690 123 OFFCURVE",
"705 122 OFFCURVE",
"720 122 CURVE"
);
},
{
closed = 1;
nodes = (
"160 220 OFFCURVE",
"255 122 OFFCURVE",
"390 122 CURVE",
"405 122 OFFCURVE",
"419 123 OFFCURVE",
"433 126 CURVE",
"387 186 OFFCURVE",
"360 264 OFFCURVE",
"360 350 CURVE",
"360 437 OFFCURVE",
"387 515 OFFCURVE",
"435 576 CURVE",
"420 579 OFFCURVE",
"405 580 OFFCURVE",
"390 580 CURVE",
"255 580 OFFCURVE",
"160 482 OFFCURVE",
"160 350 CURVE"
);
},
{
closed = 1;
nodes = (
"594 228 OFFCURVE",
"618 285 OFFCURVE",
"618 350 CURVE",
"618 416 OFFCURVE",
"594 473 OFFCURVE",
"554 514 CURVE",
"514 473 OFFCURVE",
"490 416 OFFCURVE",
"490 350 CURVE",
"490 285 OFFCURVE",
"514 228 OFFCURVE",
"554 188 CURVE"
);
},
{
closed = 1;
nodes = (
"929 710 OFFCURVE",
"1080 554 OFFCURVE",
"1080 350 CURVE",
"1080 146 OFFCURVE",
"929 -10 OFFCURVE",
"720 -10 CURVE",
"659 -10 OFFCURVE",
"603 3 OFFCURVE",
"555 27 CURVE",
"506 3 OFFCURVE",
"451 -10 OFFCURVE",
"390 -10 CURVE",
"180 -10 OFFCURVE",
"30 146 OFFCURVE",
"30 350 CURVE",
"30 554 OFFCURVE",
"180 710 OFFCURVE",
"390 710 CURVE",
"451 710 OFFCURVE",
"506 697 OFFCURVE",
"555 673 CURVE",
"603 697 OFFCURVE",
"659 710 OFFCURVE",
"720 710 CURVE"
);
}
);
width = 1110;
}
);
leftKerningGroup = O;
rightKerningGroup = O;
},
{
glyphname = O_e;
lastChange = "2023-02-05 07:58:30 +0000";
layers = (
{
components = (
{
name = O.big;
}
);
layerId = "96BCCF85-5232-4835-A4EF-A1D5F093B6B0";
paths = (
{
closed = 1;
nodes = (
"577 317 LINE",
"309 317 LINE",
"320 292 OFFCURVE",
"348 264 OFFCURVE",
"391 264 CURVE",
"426 264 OFFCURVE",
"451 285 OFFCURVE",
"455 292 CURVE",
"551 260 LINE",
"551 252 LINE",
"519 185 OFFCURVE",
"458 164 OFFCURVE",
"391 164 CURVE",
"288 164 OFFCURVE",
"204 247 OFFCURVE",
"204 350 CURVE",
"204 455 OFFCURVE",
"289 537 OFFCURVE",
"391 537 CURVE",
"493 537 OFFCURVE",
"577 454 OFFCURVE",
"577 350 CURVE"
);
},
{
closed = 1;
nodes = (
"473 379 LINE",
"463 408 OFFCURVE",
"434 438 OFFCURVE",
"391 438 CURVE",
"347 438 OFFCURVE",
"318 407 OFFCURVE",
"308 379 CURVE"
);
}
);
width = 780;
},
{
components = (
{
name = O.big;
}
);
layerId = m002;
paths = (
{
closed = 1;
nodes = (
"577 317 LINE",
"309 317 LINE",
"320 292 OFFCURVE",
"348 264 OFFCURVE",
"391 264 CURVE",
"426 264 OFFCURVE",
"451 285 OFFCURVE",
"455 292 CURVE",
"551 260 LINE",
"551 252 LINE",
"519 185 OFFCURVE",
"458 164 OFFCURVE",
"391 164 CURVE",
"288 164 OFFCURVE",
"204 247 OFFCURVE",
"204 350 CURVE",
"204 455 OFFCURVE",
"289 537 OFFCURVE",
"391 537 CURVE",
"493 537 OFFCURVE",
"577 454 OFFCURVE",
"577 350 CURVE"
);
},
{
closed = 1;
nodes = (
"473 379 LINE",
"463 408 OFFCURVE",
"434 438 OFFCURVE",
"391 438 CURVE",
"347 438 OFFCURVE",
"318 407 OFFCURVE",
"308 379 CURVE"
);
}
);
width = 780;
}
);
leftKerningGroup = O;
rightKerningGroup = O;
},
{
glyphname = Oacute_C;
lastChange = "2023-02-11 08:09:51 +0000";
layers = (
{
components = (
{
name = acutecomb;
transform = "{1, 0, 0, 1, 343, -10}";
}
);
guideLines = (
{
angle = 90;
position = "{390, 716}";
},
{
angle = 90;
position = "{554, 713}";
}
);
layerId = "96BCCF85-5232-4835-A4EF-A1D5F093B6B0";
paths = (
{
closed = 1;
nodes = (
"160 220 OFFCURVE",
"255 122 OFFCURVE",
"390 122 CURVE",
"413 122 OFFCURVE",
"434 125 OFFCURVE",
"454 130 CURVE",
"408 191 OFFCURVE",
"380 267 OFFCURVE",
"380 350 CURVE",
"380 434 OFFCURVE",
"408 510 OFFCURVE",
"456 571 CURVE",
"435 577 OFFCURVE",
"413 580 OFFCURVE",
"390 580 CURVE",
"255 580 OFFCURVE",
"160 482 OFFCURVE",
"160 350 CURVE"
);
},
{
closed = 1;
nodes = (
"497 288 OFFCURVE",
"520 233 OFFCURVE",
"557 191 CURVE",
"596 231 OFFCURVE",
"618 287 OFFCURVE",
"618 350 CURVE",
"618 413 OFFCURVE",
"596 469 OFFCURVE",
"559 510 CURVE",
"520 467 OFFCURVE",
"497 411 OFFCURVE",
"497 349 CURVE"
);
},
{
closed = 1;
nodes = (
"843 110 OFFCURVE",
"931 173 OFFCURVE",
"965 265 CURVE",
"1079 231 LINE",
"1030 91 OFFCURVE",
"897 -10 OFFCURVE",
"740 -10 CURVE",
"678 -10 OFFCURVE",
"619 6 OFFCURVE",
"568 33 CURVE",
"516 6 OFFCURVE",
"456 -10 OFFCURVE",
"390 -10 CURVE",
"180 -10 OFFCURVE",
"30 146 OFFCURVE",
"30 350 CURVE",
"30 554 OFFCURVE",
"180 710 OFFCURVE",
"390 710 CURVE",
"456 710 OFFCURVE",
"516 694 OFFCURVE",
"568 667 CURVE",
"619 694 OFFCURVE",
"678 710 OFFCURVE",
"740 710 CURVE",
"897 710 OFFCURVE",
"1030 610 OFFCURVE",
"1079 470 CURVE",
"965 435 LINE",
"930 527 OFFCURVE",
"843 590 OFFCURVE",
"740 590 CURVE",
"716 590 OFFCURVE",
"693 587 OFFCURVE",
"672 580 CURVE",
"721 519 OFFCURVE",
"750 439 OFFCURVE",
"750 350 CURVE",
"750 261 OFFCURVE",
"721 181 OFFCURVE",
"672 119 CURVE",
"693 113 OFFCURVE",
"716 110 OFFCURVE",
"740 110 CURVE"
);
}
);
width = 1109;
},
{
components = (
{
name = acutecomb;
transform = "{1, 0, 0, 1, 340, 0}";
}
);
guideLines = (
{
angle = 90;
position = "{390, 716}";
}
);
layerId = m002;
paths = (
{
closed = 1;
nodes = (
"160 220 OFFCURVE",
"255 122 OFFCURVE",
"390 122 CURVE",
"413 122 OFFCURVE",
"434 125 OFFCURVE",
"454 130 CURVE",
"408 191 OFFCURVE",
"380 267 OFFCURVE",
"380 350 CURVE",
"380 434 OFFCURVE",
"408 510 OFFCURVE",
"456 571 CURVE",
"435 577 OFFCURVE",
"413 580 OFFCURVE",
"390 580 CURVE",
"255 580 OFFCURVE",
"160 482 OFFCURVE",
"160 350 CURVE"
);
},
{
closed = 1;
nodes = (
"497 288 OFFCURVE",
"520 233 OFFCURVE",
"557 191 CURVE",
"596 231 OFFCURVE",
"618 287 OFFCURVE",
"618 350 CURVE",
"618 413 OFFCURVE",
"596 469 OFFCURVE",
"559 510 CURVE",
"520 467 OFFCURVE",
"497 411 OFFCURVE",
"497 349 CURVE"
);
},
{
closed = 1;
nodes = (
"843 110 OFFCURVE",
"931 173 OFFCURVE",
"965 265 CURVE",
"1079 231 LINE",
"1030 91 OFFCURVE",
"897 -10 OFFCURVE",
"740 -10 CURVE",
"678 -10 OFFCURVE",
"619 6 OFFCURVE",
"568 33 CURVE",
"516 6 OFFCURVE",
"456 -10 OFFCURVE",
"390 -10 CURVE",
"180 -10 OFFCURVE",
"30 146 OFFCURVE",
"30 350 CURVE",
"30 554 OFFCURVE",
"180 710 OFFCURVE",
"390 710 CURVE",
"456 710 OFFCURVE",
"516 694 OFFCURVE",
"568 667 CURVE",
"619 694 OFFCURVE",
"678 710 OFFCURVE",
"740 710 CURVE",
"897 710 OFFCURVE",
"1030 610 OFFCURVE",
"1079 470 CURVE",
"965 435 LINE",
"930 527 OFFCURVE",
"843 590 OFFCURVE",
"740 590 CURVE",
"716 590 OFFCURVE",
"693 587 OFFCURVE",
"672 580 CURVE",
"721 519 OFFCURVE",
"750 439 OFFCURVE",
"750 350 CURVE",
"750 261 OFFCURVE",
"721 181 OFFCURVE",
"672 119 CURVE",
"693 113 OFFCURVE",
"716 110 OFFCURVE",
"740 110 CURVE"
);
}
);
width = 1109;
}
);
leftKerningGroup = O;
rightKerningGroup = O;
},
{
glyphname = Oacute_E;
lastChange = "2023-02-11 08:09:56 +0000";
layers = (
{
components = (
{
name = acutecomb;
transform = "{1, 0, 0, 1, 283, -10}";
}
);
guideLines = (
{
angle = 90;
position = "{390, 716}";
},
{
angle = 90;
position = "{494, 716}";
}
);
layerId = "96BCCF85-5232-4835-A4EF-A1D5F093B6B0";
paths = (
{
closed = 1;
nodes = (
"150 214 OFFCURVE",
"250 112 OFFCURVE",
"390 112 CURVE",
"529 112 OFFCURVE",
"628 214 OFFCURVE",
"628 350 CURVE",
"628 486 OFFCURVE",
"529 590 OFFCURVE",
"390 590 CURVE",
"250 590 OFFCURVE",
"150 486 OFFCURVE",
"150 350 CURVE"
);
},
{
closed = 1;
nodes = (
"711 528 OFFCURVE",
"732 479 OFFCURVE",
"743 425 CURVE",
"914 425 LINE",
"914 275 LINE",
"743 275 LINE",
"732 220 OFFCURVE",
"710 171 OFFCURVE",
"679 129 CURVE",
"958 129 LINE",
"958 0 LINE",
"479 0 LINE",
"451 -7 OFFCURVE",
"421 -10 OFFCURVE",
"390 -10 CURVE",
"180 -10 OFFCURVE",
"30 146 OFFCURVE",
"30 350 CURVE",
"30 554 OFFCURVE",
"180 710 OFFCURVE",
"390 710 CURVE",
"421 710 OFFCURVE",
"451 707 OFFCURVE",
"479 700 CURVE",
"958 700 LINE",
"958 570 LINE",
"680 570 LINE"
);
}
);
width = 988;
},
{
components = (
{
name = acutecomb;
transform = "{1, 0, 0, 1, 340, 0}";
}
);
guideLines = (
{
angle = 90;
position = "{390, 716}";
}
);
layerId = m002;
paths = (
{
closed = 1;
nodes = (
"150 214 OFFCURVE",
"250 112 OFFCURVE",
"390 112 CURVE",
"529 112 OFFCURVE",
"628 214 OFFCURVE",
"628 350 CURVE",
"628 486 OFFCURVE",
"529 590 OFFCURVE",
"390 590 CURVE",
"250 590 OFFCURVE",
"150 486 OFFCURVE",
"150 350 CURVE"
);
},
{
closed = 1;
nodes = (
"711 528 OFFCURVE",
"732 479 OFFCURVE",
"743 425 CURVE",
"914 425 LINE",
"914 275 LINE",
"743 275 LINE",
"732 220 OFFCURVE",
"710 171 OFFCURVE",
"679 129 CURVE",
"958 129 LINE",
"958 0 LINE",
"479 0 LINE",
"451 -7 OFFCURVE",
"421 -10 OFFCURVE",
"390 -10 CURVE",
"180 -10 OFFCURVE",
"30 146 OFFCURVE",
"30 350 CURVE",
"30 554 OFFCURVE",
"180 710 OFFCURVE",
"390 710 CURVE",
"421 710 OFFCURVE",
"451 707 OFFCURVE",
"479 700 CURVE",
"958 700 LINE",
"958 570 LINE",
"680 570 LINE"
);
}
);
width = 988;
}
);
leftKerningGroup = O;
rightKerningGroup = e;
},
{
glyphname = Oacute_I;
lastChange = "2023-02-11 08:09:59 +0000";
layers = (
{
components = (
{
name = acutecomb;
transform = "{1, 0, 0, 1, 179, -20}";
},
{
name = O.big;
}
);
guideLines = (
{
angle = 90;
position = "{390, 716}";
}
);
layerId = "96BCCF85-5232-4835-A4EF-A1D5F093B6B0";
paths = (
{
closed = 1;
nodes = (
"440 425 LINE",
"440 275 LINE",
"489 275 LINE",
"489 175 LINE",
"291 175 LINE",
"291 275 LINE",
"340 275 LINE",
"340 425 LINE",
"291 425 LINE",
"291 525 LINE",
"489 525 LINE",
"489 425 LINE"
);
}
);
width = 780;
},
{
components = (
{
name = acutecomb;
transform = "{1, 0, 0, 1, 340, 0}";
},
{
name = O.big;
}
);
guideLines = (
{
angle = 90;
position = "{390, 716}";
}
);
layerId = m002;
paths = (
{
closed = 1;
nodes = (
"440 425 LINE",
"440 275 LINE",
"489 275 LINE",
"489 175 LINE",
"291 175 LINE",
"291 275 LINE",
"340 275 LINE",
"340 425 LINE",
"291 425 LINE",
"291 525 LINE",
"489 525 LINE",
"489 425 LINE"
);
}
);
width = 780;
}
);
leftKerningGroup = O;
rightKerningGroup = O;
},
{
glyphname = Ocircumflexacute_C;
lastChange = "2023-02-05 07:58:30 +0000";
layers = (
{
components = (
{
name = circumflexcomb_acutecomb;
transform = "{1, 0, 0, 1, 87, -40}";
}
);
guideLines = (
{
angle = 90;
position = "{390, 716}";
},
{
position = "{652, 720}";
}
);
layerId = "96BCCF85-5232-4835-A4EF-A1D5F093B6B0";
paths = (
{
closed = 1;
nodes = (
"160 220 OFFCURVE",
"255 122 OFFCURVE",
"390 122 CURVE",
"413 122 OFFCURVE",
"434 125 OFFCURVE",
"454 130 CURVE",
"408 191 OFFCURVE",
"380 267 OFFCURVE",
"380 350 CURVE",
"380 434 OFFCURVE",
"408 510 OFFCURVE",
"456 571 CURVE",
"435 577 OFFCURVE",
"413 580 OFFCURVE",
"390 580 CURVE",
"255 580 OFFCURVE",
"160 482 OFFCURVE",
"160 350 CURVE"
);
},
{
closed = 1;
nodes = (
"497 288 OFFCURVE",
"520 233 OFFCURVE",
"557 191 CURVE",
"596 231 OFFCURVE",
"618 287 OFFCURVE",
"618 350 CURVE",
"618 413 OFFCURVE",
"596 469 OFFCURVE",
"559 510 CURVE",
"520 467 OFFCURVE",
"497 411 OFFCURVE",
"497 349 CURVE"
);
},
{
closed = 1;
nodes = (
"843 110 OFFCURVE",
"931 173 OFFCURVE",
"965 265 CURVE",
"1079 231 LINE",
"1030 91 OFFCURVE",
"897 -10 OFFCURVE",
"740 -10 CURVE",
"678 -10 OFFCURVE",
"619 6 OFFCURVE",
"568 33 CURVE",
"516 6 OFFCURVE",
"456 -10 OFFCURVE",
"390 -10 CURVE",
"180 -10 OFFCURVE",
"30 146 OFFCURVE",
"30 350 CURVE",
"30 554 OFFCURVE",
"180 710 OFFCURVE",
"390 710 CURVE",
"456 710 OFFCURVE",
"516 694 OFFCURVE",
"568 667 CURVE",
"619 694 OFFCURVE",
"678 710 OFFCURVE",
"740 710 CURVE",
"897 710 OFFCURVE",
"1030 610 OFFCURVE",
"1079 470 CURVE",
"965 435 LINE",
"930 527 OFFCURVE",
"843 590 OFFCURVE",
"740 590 CURVE",
"716 590 OFFCURVE",
"693 587 OFFCURVE",
"672 580 CURVE",
"721 519 OFFCURVE",
"750 439 OFFCURVE",
"750 350 CURVE",
"750 261 OFFCURVE",
"721 181 OFFCURVE",
"672 119 CURVE",
"693 113 OFFCURVE",
"716 110 OFFCURVE",
"740 110 CURVE"
);
}
);
width = 1109;
},
{
components = (
{
name = circumflexcomb_acutecomb;
transform = "{1, 0, 0, 1, 87, -40}";
}
);
guideLines = (
{
angle = 90;
position = "{390, 716}";
},
{
position = "{652, 720}";
}
);
layerId = m002;
paths = (
{
closed = 1;
nodes = (
"160 220 OFFCURVE",
"255 122 OFFCURVE",
"390 122 CURVE",
"413 122 OFFCURVE",
"434 125 OFFCURVE",
"454 130 CURVE",
"408 191 OFFCURVE",
"380 267 OFFCURVE",
"380 350 CURVE",
"380 434 OFFCURVE",
"408 510 OFFCURVE",
"456 571 CURVE",
"435 577 OFFCURVE",
"413 580 OFFCURVE",
"390 580 CURVE",
"255 580 OFFCURVE",
"160 482 OFFCURVE",
"160 350 CURVE"
);
},
{
closed = 1;
nodes = (
"497 288 OFFCURVE",
"520 233 OFFCURVE",
"557 191 CURVE",
"596 231 OFFCURVE",
"618 287 OFFCURVE",
"618 350 CURVE",
"618 413 OFFCURVE",
"596 469 OFFCURVE",
"559 510 CURVE",
"520 467 OFFCURVE",
"497 411 OFFCURVE",
"497 349 CURVE"
);
},
{
closed = 1;
nodes = (
"843 110 OFFCURVE",
"931 173 OFFCURVE",
"965 265 CURVE",
"1079 231 LINE",
"1030 91 OFFCURVE",
"897 -10 OFFCURVE",
"740 -10 CURVE",
"678 -10 OFFCURVE",
"619 6 OFFCURVE",
"568 33 CURVE",
"516 6 OFFCURVE",
"456 -10 OFFCURVE",
"390 -10 CURVE",
"180 -10 OFFCURVE",
"30 146 OFFCURVE",
"30 350 CURVE",
"30 554 OFFCURVE",
"180 710 OFFCURVE",
"390 710 CURVE",
"456 710 OFFCURVE",
"516 694 OFFCURVE",
"568 667 CURVE",
"619 694 OFFCURVE",
"678 710 OFFCURVE",
"740 710 CURVE",
"897 710 OFFCURVE",
"1030 610 OFFCURVE",
"1079 470 CURVE",
"965 435 LINE",
"930 527 OFFCURVE",
"843 590 OFFCURVE",
"740 590 CURVE",
"716 590 OFFCURVE",
"693 587 OFFCURVE",
"672 580 CURVE",
"721 519 OFFCURVE",
"750 439 OFFCURVE",
"750 350 CURVE",
"750 261 OFFCURVE",
"721 181 OFFCURVE",
"672 119 CURVE",
"693 113 OFFCURVE",
"716 110 OFFCURVE",
"740 110 CURVE"
);
}
);
width = 1109;
}
);
leftKerningGroup = O;
rightKerningGroup = O;
},
{
glyphname = Ograve_E;
lastChange = "2023-02-11 08:10:04 +0000";
layers = (
{
components = (
{
name = gravecomb;
transform = "{1, 0, 0, 1, 282, -20}";
}
);
guideLines = (
{
angle = 90;
position = "{390, 716}";
}
);
layerId = "96BCCF85-5232-4835-A4EF-A1D5F093B6B0";
paths = (
{
closed = 1;
nodes = (
"150 486 OFFCURVE",
"250 590 OFFCURVE",
"390 590 CURVE",
"529 590 OFFCURVE",
"628 486 OFFCURVE",
"628 350 CURVE",
"628 214 OFFCURVE",
"529 112 OFFCURVE",
"390 112 CURVE",
"250 112 OFFCURVE",
"150 214 OFFCURVE",
"150 350 CURVE"
);
},
{
closed = 1;
nodes = (
"958 570 LINE",
"958 700 LINE",
"479 700 LINE",
"451 707 OFFCURVE",
"421 710 OFFCURVE",
"390 710 CURVE",
"180 710 OFFCURVE",
"30 554 OFFCURVE",
"30 350 CURVE",
"30 146 OFFCURVE",
"180 -10 OFFCURVE",
"390 -10 CURVE",
"421 -10 OFFCURVE",
"451 -7 OFFCURVE",
"479 0 CURVE",
"958 0 LINE",
"958 129 LINE",
"679 129 LINE",
"710 171 OFFCURVE",
"732 220 OFFCURVE",
"743 275 CURVE",
"914 275 LINE",
"914 425 LINE",
"743 425 LINE",
"732 479 OFFCURVE",
"711 528 OFFCURVE",
"680 570 CURVE"
);
}
);
width = 988;
},
{
components = (
{
name = gravecomb;
transform = "{1, 0, 0, 1, 282, 0}";
}
);
guideLines = (
{
angle = 90;
position = "{390, 716}";
}
);
layerId = m002;
paths = (
{
closed = 1;
nodes = (
"150 486 OFFCURVE",
"250 590 OFFCURVE",
"390 590 CURVE",
"529 590 OFFCURVE",
"628 486 OFFCURVE",
"628 350 CURVE",
"628 214 OFFCURVE",
"529 112 OFFCURVE",
"390 112 CURVE",
"250 112 OFFCURVE",
"150 214 OFFCURVE",
"150 350 CURVE"
);
},
{
closed = 1;
nodes = (
"958 570 LINE",
"958 700 LINE",
"479 700 LINE",
"451 707 OFFCURVE",
"421 710 OFFCURVE",
"390 710 CURVE",
"180 710 OFFCURVE",
"30 554 OFFCURVE",
"30 350 CURVE",
"30 146 OFFCURVE",
"180 -10 OFFCURVE",
"390 -10 CURVE",
"421 -10 OFFCURVE",
"451 -7 OFFCURVE",
"479 0 CURVE",
"958 0 LINE",
"958 129 LINE",
"679 129 LINE",
"710 171 OFFCURVE",
"732 220 OFFCURVE",
"743 275 CURVE",
"914 275 LINE",
"914 425 LINE",
"743 425 LINE",
"732 479 OFFCURVE",
"711 528 OFFCURVE",
"680 570 CURVE"
);
}
);
width = 988;
}
);
leftKerningGroup = O;
rightKerningGroup = e;
},
{
glyphname = Ograve_I;
lastChange = "2023-02-11 08:10:18 +0000";
layers = (
{
components = (
{
name = gravecomb;
transform = "{1, 0, 0, 1, 179, -20}";
},
{
name = O.big;
}
);
guideLines = (
{
angle = 90;
position = "{390, 716}";
}
);
layerId = "96BCCF85-5232-4835-A4EF-A1D5F093B6B0";
paths = (
{
closed = 1;
nodes = (
"440 425 LINE",
"440 275 LINE",
"489 275 LINE",
"489 175 LINE",
"291 175 LINE",
"291 275 LINE",
"340 275 LINE",
"340 425 LINE",
"291 425 LINE",
"291 525 LINE",
"489 525 LINE",
"489 425 LINE"
);
}
);
width = 780;
},
{
components = (
{
name = gravecomb;
transform = "{1, 0, 0, 1, 282, 0}";
},
{
name = O.big;
}
);
guideLines = (
{
angle = 90;
position = "{390, 716}";
}
);
layerId = m002;
paths = (
{
closed = 1;
nodes = (
"440 425 LINE",
"440 275 LINE",
"489 275 LINE",
"489 175 LINE",
"291 175 LINE",
"291 275 LINE",
"340 275 LINE",
"340 425 LINE",
"291 425 LINE",
"291 525 LINE",
"489 525 LINE",
"489 425 LINE"
);
}
);
width = 780;
}
);
leftKerningGroup = O;
rightKerningGroup = O;
},
{
glyphname = Ohookabove_E;
lastChange = "2023-02-05 07:58:30 +0000";
layers = (
{
components = (
{
name = hookabovecomb;
transform = "{1, 0, 0, 1, 289, -30}";
}
);
guideLines = (
{
angle = 90;
position = "{390, 716}";
}
);
layerId = "96BCCF85-5232-4835-A4EF-A1D5F093B6B0";
paths = (
{
closed = 1;
nodes = (
"150 486 OFFCURVE",
"250 590 OFFCURVE",
"390 590 CURVE",
"529 590 OFFCURVE",
"628 486 OFFCURVE",
"628 350 CURVE",
"628 214 OFFCURVE",
"529 112 OFFCURVE",
"390 112 CURVE",
"250 112 OFFCURVE",
"150 214 OFFCURVE",
"150 350 CURVE"
);
},
{
closed = 1;
nodes = (
"958 570 LINE",
"958 700 LINE",
"479 700 LINE",
"451 707 OFFCURVE",
"421 710 OFFCURVE",
"390 710 CURVE",
"180 710 OFFCURVE",
"30 554 OFFCURVE",
"30 350 CURVE",
"30 146 OFFCURVE",
"180 -10 OFFCURVE",
"390 -10 CURVE",
"421 -10 OFFCURVE",
"451 -7 OFFCURVE",
"479 0 CURVE",
"958 0 LINE",
"958 129 LINE",
"679 129 LINE",
"710 171 OFFCURVE",
"732 220 OFFCURVE",
"743 275 CURVE",
"914 275 LINE",
"914 425 LINE",
"743 425 LINE",
"732 479 OFFCURVE",
"711 528 OFFCURVE",
"680 570 CURVE"
);
}
);
width = 988;
},
{
components = (
{
name = hookabovecomb;
transform = "{1, 0, 0, 1, 289, -30}";
}
);
guideLines = (
{
angle = 90;
position = "{390, 716}";
}
);
layerId = m002;
paths = (
{
closed = 1;
nodes = (
"150 486 OFFCURVE",
"250 590 OFFCURVE",
"390 590 CURVE",
"529 590 OFFCURVE",
"628 486 OFFCURVE",
"628 350 CURVE",
"628 214 OFFCURVE",
"529 112 OFFCURVE",
"390 112 CURVE",
"250 112 OFFCURVE",
"150 214 OFFCURVE",
"150 350 CURVE"
);
},
{
closed = 1;
nodes = (
"958 570 LINE",
"958 700 LINE",
"479 700 LINE",
"451 707 OFFCURVE",
"421 710 OFFCURVE",
"390 710 CURVE",
"180 710 OFFCURVE",
"30 554 OFFCURVE",
"30 350 CURVE",
"30 146 OFFCURVE",
"180 -10 OFFCURVE",
"390 -10 CURVE",
"421 -10 OFFCURVE",
"451 -7 OFFCURVE",
"479 0 CURVE",
"958 0 LINE",
"958 129 LINE",
"679 129 LINE",
"710 171 OFFCURVE",
"732 220 OFFCURVE",
"743 275 CURVE",
"914 275 LINE",
"914 425 LINE",
"743 425 LINE",
"732 479 OFFCURVE",
"711 528 OFFCURVE",
"680 570 CURVE"
);
}
);
width = 988;
}
);
leftKerningGroup = O;
rightKerningGroup = e;
},
{
glyphname = Ohookabove_I;
lastChange = "2023-02-11 07:22:11 +0000";
layers = (
{
components = (
{
name = hookabovecomb;
transform = "{1, 0, 0, 1, 273, -30}";
},
{
name = O.big;
}
);
guideLines = (
{
angle = 90;
position = "{390, 716}";
}
);
layerId = "96BCCF85-5232-4835-A4EF-A1D5F093B6B0";
paths = (
{
closed = 1;
nodes = (
"440 425 LINE",
"440 275 LINE",
"489 275 LINE",
"489 175 LINE",
"291 175 LINE",
"291 275 LINE",
"340 275 LINE",
"340 425 LINE",
"291 425 LINE",
"291 525 LINE",
"489 525 LINE",
"489 425 LINE"
);
}
);
width = 780;
},
{
components = (
{
name = hookabovecomb;
transform = "{1, 0, 0, 1, 289, -30}";
},
{
name = O.big;
}
);
guideLines = (
{
angle = 90;
position = "{390, 716}";
}
);
layerId = m002;
paths = (
{
closed = 1;
nodes = (
"440 425 LINE",
"440 275 LINE",
"489 275 LINE",
"489 175 LINE",
"291 175 LINE",
"291 275 LINE",
"340 275 LINE",
"340 425 LINE",
"291 425 LINE",
"291 525 LINE",
"489 525 LINE",
"489 425 LINE"
);
}
);
width = 780;
}
);
leftKerningGroup = O;
rightKerningGroup = O;
},
{
glyphname = Otilde_E;
lastChange = "2023-02-05 07:58:30 +0000";
layers = (
{
components = (
{
name = tildecomb;
transform = "{1, 0, 0, 1, 170, -28}";
}
);
guideLines = (
{
angle = 90;
position = "{390, 716}";
}
);
layerId = "96BCCF85-5232-4835-A4EF-A1D5F093B6B0";
paths = (
{
closed = 1;
nodes = (
"150 486 OFFCURVE",
"250 590 OFFCURVE",
"390 590 CURVE",
"529 590 OFFCURVE",
"628 486 OFFCURVE",
"628 350 CURVE",
"628 214 OFFCURVE",
"529 112 OFFCURVE",
"390 112 CURVE",
"250 112 OFFCURVE",
"150 214 OFFCURVE",
"150 350 CURVE"
);
},
{
closed = 1;
nodes = (
"958 570 LINE",
"958 700 LINE",
"479 700 LINE",
"451 707 OFFCURVE",
"421 710 OFFCURVE",
"390 710 CURVE",
"180 710 OFFCURVE",
"30 554 OFFCURVE",
"30 350 CURVE",
"30 146 OFFCURVE",
"180 -10 OFFCURVE",
"390 -10 CURVE",
"421 -10 OFFCURVE",
"451 -7 OFFCURVE",
"479 0 CURVE",
"958 0 LINE",
"958 129 LINE",
"679 129 LINE",
"710 171 OFFCURVE",
"732 220 OFFCURVE",
"743 275 CURVE",
"914 275 LINE",
"914 425 LINE",
"743 425 LINE",
"732 479 OFFCURVE",
"711 528 OFFCURVE",
"680 570 CURVE"
);
}
);
width = 988;
},
{
components = (
{
name = tildecomb;
transform = "{1, 0, 0, 1, 170, -28}";
}
);
guideLines = (
{
angle = 90;
position = "{390, 716}";
}
);
layerId = m002;
paths = (
{
closed = 1;
nodes = (
"150 486 OFFCURVE",
"250 590 OFFCURVE",
"390 590 CURVE",
"529 590 OFFCURVE",
"628 486 OFFCURVE",
"628 350 CURVE",
"628 214 OFFCURVE",
"529 112 OFFCURVE",
"390 112 CURVE",
"250 112 OFFCURVE",
"150 214 OFFCURVE",
"150 350 CURVE"
);
},
{
closed = 1;
nodes = (
"958 570 LINE",
"958 700 LINE",
"479 700 LINE",
"451 707 OFFCURVE",
"421 710 OFFCURVE",
"390 710 CURVE",
"180 710 OFFCURVE",
"30 554 OFFCURVE",
"30 350 CURVE",
"30 146 OFFCURVE",
"180 -10 OFFCURVE",
"390 -10 CURVE",
"421 -10 OFFCURVE",
"451 -7 OFFCURVE",
"479 0 CURVE",
"958 0 LINE",
"958 129 LINE",
"679 129 LINE",
"710 171 OFFCURVE",
"732 220 OFFCURVE",
"743 275 CURVE",
"914 275 LINE",
"914 425 LINE",
"743 425 LINE",
"732 479 OFFCURVE",
"711 528 OFFCURVE",
"680 570 CURVE"
);
}
);
width = 988;
}
);
leftKerningGroup = O;
rightKerningGroup = e;
},
{
glyphname = Otilde_I;
lastChange = "2023-02-11 08:10:28 +0000";
layers = (
{
components = (
{
name = tildecomb;
transform = "{1, 0, 0, 1, 170, -40}";
},
{
name = O.big;
}
);
guideLines = (
{
angle = 90;
position = "{390, 716}";
}
);
layerId = "96BCCF85-5232-4835-A4EF-A1D5F093B6B0";
paths = (
{
closed = 1;
nodes = (
"440 425 LINE",
"440 275 LINE",
"489 275 LINE",
"489 175 LINE",
"291 175 LINE",
"291 275 LINE",
"340 275 LINE",
"340 425 LINE",
"291 425 LINE",
"291 525 LINE",
"489 525 LINE",
"489 425 LINE"
);
}
);
width = 780;
},
{
components = (
{
name = tildecomb;
transform = "{1, 0, 0, 1, 170, -28}";
},
{
name = O.big;
}
);
guideLines = (
{
angle = 90;
position = "{390, 716}";
}
);
layerId = m002;
paths = (
{
closed = 1;
nodes = (
"440 425 LINE",
"440 275 LINE",
"489 275 LINE",
"489 175 LINE",
"291 175 LINE",
"291 275 LINE",
"340 275 LINE",
"340 425 LINE",
"291 425 LINE",
"291 525 LINE",
"489 525 LINE",
"489 425 LINE"
);
}
);
width = 780;
}
);
leftKerningGroup = O;
rightKerningGroup = O;
},
{
glyphname = P_H;
lastChange = "2023-02-05 07:58:30 +0000";
layers = (
{
guideLines = (
{
position = "{181, 519}";
}
);
layerId = "96BCCF85-5232-4835-A4EF-A1D5F093B6B0";
paths = (
{
closed = 1;
nodes = (
"548 298 LINE",
"548 0 LINE",
"418 0 LINE",
"418 89 LINE",
"352 89 LINE",
"352 0 LINE",
"222 0 LINE",
"222 298 LINE",
"352 298 LINE",
"352 209 LINE",
"418 209 LINE",
"418 298 LINE"
);
},
{
closed = 1;
nodes = (
"510 700 OFFCURVE",
"598 634 OFFCURVE",
"598 527 CURVE",
"598 527 OFFCURVE",
"598 510 OFFCURVE",
"598 510 CURVE SMOOTH",
"597 402 OFFCURVE",
"519 339 OFFCURVE",
"403 339 CURVE SMOOTH",
"179 339 LINE",
"179 0 LINE",
"30 0 LINE",
"30 700 LINE",
"403 700 LINE"
);
},
{
closed = 1;
nodes = (
"405 469 OFFCURVE",
"448 479 OFFCURVE",
"448 516 CURVE",
"448 523 LINE",
"448 560 OFFCURVE",
"405 570 OFFCURVE",
"379 570 CURVE",
"179 570 LINE",
"179 469 LINE",
"379 469 LINE"
);
}
);
width = 628;
},
{
guideLines = (
{
position = "{181, 519}";
}
);
layerId = m002;
paths = (
{
closed = 1;
nodes = (
"548 298 LINE",
"548 0 LINE",
"418 0 LINE",
"418 89 LINE",
"352 89 LINE",
"352 0 LINE",
"222 0 LINE",
"222 298 LINE",
"352 298 LINE",
"352 209 LINE",
"418 209 LINE",
"418 298 LINE"
);
},
{
closed = 1;
nodes = (
"510 700 OFFCURVE",
"598 634 OFFCURVE",
"598 527 CURVE",
"598 527 OFFCURVE",
"598 510 OFFCURVE",
"598 510 CURVE SMOOTH",
"597 402 OFFCURVE",
"519 339 OFFCURVE",
"403 339 CURVE SMOOTH",
"179 339 LINE",
"179 0 LINE",
"30 0 LINE",
"30 700 LINE",
"403 700 LINE"
);
},
{
closed = 1;
nodes = (
"405 469 OFFCURVE",
"448 479 OFFCURVE",
"448 516 CURVE",
"448 523 LINE",
"448 560 OFFCURVE",
"405 570 OFFCURVE",
"379 570 CURVE",
"179 570 LINE",
"179 469 LINE",
"379 469 LINE"
);
}
);
width = 628;
}
);
leftKerningGroup = H;
leftMetricsKey = B;
rightKerningGroup = G;
},
{
glyphname = R_A;
lastChange = "2023-02-05 07:58:30 +0000";
layers = (
{
guideLines = (
{
position = "{544, 170}";
}
);
layerId = "96BCCF85-5232-4835-A4EF-A1D5F093B6B0";
paths = (
{
closed = 1;
nodes = (
"576 267 LINE",
"531 267 LINE",
"519 170 LINE",
"390 170 LINE",
"470 700 LINE",
"638 700 LINE",
"718 170 LINE",
"590 170 LINE"
);
},
{
closed = 1;
nodes = (
"569 381 LINE",
"563 549 LINE",
"546 549 LINE",
"539 381 LINE"
);
},
{
closed = 1;
nodes = (
"380 351 OFFCURVE",
"366 288 OFFCURVE",
"318 244 CURVE",
"331 181 LINE SMOOTH",
"337 150 OFFCURVE",
"367 129 OFFCURVE",
"399 129 CURVE SMOOTH",
"718 129 LINE",
"718 0 LINE",
"375 0 LINE SMOOTH",
"290 0 OFFCURVE",
"217 59 OFFCURVE",
"199 142 CURVE SMOOTH",
"188 193 LINE",
"179 193 LINE",
"179 0 LINE",
"30 0 LINE",
"30 700 LINE",
"183 700 LINE",
"291 700 OFFCURVE",
"380 612 OFFCURVE",
"380 503 CURVE",
"380 386 LINE"
);
},
{
closed = 1;
nodes = (
"211 322 OFFCURVE",
"230 328 OFFCURVE",
"230 386 CURVE",
"230 506 LINE",
"230 562 OFFCURVE",
"211 570 OFFCURVE",
"187 570 CURVE",
"179 570 LINE",
"179 322 LINE",
"187 322 LINE"
);
}
);
width = 748;
},
{
guideLines = (
{
position = "{544, 170}";
}
);
layerId = m002;
paths = (
{
closed = 1;
nodes = (
"576 267 LINE",
"531 267 LINE",
"519 170 LINE",
"390 170 LINE",
"470 700 LINE",
"638 700 LINE",
"718 170 LINE",
"590 170 LINE"
);
},
{
closed = 1;
nodes = (
"569 381 LINE",
"563 549 LINE",
"546 549 LINE",
"539 381 LINE"
);
},
{
closed = 1;
nodes = (
"380 351 OFFCURVE",
"366 288 OFFCURVE",
"318 244 CURVE",
"331 181 LINE SMOOTH",
"337 150 OFFCURVE",
"367 129 OFFCURVE",
"399 129 CURVE SMOOTH",
"718 129 LINE",
"718 0 LINE",
"375 0 LINE SMOOTH",
"290 0 OFFCURVE",
"217 59 OFFCURVE",
"199 142 CURVE SMOOTH",
"188 193 LINE",
"179 193 LINE",
"179 0 LINE",
"30 0 LINE",
"30 700 LINE",
"183 700 LINE",
"291 700 OFFCURVE",
"380 612 OFFCURVE",
"380 503 CURVE",
"380 386 LINE"
);
},
{
closed = 1;
nodes = (
"211 322 OFFCURVE",
"230 328 OFFCURVE",
"230 386 CURVE",
"230 506 LINE",
"230 562 OFFCURVE",
"211 570 OFFCURVE",
"187 570 CURVE",
"179 570 LINE",
"179 322 LINE",
"187 322 LINE"
);
}
);
width = 748;
}
);
leftKerningGroup = H;
leftMetricsKey = B;
rightKerningGroup = H;
},
{
glyphname = R_E;
lastChange = "2023-02-05 07:58:30 +0000";
layers = (
{
guideLines = (
{
position = "{564, 170}";
}
);
layerId = "96BCCF85-5232-4835-A4EF-A1D5F093B6B0";
paths = (
{
closed = 1;
nodes = (
"380 351 OFFCURVE",
"366 288 OFFCURVE",
"318 244 CURVE",
"331 181 LINE SMOOTH",
"337 150 OFFCURVE",
"367 129 OFFCURVE",
"399 129 CURVE SMOOTH",
"748 129 LINE",
"748 0 LINE",
"375 0 LINE SMOOTH",
"290 0 OFFCURVE",
"217 59 OFFCURVE",
"199 142 CURVE SMOOTH",
"188 193 LINE",
"179 193 LINE",
"179 0 LINE",
"30 0 LINE",
"30 700 LINE",
"183 700 LINE",
"291 700 OFFCURVE",
"380 612 OFFCURVE",
"380 503 CURVE",
"380 386 LINE"
);
},
{
closed = 1;
nodes = (
"211 322 OFFCURVE",
"230 328 OFFCURVE",
"230 386 CURVE",
"230 506 LINE",
"230 562 OFFCURVE",
"211 570 OFFCURVE",
"187 570 CURVE",
"179 570 LINE",
"179 322 LINE",
"187 322 LINE"
);
},
{
closed = 1;
nodes = (
"532 580 LINE",
"532 495 LINE",
"714 495 LINE",
"714 375 LINE",
"532 375 LINE",
"532 290 LINE",
"748 290 LINE",
"748 170 LINE",
"420 170 LINE",
"420 700 LINE",
"748 700 LINE",
"748 580 LINE"
);
}
);
width = 778;
},
{
guideLines = (
{
position = "{564, 170}";
}
);
layerId = m002;
paths = (
{
closed = 1;
nodes = (
"380 351 OFFCURVE",
"366 288 OFFCURVE",
"318 244 CURVE",
"331 181 LINE SMOOTH",
"337 150 OFFCURVE",
"367 129 OFFCURVE",
"399 129 CURVE SMOOTH",
"748 129 LINE",
"748 0 LINE",
"375 0 LINE SMOOTH",
"290 0 OFFCURVE",
"217 59 OFFCURVE",
"199 142 CURVE SMOOTH",
"188 193 LINE",
"179 193 LINE",
"179 0 LINE",
"30 0 LINE",
"30 700 LINE",
"183 700 LINE",
"291 700 OFFCURVE",
"380 612 OFFCURVE",
"380 503 CURVE",
"380 386 LINE"
);
},
{
closed = 1;
nodes = (
"211 322 OFFCURVE",
"230 328 OFFCURVE",
"230 386 CURVE",
"230 506 LINE",
"230 562 OFFCURVE",
"211 570 OFFCURVE",
"187 570 CURVE",
"179 570 LINE",
"179 322 LINE",
"187 322 LINE"
);
},
{
closed = 1;
nodes = (
"532 580 LINE",
"532 495 LINE",
"714 495 LINE",
"714 375 LINE",
"532 375 LINE",
"532 290 LINE",
"748 290 LINE",
"748 170 LINE",
"420 170 LINE",
"420 700 LINE",
"748 700 LINE",
"748 580 LINE"
);
}
);
width = 778;
}
);
leftKerningGroup = H;
leftMetricsKey = B;
rightKerningGroup = H;
},
{
glyphname = R_I;
lastChange = "2023-02-05 07:58:30 +0000";
layers = (
{
layerId = "96BCCF85-5232-4835-A4EF-A1D5F093B6B0";
paths = (
{
closed = 1;
nodes = (
"380 351 OFFCURVE",
"366 288 OFFCURVE",
"318 244 CURVE",
"331 181 LINE SMOOTH",
"337 150 OFFCURVE",
"367 129 OFFCURVE",
"399 129 CURVE SMOOTH",
"732 129 LINE",
"732 0 LINE",
"375 0 LINE SMOOTH",
"290 0 OFFCURVE",
"217 59 OFFCURVE",
"199 142 CURVE SMOOTH",
"188 193 LINE",
"179 193 LINE",
"179 0 LINE",
"30 0 LINE",
"30 700 LINE",
"183 700 LINE",
"291 700 OFFCURVE",
"380 612 OFFCURVE",
"380 503 CURVE",
"380 386 LINE"
);
},
{
closed = 1;
nodes = (
"211 322 OFFCURVE",
"230 328 OFFCURVE",
"230 386 CURVE",
"230 506 LINE",
"230 562 OFFCURVE",
"211 570 OFFCURVE",
"187 570 CURVE",
"179 570 LINE",
"179 322 LINE",
"187 322 LINE"
);
},
{
closed = 1;
nodes = (
"732 700 LINE",
"732 570 LINE",
"623 570 LINE",
"623 300 LINE",
"732 300 LINE",
"732 170 LINE",
"404 170 LINE",
"404 300 LINE",
"512 300 LINE",
"512 570 LINE",
"404 570 LINE",
"404 700 LINE"
);
}
);
width = 762;
},
{
layerId = m002;
paths = (
{
closed = 1;
nodes = (
"380 351 OFFCURVE",
"366 288 OFFCURVE",
"318 244 CURVE",
"331 181 LINE SMOOTH",
"337 150 OFFCURVE",
"367 129 OFFCURVE",
"399 129 CURVE SMOOTH",
"732 129 LINE",
"732 0 LINE",
"375 0 LINE SMOOTH",
"290 0 OFFCURVE",
"217 59 OFFCURVE",
"199 142 CURVE SMOOTH",
"188 193 LINE",
"179 193 LINE",
"179 0 LINE",
"30 0 LINE",
"30 700 LINE",
"183 700 LINE",
"291 700 OFFCURVE",
"380 612 OFFCURVE",
"380 503 CURVE",
"380 386 LINE"
);
},
{
closed = 1;
nodes = (
"211 322 OFFCURVE",
"230 328 OFFCURVE",
"230 386 CURVE",
"230 506 LINE",
"230 562 OFFCURVE",
"211 570 OFFCURVE",
"187 570 CURVE",
"179 570 LINE",
"179 322 LINE",
"187 322 LINE"
);
},
{
closed = 1;
nodes = (
"732 700 LINE",
"732 570 LINE",
"623 570 LINE",
"623 300 LINE",
"732 300 LINE",
"732 170 LINE",
"404 170 LINE",
"404 300 LINE",
"512 300 LINE",
"512 570 LINE",
"404 570 LINE",
"404 700 LINE"
);
}
);
width = 762;
}
);
leftKerningGroup = H;
leftMetricsKey = B;
rightKerningGroup = H;
},
{
glyphname = R_O;
lastChange = "2023-02-05 07:58:30 +0000";
layers = (
{
layerId = "96BCCF85-5232-4835-A4EF-A1D5F093B6B0";
paths = (
{
closed = 1;
nodes = (
"380 351 OFFCURVE",
"366 288 OFFCURVE",
"318 244 CURVE",
"331 181 LINE SMOOTH",
"337 150 OFFCURVE",
"367 129 OFFCURVE",
"399 129 CURVE SMOOTH",
"753 129 LINE",
"753 0 LINE",
"375 0 LINE SMOOTH",
"290 0 OFFCURVE",
"217 59 OFFCURVE",
"199 142 CURVE SMOOTH",
"188 193 LINE",
"179 193 LINE",
"179 0 LINE",
"30 0 LINE",
"30 700 LINE",
"183 700 LINE",
"291 700 OFFCURVE",
"380 612 OFFCURVE",
"380 503 CURVE",
"380 386 LINE"
);
},
{
closed = 1;
nodes = (
"211 322 OFFCURVE",
"230 328 OFFCURVE",
"230 386 CURVE",
"230 506 LINE",
"230 562 OFFCURVE",
"211 570 OFFCURVE",
"187 570 CURVE",
"179 570 LINE",
"179 322 LINE",
"187 322 LINE"
);
},
{
closed = 1;
nodes = (
"674 710 OFFCURVE",
"748 636 OFFCURVE",
"748 546 CURVE",
"748 324 LINE",
"748 233 OFFCURVE",
"674 160 OFFCURVE",
"584 160 CURVE",
"493 160 OFFCURVE",
"420 233 OFFCURVE",
"420 324 CURVE",
"420 546 LINE",
"420 636 OFFCURVE",
"493 710 OFFCURVE",
"584 710 CURVE"
);
},
{
closed = 1;
nodes = (
"608 554 LINE",
"608 567 OFFCURVE",
"598 578 OFFCURVE",
"584 578 CURVE",
"570 578 OFFCURVE",
"560 567 OFFCURVE",
"560 554 CURVE",
"560 313 LINE",
"560 300 OFFCURVE",
"570 290 OFFCURVE",
"584 290 CURVE",
"598 290 OFFCURVE",
"608 300 OFFCURVE",
"608 313 CURVE"
);
}
);
width = 783;
},
{
layerId = m002;
paths = (
{
closed = 1;
nodes = (
"380 351 OFFCURVE",
"366 288 OFFCURVE",
"318 244 CURVE",
"331 181 LINE SMOOTH",
"337 150 OFFCURVE",
"367 129 OFFCURVE",
"399 129 CURVE SMOOTH",
"753 129 LINE",
"753 0 LINE",
"375 0 LINE SMOOTH",
"290 0 OFFCURVE",
"217 59 OFFCURVE",
"199 142 CURVE SMOOTH",
"188 193 LINE",
"179 193 LINE",
"179 0 LINE",
"30 0 LINE",
"30 700 LINE",
"183 700 LINE",
"291 700 OFFCURVE",
"380 612 OFFCURVE",
"380 503 CURVE",
"380 386 LINE"
);
},
{
closed = 1;
nodes = (
"211 322 OFFCURVE",
"230 328 OFFCURVE",
"230 386 CURVE",
"230 506 LINE",
"230 562 OFFCURVE",
"211 570 OFFCURVE",
"187 570 CURVE",
"179 570 LINE",
"179 322 LINE",
"187 322 LINE"
);
},
{
closed = 1;
nodes = (
"674 710 OFFCURVE",
"748 636 OFFCURVE",
"748 546 CURVE",
"748 324 LINE",
"748 233 OFFCURVE",
"674 160 OFFCURVE",
"584 160 CURVE",
"493 160 OFFCURVE",
"420 233 OFFCURVE",
"420 324 CURVE",
"420 546 LINE",
"420 636 OFFCURVE",
"493 710 OFFCURVE",
"584 710 CURVE"
);
},
{
closed = 1;
nodes = (
"608 554 LINE",
"608 567 OFFCURVE",
"598 578 OFFCURVE",
"584 578 CURVE",
"570 578 OFFCURVE",
"560 567 OFFCURVE",
"560 554 CURVE",
"560 313 LINE",
"560 300 OFFCURVE",
"570 290 OFFCURVE",
"584 290 CURVE",
"598 290 OFFCURVE",
"608 300 OFFCURVE",
"608 313 CURVE"
);
}
);
width = 783;
}
);
leftKerningGroup = H;
leftMetricsKey = B;
rightKerningGroup = H;
},
{
glyphname = R_U;
lastChange = "2023-02-05 07:58:30 +0000";
layers = (
{
layerId = "96BCCF85-5232-4835-A4EF-A1D5F093B6B0";
paths = (
{
closed = 1;
nodes = (
"380 351 OFFCURVE",
"366 288 OFFCURVE",
"318 244 CURVE",
"331 181 LINE SMOOTH",
"337 150 OFFCURVE",
"367 129 OFFCURVE",
"399 129 CURVE SMOOTH",
"754 129 LINE",
"754 0 LINE",
"375 0 LINE SMOOTH",
"290 0 OFFCURVE",
"217 59 OFFCURVE",
"199 142 CURVE SMOOTH",
"188 193 LINE",
"179 193 LINE",
"179 0 LINE",
"30 0 LINE",
"30 700 LINE",
"183 700 LINE",
"291 700 OFFCURVE",
"380 612 OFFCURVE",
"380 503 CURVE",
"380 386 LINE"
);
},
{
closed = 1;
nodes = (
"211 322 OFFCURVE",
"230 328 OFFCURVE",
"230 386 CURVE",
"230 506 LINE",
"230 562 OFFCURVE",
"211 570 OFFCURVE",
"187 570 CURVE",
"179 570 LINE",
"179 322 LINE",
"187 322 LINE"
);
},
{
closed = 1;
nodes = (
"754 700 LINE",
"754 324 LINE",
"754 233 OFFCURVE",
"681 160 OFFCURVE",
"590 160 CURVE",
"499 160 OFFCURVE",
"425 233 OFFCURVE",
"425 324 CURVE",
"425 700 LINE",
"565 700 LINE",
"565 315 LINE",
"565 301 OFFCURVE",
"577 290 OFFCURVE",
"590 290 CURVE",
"604 290 OFFCURVE",
"615 301 OFFCURVE",
"615 315 CURVE",
"615 700 LINE"
);
}
);
width = 784;
},
{
layerId = m002;
paths = (
{
closed = 1;
nodes = (
"380 351 OFFCURVE",
"366 288 OFFCURVE",
"318 244 CURVE",
"331 181 LINE SMOOTH",
"337 150 OFFCURVE",
"367 129 OFFCURVE",
"399 129 CURVE SMOOTH",
"754 129 LINE",
"754 0 LINE",
"375 0 LINE SMOOTH",
"290 0 OFFCURVE",
"217 59 OFFCURVE",
"199 142 CURVE SMOOTH",
"188 193 LINE",
"179 193 LINE",
"179 0 LINE",
"30 0 LINE",
"30 700 LINE",
"183 700 LINE",
"291 700 OFFCURVE",
"380 612 OFFCURVE",
"380 503 CURVE",
"380 386 LINE"
);
},
{
closed = 1;
nodes = (
"211 322 OFFCURVE",
"230 328 OFFCURVE",
"230 386 CURVE",
"230 506 LINE",
"230 562 OFFCURVE",
"211 570 OFFCURVE",
"187 570 CURVE",
"179 570 LINE",
"179 322 LINE",
"187 322 LINE"
);
},
{
closed = 1;
nodes = (
"754 700 LINE",
"754 324 LINE",
"754 233 OFFCURVE",
"681 160 OFFCURVE",
"590 160 CURVE",
"499 160 OFFCURVE",
"425 233 OFFCURVE",
"425 324 CURVE",
"425 700 LINE",
"565 700 LINE",
"565 315 LINE",
"565 301 OFFCURVE",
"577 290 OFFCURVE",
"590 290 CURVE",
"604 290 OFFCURVE",
"615 301 OFFCURVE",
"615 315 CURVE",
"615 700 LINE"
);
}
);
width = 784;
}
);
leftKerningGroup = H;
leftMetricsKey = B;
rightKerningGroup = H;
rightMetricsKey = H;
},
{
glyphname = R_a;
lastChange = "2023-02-05 07:58:30 +0000";
layers = (
{
guideLines = (
{
position = "{544, 170}";
}
);
layerId = "96BCCF85-5232-4835-A4EF-A1D5F093B6B0";
paths = (
{
closed = 1;
nodes = (
"380 351 OFFCURVE",
"366 288 OFFCURVE",
"318 244 CURVE",
"331 181 LINE SMOOTH",
"337 150 OFFCURVE",
"367 129 OFFCURVE",
"399 129 CURVE SMOOTH",
"684 129 LINE",
"684 0 LINE",
"375 0 LINE SMOOTH",
"290 0 OFFCURVE",
"217 59 OFFCURVE",
"199 142 CURVE SMOOTH",
"188 193 LINE",
"179 193 LINE",
"179 0 LINE",
"30 0 LINE",
"30 700 LINE",
"183 700 LINE",
"291 700 OFFCURVE",
"380 612 OFFCURVE",
"380 503 CURVE",
"380 386 LINE"
);
},
{
closed = 1;
nodes = (
"211 322 OFFCURVE",
"230 328 OFFCURVE",
"230 386 CURVE",
"230 506 LINE",
"230 562 OFFCURVE",
"211 570 OFFCURVE",
"187 570 CURVE",
"179 570 LINE",
"179 322 LINE",
"187 322 LINE"
);
},
{
closed = 1;
nodes = (
"625 710 OFFCURVE",
"684 651 OFFCURVE",
"684 577 CURVE",
"684 172 LINE",
"604 172 LINE",
"604 199 LINE",
"597 199 LINE",
"586 176 OFFCURVE",
"559 164 OFFCURVE",
"537 164 CURVE",
"464 164 OFFCURVE",
"419 223 OFFCURVE",
"419 297 CURVE",
"419 371 LINE",
"419 444 OFFCURVE",
"478 504 OFFCURVE",
"551 504 CURVE",
"572 504 LINE",
"572 601 LINE",
"572 611 OFFCURVE",
"562 620 OFFCURVE",
"551 620 CURVE",
"540 620 OFFCURVE",
"531 611 OFFCURVE",
"531 601 CURVE",
"531 524 LINE",
"419 524 LINE",
"419 577 LINE",
"419 651 OFFCURVE",
"478 710 OFFCURVE",
"551 710 CURVE"
);
},
{
closed = 1;
nodes = (
"562 270 OFFCURVE",
"572 278 OFFCURVE",
"572 289 CURVE",
"572 390 LINE",
"551 390 LINE",
"540 390 OFFCURVE",
"531 382 OFFCURVE",
"531 370 CURVE",
"531 289 LINE",
"531 278 OFFCURVE",
"540 270 OFFCURVE",
"551 270 CURVE"
);
}
);
width = 714;
},
{
guideLines = (
{
position = "{544, 170}";
}
);
layerId = m002;
paths = (
{
closed = 1;
nodes = (
"380 351 OFFCURVE",
"366 288 OFFCURVE",
"318 244 CURVE",
"331 181 LINE SMOOTH",
"337 150 OFFCURVE",
"367 129 OFFCURVE",
"399 129 CURVE SMOOTH",
"684 129 LINE",
"684 0 LINE",
"375 0 LINE SMOOTH",
"290 0 OFFCURVE",
"217 59 OFFCURVE",
"199 142 CURVE SMOOTH",
"188 193 LINE",
"179 193 LINE",
"179 0 LINE",
"30 0 LINE",
"30 700 LINE",
"183 700 LINE",
"291 700 OFFCURVE",
"380 612 OFFCURVE",
"380 503 CURVE",
"380 386 LINE"
);
},
{
closed = 1;
nodes = (
"211 322 OFFCURVE",
"230 328 OFFCURVE",
"230 386 CURVE",
"230 506 LINE",
"230 562 OFFCURVE",
"211 570 OFFCURVE",
"187 570 CURVE",
"179 570 LINE",
"179 322 LINE",
"187 322 LINE"
);
},
{
closed = 1;
nodes = (
"625 710 OFFCURVE",
"684 651 OFFCURVE",
"684 577 CURVE",
"684 172 LINE",
"604 172 LINE",
"604 199 LINE",
"597 199 LINE",
"586 176 OFFCURVE",
"559 164 OFFCURVE",
"537 164 CURVE",
"464 164 OFFCURVE",
"419 223 OFFCURVE",
"419 297 CURVE",
"419 371 LINE",
"419 444 OFFCURVE",
"478 504 OFFCURVE",
"551 504 CURVE",
"572 504 LINE",
"572 601 LINE",
"572 611 OFFCURVE",
"562 620 OFFCURVE",
"551 620 CURVE",
"540 620 OFFCURVE",
"531 611 OFFCURVE",
"531 601 CURVE",
"531 524 LINE",
"419 524 LINE",
"419 577 LINE",
"419 651 OFFCURVE",
"478 710 OFFCURVE",
"551 710 CURVE"
);
},
{
closed = 1;
nodes = (
"562 270 OFFCURVE",
"572 278 OFFCURVE",
"572 289 CURVE",
"572 390 LINE",
"551 390 LINE",
"540 390 OFFCURVE",
"531 382 OFFCURVE",
"531 370 CURVE",
"531 289 LINE",
"531 278 OFFCURVE",
"540 270 OFFCURVE",
"551 270 CURVE"
);
}
);
width = 714;
}
);
leftKerningGroup = H;
leftMetricsKey = B;
rightKerningGroup = H;
rightMetricsKey = H;
},
{
glyphname = R_e;
lastChange = "2023-02-05 07:58:30 +0000";
layers = (
{
guideLines = (
{
position = "{544, 170}";
}
);
layerId = "96BCCF85-5232-4835-A4EF-A1D5F093B6B0";
paths = (
{
closed = 1;
nodes = (
"380 351 OFFCURVE",
"366 288 OFFCURVE",
"318 244 CURVE",
"331 181 LINE SMOOTH",
"337 150 OFFCURVE",
"367 129 OFFCURVE",
"399 129 CURVE SMOOTH",
"693 129 LINE",
"693 0 LINE",
"375 0 LINE SMOOTH",
"290 0 OFFCURVE",
"217 59 OFFCURVE",
"199 142 CURVE SMOOTH",
"188 193 LINE",
"179 193 LINE",
"179 0 LINE",
"30 0 LINE",
"30 700 LINE",
"183 700 LINE",
"291 700 OFFCURVE",
"380 612 OFFCURVE",
"380 503 CURVE",
"380 386 LINE"
);
},
{
closed = 1;
nodes = (
"211 322 OFFCURVE",
"230 328 OFFCURVE",
"230 386 CURVE",
"230 506 LINE",
"230 562 OFFCURVE",
"211 570 OFFCURVE",
"187 570 CURVE",
"179 570 LINE",
"179 322 LINE",
"187 322 LINE"
);
},
{
closed = 1;
nodes = (
"631 710 OFFCURVE",
"693 649 OFFCURVE",
"693 573 CURVE",
"693 404 LINE",
"535 404 LINE",
"535 282 LINE",
"535 271 OFFCURVE",
"543 261 OFFCURVE",
"555 261 CURVE",
"566 261 OFFCURVE",
"575 271 OFFCURVE",
"575 282 CURVE",
"575 364 LINE",
"693 364 LINE",
"693 289 LINE",
"689 217 OFFCURVE",
"628 160 OFFCURVE",
"555 160 CURVE",
"479 160 OFFCURVE",
"418 221 OFFCURVE",
"418 298 CURVE",
"418 573 LINE",
"418 649 OFFCURVE",
"479 710 OFFCURVE",
"555 710 CURVE"
);
},
{
closed = 1;
nodes = (
"575 588 LINE",
"575 599 OFFCURVE",
"566 608 OFFCURVE",
"555 608 CURVE",
"543 608 OFFCURVE",
"535 599 OFFCURVE",
"535 588 CURVE",
"535 507 LINE",
"575 507 LINE"
);
}
);
width = 723;
},
{
guideLines = (
{
position = "{544, 170}";
}
);
layerId = m002;
paths = (
{
closed = 1;
nodes = (
"380 351 OFFCURVE",
"366 288 OFFCURVE",
"318 244 CURVE",
"331 181 LINE SMOOTH",
"337 150 OFFCURVE",
"367 129 OFFCURVE",
"399 129 CURVE SMOOTH",
"693 129 LINE",
"693 0 LINE",
"375 0 LINE SMOOTH",
"290 0 OFFCURVE",
"217 59 OFFCURVE",
"199 142 CURVE SMOOTH",
"188 193 LINE",
"179 193 LINE",
"179 0 LINE",
"30 0 LINE",
"30 700 LINE",
"183 700 LINE",
"291 700 OFFCURVE",
"380 612 OFFCURVE",
"380 503 CURVE",
"380 386 LINE"
);
},
{
closed = 1;
nodes = (
"211 322 OFFCURVE",
"230 328 OFFCURVE",
"230 386 CURVE",
"230 506 LINE",
"230 562 OFFCURVE",
"211 570 OFFCURVE",
"187 570 CURVE",
"179 570 LINE",
"179 322 LINE",
"187 322 LINE"
);
},
{
closed = 1;
nodes = (
"631 710 OFFCURVE",
"693 649 OFFCURVE",
"693 573 CURVE",
"693 404 LINE",
"535 404 LINE",
"535 282 LINE",
"535 271 OFFCURVE",
"543 261 OFFCURVE",
"555 261 CURVE",
"566 261 OFFCURVE",
"575 271 OFFCURVE",
"575 282 CURVE",
"575 364 LINE",
"693 364 LINE",
"693 289 LINE",
"689 217 OFFCURVE",
"628 160 OFFCURVE",
"555 160 CURVE",
"479 160 OFFCURVE",
"418 221 OFFCURVE",
"418 298 CURVE",
"418 573 LINE",
"418 649 OFFCURVE",
"479 710 OFFCURVE",
"555 710 CURVE"
);
},
{
closed = 1;
nodes = (
"575 588 LINE",
"575 599 OFFCURVE",
"566 608 OFFCURVE",
"555 608 CURVE",
"543 608 OFFCURVE",
"535 599 OFFCURVE",
"535 588 CURVE",
"535 507 LINE",
"575 507 LINE"
);
}
);
width = 723;
}
);
leftKerningGroup = H;
leftMetricsKey = B;
rightKerningGroup = H;
},
{
glyphname = T_A;
lastChange = "2023-02-05 07:58:30 +0000";
layers = (
{
layerId = "96BCCF85-5232-4835-A4EF-A1D5F093B6B0";
paths = (
{
closed = 1;
nodes = (
"643 700 LINE",
"643 570 LINE",
"275 570 LINE",
"275 0 LINE",
"125 0 LINE",
"125 570 LINE",
"30 570 LINE",
"30 700 LINE"
);
},
{
closed = 1;
nodes = (
"501 97 LINE",
"456 97 LINE",
"444 0 LINE",
"315 0 LINE",
"395 530 LINE",
"563 530 LINE",
"643 0 LINE",
"515 0 LINE"
);
},
{
closed = 1;
nodes = (
"494 211 LINE",
"488 379 LINE",
"471 379 LINE",
"464 211 LINE"
);
}
);
width = 673;
},
{
layerId = m002;
paths = (
{
closed = 1;
nodes = (
"643 700 LINE",
"643 570 LINE",
"275 570 LINE",
"275 0 LINE",
"125 0 LINE",
"125 570 LINE",
"30 570 LINE",
"30 700 LINE"
);
},
{
closed = 1;
nodes = (
"501 97 LINE",
"456 97 LINE",
"444 0 LINE",
"315 0 LINE",
"395 530 LINE",
"563 530 LINE",
"643 0 LINE",
"515 0 LINE"
);
},
{
closed = 1;
nodes = (
"494 211 LINE",
"488 379 LINE",
"471 379 LINE",
"464 211 LINE"
);
}
);
width = 673;
}
);
leftKerningGroup = T;
rightKerningGroup = H;
},
{
glyphname = T_E;
lastChange = "2023-02-05 07:58:30 +0000";
layers = (
{
layerId = "96BCCF85-5232-4835-A4EF-A1D5F093B6B0";
paths = (
{
closed = 1;
nodes = (
"643 700 LINE",
"643 570 LINE",
"275 570 LINE",
"275 0 LINE",
"125 0 LINE",
"125 570 LINE",
"30 570 LINE",
"30 700 LINE"
);
},
{
closed = 1;
nodes = (
"427 410 LINE",
"427 325 LINE",
"609 325 LINE",
"609 205 LINE",
"427 205 LINE",
"427 120 LINE",
"643 120 LINE",
"643 0 LINE",
"315 0 LINE",
"315 530 LINE",
"643 530 LINE",
"643 410 LINE"
);
}
);
width = 673;
},
{
layerId = m002;
paths = (
{
closed = 1;
nodes = (
"643 700 LINE",
"643 570 LINE",
"275 570 LINE",
"275 0 LINE",
"125 0 LINE",
"125 570 LINE",
"30 570 LINE",
"30 700 LINE"
);
},
{
closed = 1;
nodes = (
"427 410 LINE",
"427 325 LINE",
"609 325 LINE",
"609 205 LINE",
"427 205 LINE",
"427 120 LINE",
"643 120 LINE",
"643 0 LINE",
"315 0 LINE",
"315 530 LINE",
"643 530 LINE",
"643 410 LINE"
);
}
);
width = 673;
}
);
leftKerningGroup = T;
rightKerningGroup = H;
rightMetricsKey = H;
},
{
glyphname = T_H;
lastChange = "2023-02-05 07:58:30 +0000";
layers = (
{
layerId = "96BCCF85-5232-4835-A4EF-A1D5F093B6B0";
paths = (
{
closed = 1;
nodes = (
"643 700 LINE",
"643 570 LINE",
"275 570 LINE",
"275 0 LINE",
"125 0 LINE",
"125 570 LINE",
"30 570 LINE",
"30 700 LINE"
);
},
{
closed = 1;
nodes = (
"643 530 LINE",
"643 0 LINE",
"513 0 LINE",
"513 189 LINE",
"447 189 LINE",
"447 0 LINE",
"317 0 LINE",
"317 530 LINE",
"447 530 LINE",
"447 341 LINE",
"513 341 LINE",
"513 530 LINE"
);
}
);
width = 673;
},
{
layerId = m002;
paths = (
{
closed = 1;
nodes = (
"643 700 LINE",
"643 570 LINE",
"275 570 LINE",
"275 0 LINE",
"125 0 LINE",
"125 570 LINE",
"30 570 LINE",
"30 700 LINE"
);
},
{
closed = 1;
nodes = (
"643 530 LINE",
"643 0 LINE",
"513 0 LINE",
"513 189 LINE",
"447 189 LINE",
"447 0 LINE",
"317 0 LINE",
"317 530 LINE",
"447 530 LINE",
"447 341 LINE",
"513 341 LINE",
"513 530 LINE"
);
}
);
width = 673;
}
);
leftKerningGroup = T;
rightKerningGroup = H;
rightMetricsKey = H;
},
{
glyphname = T_I;
lastChange = "2023-02-05 07:58:30 +0000";
layers = (
{
layerId = "96BCCF85-5232-4835-A4EF-A1D5F093B6B0";
paths = (
{
closed = 1;
nodes = (
"643 700 LINE",
"643 570 LINE",
"275 570 LINE",
"275 0 LINE",
"125 0 LINE",
"125 570 LINE",
"30 570 LINE",
"30 700 LINE"
);
},
{
closed = 1;
nodes = (
"643 530 LINE",
"643 430 LINE",
"539 430 LINE",
"539 120 LINE",
"643 120 LINE",
"643 0 LINE",
"315 0 LINE",
"315 120 LINE",
"418 120 LINE",
"418 430 LINE",
"315 430 LINE",
"315 530 LINE"
);
}
);
width = 673;
},
{
layerId = m002;
paths = (
{
closed = 1;
nodes = (
"643 700 LINE",
"643 570 LINE",
"275 570 LINE",
"275 0 LINE",
"125 0 LINE",
"125 570 LINE",
"30 570 LINE",
"30 700 LINE"
);
},
{
closed = 1;
nodes = (
"643 530 LINE",
"643 430 LINE",
"539 430 LINE",
"539 120 LINE",
"643 120 LINE",
"643 0 LINE",
"315 0 LINE",
"315 120 LINE",
"418 120 LINE",
"418 430 LINE",
"315 430 LINE",
"315 530 LINE"
);
}
);
width = 673;
}
);
leftKerningGroup = T;
rightKerningGroup = H;
rightMetricsKey = H;
},
{
glyphname = T_O;
lastChange = "2023-02-05 07:58:30 +0000";
layers = (
{
layerId = "96BCCF85-5232-4835-A4EF-A1D5F093B6B0";
paths = (
{
closed = 1;
nodes = (
"644 700 LINE",
"644 570 LINE",
"275 570 LINE",
"275 0 LINE",
"125 0 LINE",
"125 570 LINE",
"30 570 LINE",
"30 700 LINE"
);
},
{
closed = 1;
nodes = (
"570 540 OFFCURVE",
"644 466 OFFCURVE",
"644 376 CURVE",
"644 154 LINE",
"644 63 OFFCURVE",
"570 -10 OFFCURVE",
"480 -10 CURVE",
"389 -10 OFFCURVE",
"316 63 OFFCURVE",
"316 154 CURVE",
"316 376 LINE",
"316 466 OFFCURVE",
"389 540 OFFCURVE",
"480 540 CURVE"
);
},
{
closed = 1;
nodes = (
"504 384 LINE",
"504 397 OFFCURVE",
"494 408 OFFCURVE",
"480 408 CURVE",
"466 408 OFFCURVE",
"456 397 OFFCURVE",
"456 384 CURVE",
"456 143 LINE",
"456 130 OFFCURVE",
"466 120 OFFCURVE",
"480 120 CURVE",
"494 120 OFFCURVE",
"504 130 OFFCURVE",
"504 143 CURVE"
);
}
);
width = 674;
},
{
layerId = m002;
paths = (
{
closed = 1;
nodes = (
"644 700 LINE",
"644 570 LINE",
"275 570 LINE",
"275 0 LINE",
"125 0 LINE",
"125 570 LINE",
"30 570 LINE",
"30 700 LINE"
);
},
{
closed = 1;
nodes = (
"570 540 OFFCURVE",
"644 466 OFFCURVE",
"644 376 CURVE",
"644 154 LINE",
"644 63 OFFCURVE",
"570 -10 OFFCURVE",
"480 -10 CURVE",
"389 -10 OFFCURVE",
"316 63 OFFCURVE",
"316 154 CURVE",
"316 376 LINE",
"316 466 OFFCURVE",
"389 540 OFFCURVE",
"480 540 CURVE"
);
},
{
closed = 1;
nodes = (
"504 384 LINE",
"504 397 OFFCURVE",
"494 408 OFFCURVE",
"480 408 CURVE",
"466 408 OFFCURVE",
"456 397 OFFCURVE",
"456 384 CURVE",
"456 143 LINE",
"456 130 OFFCURVE",
"466 120 OFFCURVE",
"480 120 CURVE",
"494 120 OFFCURVE",
"504 130 OFFCURVE",
"504 143 CURVE"
);
}
);
width = 674;
}
);
leftKerningGroup = T;
rightKerningGroup = H;
},
{
glyphname = T_U;
lastChange = "2023-02-05 07:58:30 +0000";
layers = (
{
layerId = "96BCCF85-5232-4835-A4EF-A1D5F093B6B0";
paths = (
{
closed = 1;
nodes = (
"644 700 LINE",
"644 570 LINE",
"275 570 LINE",
"275 0 LINE",
"125 0 LINE",
"125 570 LINE",
"30 570 LINE",
"30 700 LINE"
);
},
{
closed = 1;
nodes = (
"644 530 LINE",
"644 154 LINE",
"644 63 OFFCURVE",
"571 -10 OFFCURVE",
"480 -10 CURVE",
"389 -10 OFFCURVE",
"315 63 OFFCURVE",
"315 154 CURVE",
"315 530 LINE",
"455 530 LINE",
"455 145 LINE",
"455 131 OFFCURVE",
"467 120 OFFCURVE",
"480 120 CURVE",
"494 120 OFFCURVE",
"505 131 OFFCURVE",
"505 145 CURVE",
"505 530 LINE"
);
}
);
width = 674;
},
{
layerId = m002;
paths = (
{
closed = 1;
nodes = (
"644 700 LINE",
"644 570 LINE",
"275 570 LINE",
"275 0 LINE",
"125 0 LINE",
"125 570 LINE",
"30 570 LINE",
"30 700 LINE"
);
},
{
closed = 1;
nodes = (
"644 530 LINE",
"644 154 LINE",
"644 63 OFFCURVE",
"571 -10 OFFCURVE",
"480 -10 CURVE",
"389 -10 OFFCURVE",
"315 63 OFFCURVE",
"315 154 CURVE",
"315 530 LINE",
"455 530 LINE",
"455 145 LINE",
"455 131 OFFCURVE",
"467 120 OFFCURVE",
"480 120 CURVE",
"494 120 OFFCURVE",
"505 131 OFFCURVE",
"505 145 CURVE",
"505 530 LINE"
);
}
);
width = 674;
}
);
leftKerningGroup = T;
rightKerningGroup = H;
rightMetricsKey = H;
},
{
glyphname = U_A;
lastChange = "2023-02-05 07:58:30 +0000";
layers = (
{
layerId = "96BCCF85-5232-4835-A4EF-A1D5F093B6B0";
paths = (
{
closed = 1;
nodes = (
"380 453 LINE",
"380 311 LINE",
"439 311 LINE"
);
},
{
closed = 1;
nodes = (
"567 0 LINE",
"493 180 LINE",
"380 180 LINE",
"380 165 LINE",
"380 68 OFFCURVE",
"302 -10 OFFCURVE",
"205 -10 CURVE",
"108 -10 OFFCURVE",
"30 68 OFFCURVE",
"30 165 CURVE",
"30 700 LINE",
"179 700 LINE",
"179 156 LINE",
"179 141 OFFCURVE",
"191 129 OFFCURVE",
"205 129 CURVE",
"220 129 OFFCURVE",
"232 141 OFFCURVE",
"232 156 CURVE",
"232 700 LINE",
"410 700 LINE",
"716 0 LINE"
);
}
);
width = 746;
},
{
layerId = m002;
paths = (
{
closed = 1;
nodes = (
"380 453 LINE",
"380 311 LINE",
"439 311 LINE"
);
},
{
closed = 1;
nodes = (
"567 0 LINE",
"493 180 LINE",
"380 180 LINE",
"380 165 LINE",
"380 68 OFFCURVE",
"302 -10 OFFCURVE",
"205 -10 CURVE",
"108 -10 OFFCURVE",
"30 68 OFFCURVE",
"30 165 CURVE",
"30 700 LINE",
"179 700 LINE",
"179 156 LINE",
"179 141 OFFCURVE",
"191 129 OFFCURVE",
"205 129 CURVE",
"220 129 OFFCURVE",
"232 141 OFFCURVE",
"232 156 CURVE",
"232 700 LINE",
"410 700 LINE",
"716 0 LINE"
);
}
);
width = 746;
}
);
leftKerningGroup = u;
rightKerningGroup = A;
},
{
glyphname = U_M;
lastChange = "2023-02-05 07:58:30 +0000";
layers = (
{
layerId = "96BCCF85-5232-4835-A4EF-A1D5F093B6B0";
paths = (
{
closed = 1;
nodes = (
"515 700 LINE",
"472 389 LINE",
"466 389 LINE",
"421 700 LINE",
"232 700 LINE",
"232 156 LINE",
"232 141 OFFCURVE",
"220 129 OFFCURVE",
"205 129 CURVE",
"191 129 OFFCURVE",
"179 141 OFFCURVE",
"179 156 CURVE",
"179 700 LINE",
"30 700 LINE",
"30 165 LINE",
"30 68 OFFCURVE",
"108 -10 OFFCURVE",
"205 -10 CURVE",
"302 -10 OFFCURVE",
"380 68 OFFCURVE",
"380 165 CURVE",
"380 311 LINE",
"386 311 LINE",
"425 0 LINE",
"512 0 LINE",
"551 311 LINE",
"557 311 LINE",
"557 0 LINE",
"687 0 LINE",
"687 700 LINE"
);
}
);
width = 717;
},
{
layerId = m002;
paths = (
{
closed = 1;
nodes = (
"515 700 LINE",
"472 389 LINE",
"466 389 LINE",
"421 700 LINE",
"232 700 LINE",
"232 156 LINE",
"232 141 OFFCURVE",
"220 129 OFFCURVE",
"205 129 CURVE",
"191 129 OFFCURVE",
"179 141 OFFCURVE",
"179 156 CURVE",
"179 700 LINE",
"30 700 LINE",
"30 165 LINE",
"30 68 OFFCURVE",
"108 -10 OFFCURVE",
"205 -10 CURVE",
"302 -10 OFFCURVE",
"380 68 OFFCURVE",
"380 165 CURVE",
"380 311 LINE",
"386 311 LINE",
"425 0 LINE",
"512 0 LINE",
"551 311 LINE",
"557 311 LINE",
"557 0 LINE",
"687 0 LINE",
"687 700 LINE"
);
}
);
width = 717;
}
);
leftKerningGroup = u;
rightKerningGroup = H;
rightMetricsKey = H;
},
{
glyphname = U_N;
lastChange = "2023-02-05 07:58:30 +0000";
layers = (
{
layerId = "96BCCF85-5232-4835-A4EF-A1D5F093B6B0";
paths = (
{
closed = 1;
nodes = (
"480 700 LINE",
"480 425 LINE",
"465 425 LINE",
"380 700 LINE",
"232 700 LINE",
"232 156 LINE",
"232 141 OFFCURVE",
"220 129 OFFCURVE",
"205 129 CURVE",
"191 129 OFFCURVE",
"179 141 OFFCURVE",
"179 156 CURVE",
"179 700 LINE",
"30 700 LINE",
"30 165 LINE",
"30 68 OFFCURVE",
"108 -10 OFFCURVE",
"205 -10 CURVE",
"302 -10 OFFCURVE",
"380 68 OFFCURVE",
"380 165 CURVE",
"380 275 LINE",
"395 275 LINE",
"490 0 LINE",
"610 0 LINE",
"610 700 LINE"
);
}
);
width = 640;
},
{
layerId = m002;
paths = (
{
closed = 1;
nodes = (
"480 700 LINE",
"480 425 LINE",
"465 425 LINE",
"380 700 LINE",
"232 700 LINE",
"232 156 LINE",
"232 141 OFFCURVE",
"220 129 OFFCURVE",
"205 129 CURVE",
"191 129 OFFCURVE",
"179 141 OFFCURVE",
"179 156 CURVE",
"179 700 LINE",
"30 700 LINE",
"30 165 LINE",
"30 68 OFFCURVE",
"108 -10 OFFCURVE",
"205 -10 CURVE",
"302 -10 OFFCURVE",
"380 68 OFFCURVE",
"380 165 CURVE",
"380 275 LINE",
"395 275 LINE",
"490 0 LINE",
"610 0 LINE",
"610 700 LINE"
);
}
);
width = 640;
}
);
leftKerningGroup = u;
rightKerningGroup = H;
rightMetricsKey = H;
},
{
glyphname = Uacute_A;
lastChange = "2023-02-11 08:19:43 +0000";
layers = (
{
components = (
{
name = acutecomb;
transform = "{1, 0, 0, 1, 177, -20}";
}
);
guideLines = (
{
angle = 90;
position = "{745, 500}";
}
);
layerId = "96BCCF85-5232-4835-A4EF-A1D5F093B6B0";
paths = (
{
closed = 1;
nodes = (
"766 500 LINE",
"745 500 LINE",
"728 279 LINE",
"782 279 LINE"
);
},
{
closed = 1;
nodes = (
"797 0 LINE",
"787 129 LINE",
"659 129 LINE",
"595 45 OFFCURVE",
"494 -10 OFFCURVE",
"380 -10 CURVE",
"187 -10 OFFCURVE",
"30 147 OFFCURVE",
"30 340 CURVE",
"30 700 LINE",
"180 700 LINE",
"180 340 LINE",
"180 228 OFFCURVE",
"269 140 OFFCURVE",
"380 140 CURVE",
"490 140 OFFCURVE",
"581 228 OFFCURVE",
"581 340 CURVE",
"581 700 LINE",
"861 700 LINE",
"946 0 LINE"
);
}
);
width = 976;
},
{
components = (
{
name = acutecomb;
transform = "{1, 0, 0, 1, 330, 0}";
}
);
layerId = m002;
paths = (
{
closed = 1;
nodes = (
"766 500 LINE",
"745 500 LINE",
"728 279 LINE",
"782 279 LINE"
);
},
{
closed = 1;
nodes = (
"797 0 LINE",
"787 129 LINE",
"659 129 LINE",
"595 45 OFFCURVE",
"494 -10 OFFCURVE",
"380 -10 CURVE",
"187 -10 OFFCURVE",
"30 147 OFFCURVE",
"30 340 CURVE",
"30 700 LINE",
"180 700 LINE",
"180 340 LINE",
"180 228 OFFCURVE",
"269 140 OFFCURVE",
"380 140 CURVE",
"490 140 OFFCURVE",
"581 228 OFFCURVE",
"581 340 CURVE",
"581 700 LINE",
"861 700 LINE",
"946 0 LINE"
);
}
);
width = 976;
}
);
leftKerningGroup = U;
rightKerningGroup = a;
},
{
glyphname = Ugrave_A;
lastChange = "2023-02-11 08:19:47 +0000";
layers = (
{
components = (
{
name = gravecomb;
transform = "{1, 0, 0, 1, 176, -20}";
}
);
layerId = "96BCCF85-5232-4835-A4EF-A1D5F093B6B0";
paths = (
{
closed = 1;
nodes = (
"766 500 LINE",
"745 500 LINE",
"728 279 LINE",
"782 279 LINE"
);
},
{
closed = 1;
nodes = (
"797 0 LINE",
"787 129 LINE",
"659 129 LINE",
"595 45 OFFCURVE",
"494 -10 OFFCURVE",
"380 -10 CURVE",
"187 -10 OFFCURVE",
"30 147 OFFCURVE",
"30 340 CURVE",
"30 700 LINE",
"180 700 LINE",
"180 340 LINE",
"180 228 OFFCURVE",
"269 140 OFFCURVE",
"380 140 CURVE",
"490 140 OFFCURVE",
"581 228 OFFCURVE",
"581 340 CURVE",
"581 700 LINE",
"861 700 LINE",
"946 0 LINE"
);
}
);
width = 976;
},
{
components = (
{
name = gravecomb;
transform = "{1, 0, 0, 1, 272, 0}";
}
);
layerId = m002;
paths = (
{
closed = 1;
nodes = (
"766 500 LINE",
"745 500 LINE",
"728 279 LINE",
"782 279 LINE"
);
},
{
closed = 1;
nodes = (
"797 0 LINE",
"787 129 LINE",
"659 129 LINE",
"595 45 OFFCURVE",
"494 -10 OFFCURVE",
"380 -10 CURVE",
"187 -10 OFFCURVE",
"30 147 OFFCURVE",
"30 340 CURVE",
"30 700 LINE",
"180 700 LINE",
"180 340 LINE",
"180 228 OFFCURVE",
"269 140 OFFCURVE",
"380 140 CURVE",
"490 140 OFFCURVE",
"581 228 OFFCURVE",
"581 340 CURVE",
"581 700 LINE",
"861 700 LINE",
"946 0 LINE"
);
}
);
width = 976;
}
);
leftKerningGroup = U;
rightKerningGroup = a;
},
{
glyphname = Uhookabove_A;
lastChange = "2023-02-11 08:19:53 +0000";
layers = (
{
components = (
{
name = hookabovecomb;
transform = "{1, 0, 0, 1, 271, -60}";
}
);
layerId = "96BCCF85-5232-4835-A4EF-A1D5F093B6B0";
paths = (
{
closed = 1;
nodes = (
"766 500 LINE",
"745 500 LINE",
"728 279 LINE",
"782 279 LINE"
);
},
{
closed = 1;
nodes = (
"797 0 LINE",
"787 129 LINE",
"659 129 LINE",
"595 45 OFFCURVE",
"494 -10 OFFCURVE",
"380 -10 CURVE",
"187 -10 OFFCURVE",
"30 147 OFFCURVE",
"30 340 CURVE",
"30 700 LINE",
"180 700 LINE",
"180 340 LINE",
"180 228 OFFCURVE",
"269 140 OFFCURVE",
"380 140 CURVE",
"490 140 OFFCURVE",
"581 228 OFFCURVE",
"581 340 CURVE",
"581 700 LINE",
"861 700 LINE",
"946 0 LINE"
);
}
);
width = 976;
},
{
components = (
{
name = hookabovecomb;
transform = "{1, 0, 0, 1, 279, -30}";
}
);
layerId = m002;
paths = (
{
closed = 1;
nodes = (
"766 500 LINE",
"745 500 LINE",
"728 279 LINE",
"782 279 LINE"
);
},
{
closed = 1;
nodes = (
"797 0 LINE",
"787 129 LINE",
"659 129 LINE",
"595 45 OFFCURVE",
"494 -10 OFFCURVE",
"380 -10 CURVE",
"187 -10 OFFCURVE",
"30 147 OFFCURVE",
"30 340 CURVE",
"30 700 LINE",
"180 700 LINE",
"180 340 LINE",
"180 228 OFFCURVE",
"269 140 OFFCURVE",
"380 140 CURVE",
"490 140 OFFCURVE",
"581 228 OFFCURVE",
"581 340 CURVE",
"581 700 LINE",
"861 700 LINE",
"946 0 LINE"
);
}
);
width = 976;
}
);
leftKerningGroup = U;
rightKerningGroup = a;
},
{
glyphname = Utilde_A;
lastChange = "2023-02-11 08:19:56 +0000";
layers = (
{
components = (
{
name = tildecomb;
transform = "{1, 0, 0, 1, 167, -40}";
}
);
layerId = "96BCCF85-5232-4835-A4EF-A1D5F093B6B0";
paths = (
{
closed = 1;
nodes = (
"766 500 LINE",
"745 500 LINE",
"728 279 LINE",
"782 279 LINE"
);
},
{
closed = 1;
nodes = (
"797 0 LINE",
"787 129 LINE",
"659 129 LINE",
"595 45 OFFCURVE",
"494 -10 OFFCURVE",
"380 -10 CURVE",
"187 -10 OFFCURVE",
"30 147 OFFCURVE",
"30 340 CURVE",
"30 700 LINE",
"180 700 LINE",
"180 340 LINE",
"180 228 OFFCURVE",
"269 140 OFFCURVE",
"380 140 CURVE",
"490 140 OFFCURVE",
"581 228 OFFCURVE",
"581 340 CURVE",
"581 700 LINE",
"861 700 LINE",
"946 0 LINE"
);
}
);
width = 976;
},
{
components = (
{
name = tildecomb;
transform = "{1, 0, 0, 1, 160, -28}";
}
);
layerId = m002;
paths = (
{
closed = 1;
nodes = (
"766 500 LINE",
"745 500 LINE",
"728 279 LINE",
"782 279 LINE"
);
},
{
closed = 1;
nodes = (
"797 0 LINE",
"787 129 LINE",
"659 129 LINE",
"595 45 OFFCURVE",
"494 -10 OFFCURVE",
"380 -10 CURVE",
"187 -10 OFFCURVE",
"30 147 OFFCURVE",
"30 340 CURVE",
"30 700 LINE",
"180 700 LINE",
"180 340 LINE",
"180 228 OFFCURVE",
"269 140 OFFCURVE",
"380 140 CURVE",
"490 140 OFFCURVE",
"581 228 OFFCURVE",
"581 340 CURVE",
"581 700 LINE",
"861 700 LINE",
"946 0 LINE"
);
}
);
width = 976;
}
);
leftKerningGroup = U;
rightKerningGroup = a;
},
{
glyphname = O_O.001;
lastChange = "2023-02-05 07:58:30 +0000";
layers = (
{
guideLines = (
{
angle = 90;
position = "{477, 797}";
},
{
position = "{544, 170}";
}
);
layerId = "96BCCF85-5232-4835-A4EF-A1D5F093B6B0";
paths = (
{
closed = 1;
nodes = (
"480 558 OFFCURVE",
"469 570 OFFCURVE",
"455 570 CURVE",
"440 570 OFFCURVE",
"429 558 OFFCURVE",
"429 544 CURVE",
"429 154 LINE",
"429 140 OFFCURVE",
"440 129 OFFCURVE",
"455 129 CURVE",
"469 129 OFFCURVE",
"480 140 OFFCURVE",
"480 154 CURVE",
"480 544 LINE"
);
},
{
closed = 1;
nodes = (
"230 568 OFFCURVE",
"219 580 OFFCURVE",
"205 580 CURVE",
"190 580 OFFCURVE",
"179 568 OFFCURVE",
"179 554 CURVE",
"179 147 LINE",
"179 133 OFFCURVE",
"190 122 OFFCURVE",
"205 122 CURVE",
"219 122 OFFCURVE",
"230 133 OFFCURVE",
"230 147 CURVE",
"230 554 LINE"
);
},
{
closed = 1;
nodes = (
"551 710 OFFCURVE",
"630 632 OFFCURVE",
"630 535 CURVE",
"630 165 LINE",
"630 68 OFFCURVE",
"551 -10 OFFCURVE",
"455 -10 CURVE",
"406 -10 OFFCURVE",
"362 10 OFFCURVE",
"330 42 CURVE",
"298 10 OFFCURVE",
"254 -10 OFFCURVE",
"205 -10 CURVE",
"108 -10 OFFCURVE",
"30 68 OFFCURVE",
"30 165 CURVE",
"30 535 LINE",
"30 632 OFFCURVE",
"108 710 OFFCURVE",
"205 710 CURVE",
"254 710 OFFCURVE",
"298 690 OFFCURVE",
"330 658 CURVE",
"362 690 OFFCURVE",
"406 710 OFFCURVE",
"455 710 CURVE"
);
}
);
width = 660;
},
{
guideLines = (
{
angle = 90;
position = "{477, 797}";
},
{
position = "{544, 170}";
}
);
layerId = m002;
paths = (
{
closed = 1;
nodes = (
"480 558 OFFCURVE",
"469 570 OFFCURVE",
"455 570 CURVE",
"440 570 OFFCURVE",
"429 558 OFFCURVE",
"429 544 CURVE",
"429 154 LINE",
"429 140 OFFCURVE",
"440 129 OFFCURVE",
"455 129 CURVE",
"469 129 OFFCURVE",
"480 140 OFFCURVE",
"480 154 CURVE",
"480 544 LINE"
);
},
{
closed = 1;
nodes = (
"230 568 OFFCURVE",
"219 580 OFFCURVE",
"205 580 CURVE",
"190 580 OFFCURVE",
"179 568 OFFCURVE",
"179 554 CURVE",
"179 147 LINE",
"179 133 OFFCURVE",
"190 122 OFFCURVE",
"205 122 CURVE",
"219 122 OFFCURVE",
"230 133 OFFCURVE",
"230 147 CURVE",
"230 554 LINE"
);
},
{
closed = 1;
nodes = (
"551 710 OFFCURVE",
"630 632 OFFCURVE",
"630 535 CURVE",
"630 165 LINE",
"630 68 OFFCURVE",
"551 -10 OFFCURVE",
"455 -10 CURVE",
"406 -10 OFFCURVE",
"362 10 OFFCURVE",
"330 42 CURVE",
"298 10 OFFCURVE",
"254 -10 OFFCURVE",
"205 -10 CURVE",
"108 -10 OFFCURVE",
"30 68 OFFCURVE",
"30 165 CURVE",
"30 535 LINE",
"30 632 OFFCURVE",
"108 710 OFFCURVE",
"205 710 CURVE",
"254 710 OFFCURVE",
"298 690 OFFCURVE",
"330 658 CURVE",
"362 690 OFFCURVE",
"406 710 OFFCURVE",
"455 710 CURVE"
);
}
);
width = 660;
}
);
leftKerningGroup = o;
rightKerningGroup = o;
},
{
glyphname = U_A.001;
lastChange = "2023-02-05 07:58:30 +0000";
layers = (
{
layerId = "96BCCF85-5232-4835-A4EF-A1D5F093B6B0";
paths = (
{
closed = 1;
nodes = (
"398 500 LINE",
"385 500 LINE",
"380 279 LINE",
"402 279 LINE"
);
},
{
closed = 1;
nodes = (
"417 0 LINE",
"407 129 LINE",
"376 129 LINE",
"360 49 OFFCURVE",
"290 -10 OFFCURVE",
"205 -10 CURVE",
"108 -10 OFFCURVE",
"30 68 OFFCURVE",
"30 165 CURVE",
"30 700 LINE",
"179 700 LINE",
"179 156 LINE",
"179 141 OFFCURVE",
"191 129 OFFCURVE",
"205 129 CURVE",
"220 129 OFFCURVE",
"232 141 OFFCURVE",
"232 156 CURVE",
"232 700 LINE",
"481 700 LINE",
"566 0 LINE"
);
}
);
width = 596;
},
{
layerId = m002;
paths = (
{
closed = 1;
nodes = (
"398 500 LINE",
"385 500 LINE",
"380 279 LINE",
"402 279 LINE"
);
},
{
closed = 1;
nodes = (
"417 0 LINE",
"407 129 LINE",
"376 129 LINE",
"360 49 OFFCURVE",
"290 -10 OFFCURVE",
"205 -10 CURVE",
"108 -10 OFFCURVE",
"30 68 OFFCURVE",
"30 165 CURVE",
"30 700 LINE",
"179 700 LINE",
"179 156 LINE",
"179 141 OFFCURVE",
"191 129 OFFCURVE",
"205 129 CURVE",
"220 129 OFFCURVE",
"232 141 OFFCURVE",
"232 156 CURVE",
"232 700 LINE",
"481 700 LINE",
"566 0 LINE"
);
}
);
width = 596;
}
);
},
{
glyphname = a;
lastChange = "2023-02-16 17:04:27 +0000";
layers = (
{
guideLines = (
{
position = "{559, 175}";
},
{
position = "{233, 35}";
}
);
layerId = "96BCCF85-5232-4835-A4EF-A1D5F093B6B0";
paths = (
{
closed = 1;
nodes = (
"216 -10 OFFCURVE",
"251 5 OFFCURVE",
"265 35 CURVE",
"275 35 LINE",
"275 0 LINE",
"380 0 LINE",
"380 535 LINE",
"380 632 OFFCURVE",
"302 710 OFFCURVE",
"205 710 CURVE",
"108 710 OFFCURVE",
"30 632 OFFCURVE",
"30 535 CURVE",
"30 464 LINE",
"179 464 LINE",
"179 566 LINE",
"179 580 OFFCURVE",
"191 592 OFFCURVE",
"205 592 CURVE",
"220 592 OFFCURVE",
"232 580 OFFCURVE",
"232 566 CURVE",
"232 438 LINE",
"205 438 LINE",
"108 438 OFFCURVE",
"30 359 OFFCURVE",
"30 263 CURVE",
"30 165 LINE",
"30 68 OFFCURVE",
"90 -10 OFFCURVE",
"187 -10 CURVE"
);
},
{
closed = 1;
nodes = (
"191 129 OFFCURVE",
"179 140 OFFCURVE",
"179 155 CURVE",
"179 272 LINE",
"179 287 OFFCURVE",
"191 298 OFFCURVE",
"205 298 CURVE",
"232 298 LINE",
"232 155 LINE",
"232 140 OFFCURVE",
"220 129 OFFCURVE",
"205 129 CURVE"
);
}
);
width = 410;
},
{
guideLines = (
{
position = "{559, 175}";
},
{
position = "{233, 35}";
}
);
layerId = m002;
paths = (
{
closed = 1;
nodes = (
"216 -10 OFFCURVE",
"251 5 OFFCURVE",
"265 35 CURVE",
"275 35 LINE",
"275 0 LINE",
"380 0 LINE",
"380 535 LINE",
"380 632 OFFCURVE",
"302 710 OFFCURVE",
"205 710 CURVE",
"108 710 OFFCURVE",
"30 632 OFFCURVE",
"30 535 CURVE",
"30 464 LINE",
"179 464 LINE",
"179 566 LINE",
"179 580 OFFCURVE",
"191 592 OFFCURVE",
"205 592 CURVE",
"220 592 OFFCURVE",
"232 580 OFFCURVE",
"232 566 CURVE",
"232 438 LINE",
"205 438 LINE",
"108 438 OFFCURVE",
"30 359 OFFCURVE",
"30 263 CURVE",
"30 165 LINE",
"30 68 OFFCURVE",
"90 -10 OFFCURVE",
"187 -10 CURVE"
);
},
{
closed = 1;
nodes = (
"191 129 OFFCURVE",
"179 140 OFFCURVE",
"179 155 CURVE",
"179 262 LINE",
"179 277 OFFCURVE",
"191 288 OFFCURVE",
"205 288 CURVE",
"232 288 LINE",
"232 155 LINE",
"232 140 OFFCURVE",
"220 129 OFFCURVE",
"205 129 CURVE"
);
}
);
width = 410;
}
);
leftKerningGroup = o;
rightKerningGroup = G;
unicode = 0061;
},
{
glyphname = ae;
lastChange = "2023-02-05 07:58:30 +0000";
layers = (
{
components = (
{
alignment = -1;
name = e;
transform = "{1, 0, 0, 1, 202, 0}";
}
);
layerId = "96BCCF85-5232-4835-A4EF-A1D5F093B6B0";
paths = (
{
closed = 1;
nodes = (
"216 -10 OFFCURVE",
"251 5 OFFCURVE",
"265 35 CURVE",
"380 35 LINE",
"380 535 LINE",
"380 632 OFFCURVE",
"302 710 OFFCURVE",
"205 710 CURVE",
"108 710 OFFCURVE",
"30 632 OFFCURVE",
"30 535 CURVE",
"30 464 LINE",
"179 464 LINE",
"179 566 LINE",
"179 580 OFFCURVE",
"191 592 OFFCURVE",
"205 592 CURVE",
"220 592 OFFCURVE",
"232 580 OFFCURVE",
"232 566 CURVE",
"232 438 LINE",
"205 438 LINE",
"108 438 OFFCURVE",
"30 359 OFFCURVE",
"30 263 CURVE",
"30 165 LINE",
"30 68 OFFCURVE",
"90 -10 OFFCURVE",
"187 -10 CURVE"
);
},
{
closed = 1;
nodes = (
"191 129 OFFCURVE",
"179 140 OFFCURVE",
"179 155 CURVE",
"179 262 LINE",
"179 277 OFFCURVE",
"191 288 OFFCURVE",
"205 288 CURVE",
"232 288 LINE",
"232 155 LINE",
"232 140 OFFCURVE",
"220 129 OFFCURVE",
"205 129 CURVE"
);
}
);
width = 612;
},
{
components = (
{
alignment = -1;
name = e;
transform = "{1, 0, 0, 1, 202, 0}";
}
);
layerId = m002;
paths = (
{
closed = 1;
nodes = (
"216 -10 OFFCURVE",
"251 5 OFFCURVE",
"265 35 CURVE",
"380 35 LINE",
"380 535 LINE",
"380 632 OFFCURVE",
"302 710 OFFCURVE",
"205 710 CURVE",
"108 710 OFFCURVE",
"30 632 OFFCURVE",
"30 535 CURVE",
"30 464 LINE",
"179 464 LINE",
"179 566 LINE",
"179 580 OFFCURVE",
"191 592 OFFCURVE",
"205 592 CURVE",
"220 592 OFFCURVE",
"232 580 OFFCURVE",
"232 566 CURVE",
"232 438 LINE",
"205 438 LINE",
"108 438 OFFCURVE",
"30 359 OFFCURVE",
"30 263 CURVE",
"30 165 LINE",
"30 68 OFFCURVE",
"90 -10 OFFCURVE",
"187 -10 CURVE"
);
},
{
closed = 1;
nodes = (
"191 129 OFFCURVE",
"179 140 OFFCURVE",
"179 155 CURVE",
"179 262 LINE",
"179 277 OFFCURVE",
"191 288 OFFCURVE",
"205 288 CURVE",
"232 288 LINE",
"232 155 LINE",
"232 140 OFFCURVE",
"220 129 OFFCURVE",
"205 129 CURVE"
);
}
);
width = 612;
}
);
leftKerningGroup = o;
rightKerningGroup = o;
unicode = 00E6;
},
{
glyphname = b;
lastChange = "2023-02-16 17:06:56 +0000";
layers = (
{
layerId = "96BCCF85-5232-4835-A4EF-A1D5F093B6B0";
paths = (
{
closed = 1;
nodes = (
"205 0 LINE",
"302 0 OFFCURVE",
"380 78 OFFCURVE",
"380 175 CURVE",
"380 263 LINE",
"380 313 OFFCURVE",
"345 368 OFFCURVE",
"290 389 CURVE",
"290 399 LINE",
"345 414 OFFCURVE",
"380 478 OFFCURVE",
"380 530 CURVE",
"380 627 OFFCURVE",
"302 700 OFFCURVE",
"205 700 CURVE",
"30 700 LINE",
"30 0 LINE"
);
},
{
closed = 1;
nodes = (
"179 311 LINE",
"186 311 LINE",
"210 311 OFFCURVE",
"230 281 OFFCURVE",
"230 243 CURVE",
"230 197 LINE",
"230 159 OFFCURVE",
"210 129 OFFCURVE",
"186 129 CURVE",
"179 129 LINE"
);
},
{
closed = 1;
nodes = (
"179 570 LINE",
"191 570 LINE",
"212 570 OFFCURVE",
"230 550 OFFCURVE",
"230 525 CURVE",
"230 500 OFFCURVE",
"212 481 OFFCURVE",
"191 481 CURVE",
"179 481 LINE"
);
}
);
width = 410;
},
{
layerId = m002;
paths = (
{
closed = 1;
nodes = (
"205 0 LINE",
"302 0 OFFCURVE",
"380 78 OFFCURVE",
"380 175 CURVE",
"380 263 LINE",
"380 313 OFFCURVE",
"345 368 OFFCURVE",
"290 389 CURVE",
"290 399 LINE",
"345 414 OFFCURVE",
"380 478 OFFCURVE",
"380 530 CURVE",
"380 627 OFFCURVE",
"302 700 OFFCURVE",
"205 700 CURVE",
"30 700 LINE",
"30 0 LINE"
);
},
{
closed = 1;
nodes = (
"179 311 LINE",
"186 311 LINE",
"210 311 OFFCURVE",
"230 281 OFFCURVE",
"230 243 CURVE",
"230 197 LINE",
"230 159 OFFCURVE",
"210 129 OFFCURVE",
"186 129 CURVE",
"179 129 LINE"
);
},
{
closed = 1;
nodes = (
"179 570 LINE",
"191 570 LINE",
"212 570 OFFCURVE",
"230 550 OFFCURVE",
"230 525 CURVE",
"230 500 OFFCURVE",
"212 481 OFFCURVE",
"191 481 CURVE",
"179 481 LINE"
);
}
);
width = 410;
}
);
leftKerningGroup = H;
leftMetricsKey = B;
rightKerningGroup = o;
unicode = 0062;
},
{
glyphname = c;
lastChange = "2023-02-05 07:58:30 +0000";
layers = (
{
guideLines = (
{
position = "{403, 275}";
}
);
layerId = "96BCCF85-5232-4835-A4EF-A1D5F093B6B0";
paths = (
{
closed = 1;
nodes = (
"307 -10 OFFCURVE",
"385 68 OFFCURVE",
"385 165 CURVE",
"385 275 LINE",
"237 275 LINE",
"237 155 LINE",
"237 141 OFFCURVE",
"225 129 OFFCURVE",
"210 129 CURVE",
"196 129 OFFCURVE",
"184 141 OFFCURVE",
"184 155 CURVE",
"184 544 LINE",
"184 558 OFFCURVE",
"196 570 OFFCURVE",
"210 570 CURVE",
"225 570 OFFCURVE",
"237 558 OFFCURVE",
"237 544 CURVE",
"237 425 LINE",
"385 425 LINE",
"385 535 LINE",
"385 632 OFFCURVE",
"307 710 OFFCURVE",
"210 710 CURVE",
"113 710 OFFCURVE",
"35 632 OFFCURVE",
"35 535 CURVE",
"35 165 LINE",
"35 68 OFFCURVE",
"113 -10 OFFCURVE",
"210 -10 CURVE"
);
}
);
width = 420;
},
{
guideLines = (
{
position = "{403, 275}";
}
);
layerId = m002;
paths = (
{
closed = 1;
nodes = (
"307 -10 OFFCURVE",
"385 68 OFFCURVE",
"385 165 CURVE",
"385 275 LINE",
"237 275 LINE",
"237 155 LINE",
"237 141 OFFCURVE",
"225 129 OFFCURVE",
"210 129 CURVE",
"196 129 OFFCURVE",
"184 141 OFFCURVE",
"184 155 CURVE",
"184 544 LINE",
"184 558 OFFCURVE",
"196 570 OFFCURVE",
"210 570 CURVE",
"225 570 OFFCURVE",
"237 558 OFFCURVE",
"237 544 CURVE",
"237 425 LINE",
"385 425 LINE",
"385 535 LINE",
"385 632 OFFCURVE",
"307 710 OFFCURVE",
"210 710 CURVE",
"113 710 OFFCURVE",
"35 632 OFFCURVE",
"35 535 CURVE",
"35 165 LINE",
"35 68 OFFCURVE",
"113 -10 OFFCURVE",
"210 -10 CURVE"
);
}
);
width = 420;
}
);
leftKerningGroup = o;
rightKerningGroup = o;
unicode = 0063;
},
{
glyphname = d;
lastChange = "2023-02-05 07:58:30 +0000";
layers = (
{
layerId = "96BCCF85-5232-4835-A4EF-A1D5F093B6B0";
paths = (
{
closed = 1;
nodes = (
"205 0 LINE",
"302 0 OFFCURVE",
"380 78 OFFCURVE",
"380 175 CURVE",
"380 525 LINE",
"380 622 OFFCURVE",
"302 700 OFFCURVE",
"205 700 CURVE",
"30 700 LINE",
"30 0 LINE"
);
},
{
closed = 1;
nodes = (
"179 570 LINE",
"207 570 LINE",
"220 570 OFFCURVE",
"230 559 OFFCURVE",
"230 547 CURVE",
"230 152 LINE",
"230 140 OFFCURVE",
"220 129 OFFCURVE",
"207 129 CURVE",
"179 129 LINE"
);
}
);
width = 414;
},
{
layerId = m002;
paths = (
{
closed = 1;
nodes = (
"205 0 LINE",
"302 0 OFFCURVE",
"380 78 OFFCURVE",
"380 175 CURVE",
"380 525 LINE",
"380 622 OFFCURVE",
"302 700 OFFCURVE",
"205 700 CURVE",
"30 700 LINE",
"30 0 LINE"
);
},
{
closed = 1;
nodes = (
"179 570 LINE",
"207 570 LINE",
"220 570 OFFCURVE",
"230 559 OFFCURVE",
"230 547 CURVE",
"230 152 LINE",
"230 140 OFFCURVE",
"220 129 OFFCURVE",
"207 129 CURVE",
"179 129 LINE"
);
}
);
width = 414;
}
);
leftKerningGroup = H;
leftMetricsKey = B;
rightKerningGroup = o;
unicode = 0064;
},
{
glyphname = dcroat;
lastChange = "2023-02-05 07:58:30 +0000";
layers = (
{
layerId = "96BCCF85-5232-4835-A4EF-A1D5F093B6B0";
paths = (
{
closed = 1;
nodes = (
"380 0 LINE",
"573 0 OFFCURVE",
"730 157 OFFCURVE",
"730 350 CURVE",
"730 543 OFFCURVE",
"573 700 OFFCURVE",
"380 700 CURVE",
"118 700 LINE",
"118 385 LINE",
"30 385 LINE",
"30 315 LINE",
"118 315 LINE",
"118 0 LINE"
);
},
{
closed = 1;
nodes = (
"263 315 LINE",
"387 315 LINE",
"387 385 LINE",
"263 385 LINE",
"263 570 LINE",
"361 570 LINE",
"482 570 OFFCURVE",
"580 471 OFFCURVE",
"580 350 CURVE",
"580 229 OFFCURVE",
"482 131 OFFCURVE",
"361 131 CURVE",
"263 131 LINE"
);
}
);
width = 760;
},
{
layerId = m002;
paths = (
{
closed = 1;
nodes = (
"380 0 LINE",
"573 0 OFFCURVE",
"730 157 OFFCURVE",
"730 350 CURVE",
"730 543 OFFCURVE",
"573 700 OFFCURVE",
"380 700 CURVE",
"118 700 LINE",
"118 385 LINE",
"30 385 LINE",
"30 315 LINE",
"118 315 LINE",
"118 0 LINE"
);
},
{
closed = 1;
nodes = (
"263 315 LINE",
"387 315 LINE",
"387 385 LINE",
"263 385 LINE",
"263 570 LINE",
"361 570 LINE",
"482 570 OFFCURVE",
"580 471 OFFCURVE",
"580 350 CURVE",
"580 229 OFFCURVE",
"482 131 OFFCURVE",
"361 131 CURVE",
"263 131 LINE"
);
}
);
width = 760;
}
);
leftKerningGroup = Dcroat;
rightKerningGroup = O;
unicode = 0111;
},
{
glyphname = e;
lastChange = "2023-02-05 07:58:30 +0000";
layers = (
{
guideLines = (
{
position = "{297, 165}";
},
{
position = "{398, 275}";
}
);
layerId = "96BCCF85-5232-4835-A4EF-A1D5F093B6B0";
paths = (
{
closed = 1;
nodes = (
"298 -10 OFFCURVE",
"375 62 OFFCURVE",
"380 154 CURVE",
"380 260 LINE",
"230 260 LINE",
"230 155 LINE",
"230 141 OFFCURVE",
"219 129 OFFCURVE",
"205 129 CURVE",
"190 129 OFFCURVE",
"179 141 OFFCURVE",
"179 155 CURVE",
"179 311 LINE",
"380 311 LINE",
"380 535 LINE",
"380 632 OFFCURVE",
"301 710 OFFCURVE",
"205 710 CURVE",
"108 710 OFFCURVE",
"30 632 OFFCURVE",
"30 535 CURVE",
"30 165 LINE",
"30 68 OFFCURVE",
"108 -10 OFFCURVE",
"205 -10 CURVE"
);
},
{
closed = 1;
nodes = (
"179 555 LINE",
"179 569 OFFCURVE",
"190 580 OFFCURVE",
"205 580 CURVE",
"219 580 OFFCURVE",
"230 569 OFFCURVE",
"230 555 CURVE",
"230 451 LINE",
"179 451 LINE"
);
}
);
width = 410;
},
{
guideLines = (
{
position = "{297, 165}";
},
{
position = "{398, 275}";
}
);
layerId = m002;
paths = (
{
closed = 1;
nodes = (
"298 -10 OFFCURVE",
"375 62 OFFCURVE",
"380 154 CURVE",
"380 260 LINE",
"230 260 LINE",
"230 155 LINE",
"230 141 OFFCURVE",
"219 129 OFFCURVE",
"205 129 CURVE",
"190 129 OFFCURVE",
"179 141 OFFCURVE",
"179 155 CURVE",
"179 311 LINE",
"380 311 LINE",
"380 535 LINE",
"380 632 OFFCURVE",
"301 710 OFFCURVE",
"205 710 CURVE",
"108 710 OFFCURVE",
"30 632 OFFCURVE",
"30 535 CURVE",
"30 165 LINE",
"30 68 OFFCURVE",
"108 -10 OFFCURVE",
"205 -10 CURVE"
);
},
{
closed = 1;
nodes = (
"179 555 LINE",
"179 569 OFFCURVE",
"190 580 OFFCURVE",
"205 580 CURVE",
"219 580 OFFCURVE",
"230 569 OFFCURVE",
"230 555 CURVE",
"230 451 LINE",
"179 451 LINE"
);
}
);
width = 410;
}
);
leftKerningGroup = o;
rightKerningGroup = o;
unicode = 0065;
},
{
glyphname = f;
lastChange = "2023-02-05 07:58:30 +0000";
layers = (
{
layerId = "96BCCF85-5232-4835-A4EF-A1D5F093B6B0";
paths = (
{
closed = 1;
nodes = (
"179 0 LINE",
"179 275 LINE",
"266 275 LINE",
"266 425 LINE",
"179 425 LINE",
"179 550 LINE",
"310 550 LINE",
"310 700 LINE",
"30 700 LINE",
"30 0 LINE"
);
}
);
width = 340;
},
{
layerId = m002;
paths = (
{
closed = 1;
nodes = (
"179 0 LINE",
"179 275 LINE",
"266 275 LINE",
"266 425 LINE",
"179 425 LINE",
"179 550 LINE",
"310 550 LINE",
"310 700 LINE",
"30 700 LINE",
"30 0 LINE"
);
}
);
width = 340;
}
);
leftKerningGroup = H;
leftMetricsKey = B;
rightKerningGroup = f;
unicode = 0066;
},
{
glyphname = h;
lastChange = "2023-02-13 16:52:40 +0000";
layers = (
{
guideLines = (
{
position = "{591, 425}";
},
{
position = "{591, 275}";
}
);
layerId = "96BCCF85-5232-4835-A4EF-A1D5F093B6B0";
paths = (
{
closed = 1;
nodes = (
"179 0 LINE",
"179 275 LINE",
"232 275 LINE",
"232 0 LINE",
"380 0 LINE",
"380 700 LINE",
"232 700 LINE",
"232 425 LINE",
"179 425 LINE",
"179 700 LINE",
"30 700 LINE",
"30 0 LINE"
);
}
);
width = 410;
},
{
layerId = m002;
paths = (
{
closed = 1;
nodes = (
"179 0 LINE",
"179 250 LINE",
"232 250 LINE",
"232 0 LINE",
"380 0 LINE",
"380 700 LINE",
"232 700 LINE",
"232 450 LINE",
"179 450 LINE",
"179 700 LINE",
"30 700 LINE",
"30 0 LINE"
);
}
);
width = 410;
}
);
leftKerningGroup = H;
leftMetricsKey = B;
rightKerningGroup = H;
unicode = 0068;
},
{
glyphname = i;
lastChange = "2023-02-11 07:33:31 +0000";
layers = (
{
layerId = "96BCCF85-5232-4835-A4EF-A1D5F093B6B0";
paths = (
{
closed = 1;
nodes = (
"181 0 LINE",
"181 700 LINE",
"30 700 LINE",
"30 0 LINE"
);
},
{
closed = 1;
nodes = (
"181 730 LINE",
"181 774 LINE",
"30 774 LINE",
"30 730 LINE"
);
}
);
width = 211;
},
{
layerId = m002;
paths = (
{
closed = 1;
nodes = (
"310 0 LINE",
"310 129 LINE",
"245 129 LINE",
"245 570 LINE",
"310 570 LINE",
"310 700 LINE",
"30 700 LINE",
"30 570 LINE",
"94 570 LINE",
"94 129 LINE",
"30 129 LINE",
"30 0 LINE"
);
}
);
width = 343;
}
);
leftKerningGroup = i;
rightKerningGroup = i;
unicode = 0069;
},
{
glyphname = idotless;
lastChange = "2023-02-13 16:39:15 +0000";
layers = (
{
layerId = "96BCCF85-5232-4835-A4EF-A1D5F093B6B0";
paths = (
{
closed = 1;
nodes = (
"181 0 LINE",
"181 700 LINE",
"30 700 LINE",
"30 0 LINE"
);
}
);
width = 211;
},
{
components = (
{
name = i;
}
);
layerId = m002;
width = 343;
}
);
leftKerningGroup = i;
rightKerningGroup = i;
unicode = 0131;
},
{
glyphname = j;
lastChange = "2023-02-15 16:14:20 +0000";
layers = (
{
guideLines = (
{
angle = 90;
position = "{232, 721}";
}
);
layerId = "96BCCF85-5232-4835-A4EF-A1D5F093B6B0";
paths = (
{
closed = 1;
nodes = (
"302 -10 OFFCURVE",
"380 68 OFFCURVE",
"380 165 CURVE",
"380 700 LINE",
"232 700 LINE",
"232 156 LINE",
"232 141 OFFCURVE",
"220 129 OFFCURVE",
"205 129 CURVE",
"190 129 OFFCURVE",
"179 141 OFFCURVE",
"179 156 CURVE",
"179 275 LINE",
"30 275 LINE",
"30 165 LINE",
"30 68 OFFCURVE",
"108 -10 OFFCURVE",
"205 -10 CURVE"
);
},
{
closed = 1;
nodes = (
"380 730 LINE",
"380 774 LINE",
"232 774 LINE",
"232 730 LINE"
);
}
);
width = 410;
},
{
layerId = m002;
paths = (
{
closed = 1;
nodes = (
"302 -10 OFFCURVE",
"380 68 OFFCURVE",
"380 165 CURVE",
"380 700 LINE",
"232 700 LINE",
"232 156 LINE",
"232 141 OFFCURVE",
"220 129 OFFCURVE",
"205 129 CURVE",
"190 129 OFFCURVE",
"179 141 OFFCURVE",
"179 156 CURVE",
"179 275 LINE",
"30 275 LINE",
"30 165 LINE",
"30 68 OFFCURVE",
"108 -10 OFFCURVE",
"205 -10 CURVE"
);
}
);
width = 410;
}
);
leftKerningGroup = j;
rightKerningGroup = u;
rightMetricsKey = H;
unicode = 006A;
},
{
glyphname = k;
lastChange = "2023-02-05 07:58:30 +0000";
layers = (
{
layerId = "96BCCF85-5232-4835-A4EF-A1D5F093B6B0";
paths = (
{
closed = 1;
nodes = (
"179 0 LINE",
"179 216 LINE",
"189 216 LINE",
"230 0 LINE",
"380 0 LINE",
"380 20 LINE",
"280 381 LINE",
"280 396 LINE",
"380 680 LINE",
"380 700 LINE",
"230 700 LINE",
"189 500 LINE",
"179 500 LINE",
"179 700 LINE",
"30 700 LINE",
"30 0 LINE"
);
}
);
width = 411;
},
{
layerId = m002;
paths = (
{
closed = 1;
nodes = (
"179 0 LINE",
"179 216 LINE",
"189 216 LINE",
"230 0 LINE",
"380 0 LINE",
"380 20 LINE",
"280 381 LINE",
"280 396 LINE",
"380 680 LINE",
"380 700 LINE",
"230 700 LINE",
"189 500 LINE",
"179 500 LINE",
"179 700 LINE",
"30 700 LINE",
"30 0 LINE"
);
}
);
width = 411;
}
);
leftKerningGroup = H;
leftMetricsKey = B;
rightKerningGroup = e;
unicode = 006B;
},
{
glyphname = l;
lastChange = "2023-02-05 07:58:30 +0000";
layers = (
{
layerId = "96BCCF85-5232-4835-A4EF-A1D5F093B6B0";
paths = (
{
closed = 1;
nodes = (
"310 0 LINE",
"310 129 LINE",
"179 129 LINE",
"179 700 LINE",
"30 700 LINE",
"30 0 LINE"
);
}
);
width = 340;
},
{
layerId = m002;
paths = (
{
closed = 1;
nodes = (
"310 0 LINE",
"310 129 LINE",
"179 129 LINE",
"179 700 LINE",
"30 700 LINE",
"30 0 LINE"
);
}
);
width = 340;
}
);
leftKerningGroup = H;
leftMetricsKey = B;
rightKerningGroup = L;
unicode = 006C;
},
{
glyphname = m;
lastChange = "2023-02-16 17:00:22 +0000";
layers = (
{
guideLines = (
{
position = "{282, 665}";
},
{
angle = 90;
position = "{239, 665}";
},
{
angle = 90;
position = "{429, 712}";
}
);
layerId = "96BCCF85-5232-4835-A4EF-A1D5F093B6B0";
paths = (
{
closed = 1;
nodes = (
"176 0 LINE",
"176 554 LINE",
"176 563 OFFCURVE",
"183 570 OFFCURVE",
"191 570 CURVE",
"199 570 OFFCURVE",
"206 563 OFFCURVE",
"206 554 CURVE",
"206 0 LINE",
"351 0 LINE",
"351 556 LINE",
"351 564 OFFCURVE",
"358 571 OFFCURVE",
"366 571 CURVE",
"374 571 OFFCURVE",
"381 564 OFFCURVE",
"381 556 CURVE",
"381 0 LINE",
"528 0 LINE",
"528 579 LINE SMOOTH",
"528 665 OFFCURVE",
"486 710 OFFCURVE",
"419 710 CURVE SMOOTH",
"364 710 OFFCURVE",
"343 685 OFFCURVE",
"330 665 CURVE",
"320 665 LINE",
"310 689 OFFCURVE",
"279 710 OFFCURVE",
"239 710 CURVE SMOOTH",
"201 710 OFFCURVE",
"165 690 OFFCURVE",
"159 665 CURVE",
"149 665 LINE",
"149 700 LINE",
"30 700 LINE",
"30 0 LINE"
);
}
);
width = 558;
},
{
guideLines = (
{
position = "{252, 665}";
}
);
layerId = m002;
paths = (
{
closed = 1;
nodes = (
"146 0 LINE",
"146 554 LINE",
"146 563 OFFCURVE",
"153 570 OFFCURVE",
"161 570 CURVE",
"169 570 OFFCURVE",
"176 563 OFFCURVE",
"176 554 CURVE",
"176 0 LINE",
"321 0 LINE",
"321 556 LINE",
"321 564 OFFCURVE",
"328 571 OFFCURVE",
"336 571 CURVE",
"344 571 OFFCURVE",
"351 564 OFFCURVE",
"351 556 CURVE",
"351 0 LINE",
"467 0 LINE",
"467 579 LINE",
"467 651 OFFCURVE",
"414 710 OFFCURVE",
"342 710 CURVE",
"305 710 OFFCURVE",
"272 689 OFFCURVE",
"259 665 CURVE",
"249 665 LINE",
"239 689 OFFCURVE",
"221 710 OFFCURVE",
"187 710 CURVE",
"151 710 OFFCURVE",
"135 690 OFFCURVE",
"129 665 CURVE",
"119 665 LINE",
"119 700 LINE",
"30 700 LINE",
"30 0 LINE"
);
}
);
width = 498;
}
);
leftKerningGroup = H;
rightKerningGroup = G;
unicode = 006D;
},
{
glyphname = eng;
lastChange = "2023-02-05 07:58:30 +0000";
layers = (
{
components = (
{
name = n.big;
}
);
layerId = "96BCCF85-5232-4835-A4EF-A1D5F093B6B0";
paths = (
{
closed = 1;
nodes = (
"582 -200 OFFCURVE",
"660 -122 OFFCURVE",
"660 -25 CURVE",
"660 0 LINE",
"511 0 LINE",
"511 -34 LINE",
"511 -49 OFFCURVE",
"499 -61 OFFCURVE",
"484 -61 CURVE",
"422 -61 LINE",
"412 -200 LINE",
"485 -200 LINE"
);
}
);
width = 690;
},
{
components = (
{
name = n.big;
}
);
layerId = m002;
paths = (
{
closed = 1;
nodes = (
"582 -200 OFFCURVE",
"660 -122 OFFCURVE",
"660 -25 CURVE",
"660 0 LINE",
"511 0 LINE",
"511 -34 LINE",
"511 -49 OFFCURVE",
"499 -61 OFFCURVE",
"484 -61 CURVE",
"422 -61 LINE",
"412 -200 LINE",
"485 -200 LINE"
);
}
);
width = 690;
}
);
leftKerningGroup = H;
rightKerningGroup = G;
unicode = 014B;
},
{
glyphname = o;
lastChange = "2023-02-16 17:03:03 +0000";
layers = (
{
guideLines = (
{
position = "{47, 580}";
},
{
position = "{47, 122}";
}
);
layerId = "96BCCF85-5232-4835-A4EF-A1D5F093B6B0";
paths = (
{
closed = 1;
nodes = (
"301 -10 OFFCURVE",
"380 68 OFFCURVE",
"380 165 CURVE",
"380 535 LINE SMOOTH",
"380 632 OFFCURVE",
"301 710 OFFCURVE",
"205 710 CURVE",
"108 710 OFFCURVE",
"30 632 OFFCURVE",
"30 535 CURVE",
"30 165 LINE",
"30 68 OFFCURVE",
"108 -10 OFFCURVE",
"205 -10 CURVE"
);
},
{
closed = 1;
nodes = (
"190 122 OFFCURVE",
"179 133 OFFCURVE",
"179 147 CURVE",
"179 554 LINE",
"179 568 OFFCURVE",
"190 580 OFFCURVE",
"205 580 CURVE",
"219 580 OFFCURVE",
"230 568 OFFCURVE",
"230 554 CURVE",
"230 147 LINE",
"230 133 OFFCURVE",
"219 122 OFFCURVE",
"205 122 CURVE"
);
}
);
width = 411;
},
{
guideLines = (
{
position = "{47, 580}";
},
{
position = "{47, 122}";
}
);
layerId = m002;
paths = (
{
closed = 1;
nodes = (
"301 -10 OFFCURVE",
"380 68 OFFCURVE",
"380 165 CURVE",
"380 535 LINE",
"380 632 OFFCURVE",
"301 710 OFFCURVE",
"205 710 CURVE",
"108 710 OFFCURVE",
"30 632 OFFCURVE",
"30 535 CURVE",
"30 165 LINE",
"30 68 OFFCURVE",
"108 -10 OFFCURVE",
"205 -10 CURVE"
);
},
{
closed = 1;
nodes = (
"190 122 OFFCURVE",
"179 133 OFFCURVE",
"179 147 CURVE",
"179 554 LINE",
"179 568 OFFCURVE",
"190 580 OFFCURVE",
"205 580 CURVE",
"219 580 OFFCURVE",
"230 568 OFFCURVE",
"230 554 CURVE",
"230 147 LINE",
"230 133 OFFCURVE",
"219 122 OFFCURVE",
"205 122 CURVE"
);
}
);
width = 411;
}
);
leftKerningGroup = o;
rightKerningGroup = o;
unicode = 006F;
},
{
glyphname = p;
lastChange = "2023-02-05 07:58:30 +0000";
layers = (
{
layerId = "96BCCF85-5232-4835-A4EF-A1D5F093B6B0";
paths = (
{
closed = 1;
nodes = (
"179 0 LINE",
"179 192 LINE",
"185 192 LINE",
"292 192 OFFCURVE",
"379 278 OFFCURVE",
"380 386 CURVE SMOOTH",
"380 386 OFFCURVE",
"380 506 OFFCURVE",
"380 506 CURVE",
"380 613 OFFCURVE",
"292 700 OFFCURVE",
"185 700 CURVE",
"30 700 LINE",
"30 0 LINE"
);
},
{
closed = 1;
nodes = (
"179 570 LINE",
"182 570 LINE",
"208 570 OFFCURVE",
"230 570 OFFCURVE",
"230 502 CURVE",
"230 389 LINE",
"230 322 OFFCURVE",
"208 322 OFFCURVE",
"182 322 CURVE",
"179 322 LINE"
);
}
);
width = 410;
},
{
layerId = m002;
paths = (
{
closed = 1;
nodes = (
"179 0 LINE",
"179 192 LINE",
"185 192 LINE",
"292 192 OFFCURVE",
"379 278 OFFCURVE",
"380 386 CURVE SMOOTH",
"380 386 OFFCURVE",
"380 506 OFFCURVE",
"380 506 CURVE",
"380 613 OFFCURVE",
"292 700 OFFCURVE",
"185 700 CURVE",
"30 700 LINE",
"30 0 LINE"
);
},
{
closed = 1;
nodes = (
"179 570 LINE",
"182 570 LINE",
"208 570 OFFCURVE",
"230 570 OFFCURVE",
"230 502 CURVE",
"230 389 LINE",
"230 322 OFFCURVE",
"208 322 OFFCURVE",
"182 322 CURVE",
"179 322 LINE"
);
}
);
width = 410;
}
);
leftKerningGroup = H;
leftMetricsKey = B;
rightKerningGroup = p;
unicode = 0070;
},
{
glyphname = q;
lastChange = "2023-02-05 07:58:30 +0000";
layers = (
{
layerId = "96BCCF85-5232-4835-A4EF-A1D5F093B6B0";
paths = (
{
closed = 1;
nodes = (
"380 13 LINE",
"348 7 OFFCURVE",
"321 10 OFFCURVE",
"306 21 CURVE",
"306 31 LINE",
"351 63 OFFCURVE",
"380 116 OFFCURVE",
"380 175 CURVE",
"380 535 LINE",
"380 632 OFFCURVE",
"302 710 OFFCURVE",
"205 710 CURVE",
"109 710 OFFCURVE",
"30 632 OFFCURVE",
"30 535 CURVE",
"30 175 LINE",
"30 79 OFFCURVE",
"109 0 OFFCURVE",
"205 0 CURVE",
"228 0 LINE",
"258 -53 OFFCURVE",
"315 -87 OFFCURVE",
"380 -87 CURVE"
);
},
{
closed = 1;
nodes = (
"191 129 OFFCURVE",
"179 141 OFFCURVE",
"179 155 CURVE SMOOTH",
"179 544 LINE",
"179 558 OFFCURVE",
"191 570 OFFCURVE",
"205 570 CURVE",
"220 570 OFFCURVE",
"232 558 OFFCURVE",
"232 544 CURVE",
"232 155 LINE SMOOTH",
"232 141 OFFCURVE",
"220 129 OFFCURVE",
"205 129 CURVE SMOOTH"
);
}
);
width = 410;
},
{
layerId = m002;
paths = (
{
closed = 1;
nodes = (
"380 13 LINE",
"348 7 OFFCURVE",
"321 10 OFFCURVE",
"306 21 CURVE",
"306 31 LINE",
"351 63 OFFCURVE",
"380 116 OFFCURVE",
"380 175 CURVE",
"380 535 LINE",
"380 632 OFFCURVE",
"302 710 OFFCURVE",
"205 710 CURVE",
"109 710 OFFCURVE",
"30 632 OFFCURVE",
"30 535 CURVE",
"30 175 LINE",
"30 79 OFFCURVE",
"109 0 OFFCURVE",
"205 0 CURVE",
"228 0 LINE",
"258 -53 OFFCURVE",
"315 -87 OFFCURVE",
"380 -87 CURVE"
);
},
{
closed = 1;
nodes = (
"191 129 OFFCURVE",
"179 141 OFFCURVE",
"179 155 CURVE SMOOTH",
"179 544 LINE",
"179 558 OFFCURVE",
"191 570 OFFCURVE",
"205 570 CURVE",
"220 570 OFFCURVE",
"232 558 OFFCURVE",
"232 544 CURVE",
"232 155 LINE SMOOTH",
"232 141 OFFCURVE",
"220 129 OFFCURVE",
"205 129 CURVE SMOOTH"
);
}
);
width = 410;
}
);
leftKerningGroup = o;
rightKerningGroup = o;
unicode = 0071;
},
{
glyphname = r;
lastChange = "2023-02-05 07:58:30 +0000";
layers = (
{
layerId = "96BCCF85-5232-4835-A4EF-A1D5F093B6B0";
paths = (
{
closed = 1;
nodes = (
"179 245 LINE",
"191 245 LINE",
"206 245 OFFCURVE",
"218 233 OFFCURVE",
"218 219 CURVE",
"218 -1 LINE",
"366 0 LINE",
"366 219 LINE SMOOTH",
"366 289 OFFCURVE",
"330 337 OFFCURVE",
"271 346 CURVE",
"271 361 LINE",
"330 380 OFFCURVE",
"380 427 OFFCURVE",
"380 508 CURVE SMOOTH",
"380 617 OFFCURVE",
"292 700 OFFCURVE",
"183 700 CURVE",
"30 700 LINE",
"30 0 LINE",
"179 -1 LINE"
);
},
{
closed = 1;
nodes = (
"179 568 LINE",
"198 568 LINE",
"216 568 OFFCURVE",
"231 554 OFFCURVE",
"231 535 CURVE",
"231 535 OFFCURVE",
"231 477 OFFCURVE",
"231 477 CURVE SMOOTH",
"231 459 OFFCURVE",
"216 445 OFFCURVE",
"198 445 CURVE",
"179 445 LINE"
);
}
);
width = 410;
},
{
layerId = m002;
paths = (
{
closed = 1;
nodes = (
"179 245 LINE",
"191 245 LINE",
"206 245 OFFCURVE",
"218 233 OFFCURVE",
"218 219 CURVE",
"218 -1 LINE",
"366 0 LINE",
"366 219 LINE SMOOTH",
"366 289 OFFCURVE",
"330 337 OFFCURVE",
"271 346 CURVE",
"271 361 LINE",
"330 380 OFFCURVE",
"380 427 OFFCURVE",
"380 508 CURVE SMOOTH",
"380 617 OFFCURVE",
"292 700 OFFCURVE",
"183 700 CURVE",
"30 700 LINE",
"30 0 LINE",
"179 -1 LINE"
);
},
{
closed = 1;
nodes = (
"179 568 LINE",
"198 568 LINE",
"216 568 OFFCURVE",
"231 554 OFFCURVE",
"231 535 CURVE",
"231 535 OFFCURVE",
"231 477 OFFCURVE",
"231 477 CURVE SMOOTH",
"231 459 OFFCURVE",
"216 445 OFFCURVE",
"198 445 CURVE",
"179 445 LINE"
);
}
);
width = 410;
}
);
leftKerningGroup = H;
leftMetricsKey = B;
rightKerningGroup = r;
unicode = 0072;
},
{
glyphname = s;
lastChange = "2023-02-05 07:58:30 +0000";
layers = (
{
layerId = "96BCCF85-5232-4835-A4EF-A1D5F093B6B0";
paths = (
{
closed = 1;
nodes = (
"302 -10 OFFCURVE",
"380 68 OFFCURVE",
"380 165 CURVE",
"380 169 LINE",
"380 222 OFFCURVE",
"344 270 OFFCURVE",
"313 319 CURVE SMOOTH",
"189 516 LINE SMOOTH",
"182 528 OFFCURVE",
"179 532 OFFCURVE",
"179 541 CURVE",
"179 555 OFFCURVE",
"191 568 OFFCURVE",
"205 568 CURVE",
"220 568 OFFCURVE",
"232 555 OFFCURVE",
"232 541 CURVE",
"232 464 LINE",
"380 464 LINE",
"380 535 LINE",
"380 632 OFFCURVE",
"302 710 OFFCURVE",
"205 710 CURVE",
"108 710 OFFCURVE",
"30 632 OFFCURVE",
"30 535 CURVE",
"30 531 LINE SMOOTH",
"30 488 OFFCURVE",
"74 433 OFFCURVE",
"101 389 CURVE SMOOTH",
"221 193 LINE SMOOTH",
"230 178 OFFCURVE",
"232 172 OFFCURVE",
"232 160 CURVE SMOOTH",
"232 146 OFFCURVE",
"220 133 OFFCURVE",
"205 133 CURVE",
"190 133 OFFCURVE",
"179 146 OFFCURVE",
"179 160 CURVE",
"179 245 LINE",
"30 245 LINE",
"30 165 LINE",
"30 68 OFFCURVE",
"108 -10 OFFCURVE",
"205 -10 CURVE"
);
}
);
width = 410;
},
{
layerId = m002;
paths = (
{
closed = 1;
nodes = (
"302 -10 OFFCURVE",
"380 68 OFFCURVE",
"380 165 CURVE",
"380 169 LINE",
"380 222 OFFCURVE",
"344 270 OFFCURVE",
"313 319 CURVE SMOOTH",
"189 516 LINE SMOOTH",
"182 528 OFFCURVE",
"179 532 OFFCURVE",
"179 541 CURVE",
"179 555 OFFCURVE",
"191 568 OFFCURVE",
"205 568 CURVE",
"220 568 OFFCURVE",
"232 555 OFFCURVE",
"232 541 CURVE",
"232 464 LINE",
"380 464 LINE",
"380 535 LINE",
"380 632 OFFCURVE",
"302 710 OFFCURVE",
"205 710 CURVE",
"108 710 OFFCURVE",
"30 632 OFFCURVE",
"30 535 CURVE",
"30 531 LINE SMOOTH",
"30 488 OFFCURVE",
"74 433 OFFCURVE",
"101 389 CURVE SMOOTH",
"221 193 LINE SMOOTH",
"230 178 OFFCURVE",
"232 172 OFFCURVE",
"232 160 CURVE SMOOTH",
"232 146 OFFCURVE",
"220 133 OFFCURVE",
"205 133 CURVE",
"190 133 OFFCURVE",
"179 146 OFFCURVE",
"179 160 CURVE",
"179 245 LINE",
"30 245 LINE",
"30 165 LINE",
"30 68 OFFCURVE",
"108 -10 OFFCURVE",
"205 -10 CURVE"
);
}
);
width = 410;
}
);
leftKerningGroup = o;
rightKerningGroup = o;
unicode = 0073;
},
{
glyphname = germandbls;
lastChange = "2023-02-05 07:58:30 +0000";
layers = (
{
guideLines = (
{
angle = 90;
position = "{335, 712}";
},
{
position = "{500, 493}";
},
{
position = "{567, 202}";
},
{
position = "{562, 350}";
},
{
position = "{636, 519}";
}
);
layerId = "96BCCF85-5232-4835-A4EF-A1D5F093B6B0";
paths = (
{
closed = 1;
nodes = (
"557 -10 OFFCURVE",
"650 64 OFFCURVE",
"650 181 CURVE SMOOTH",
"650 271 OFFCURVE",
"611 321 OFFCURVE",
"551 341 CURVE",
"551 357 LINE",
"625 395 OFFCURVE",
"650 451 OFFCURVE",
"650 519 CURVE SMOOTH",
"650 628 OFFCURVE",
"558 700 OFFCURVE",
"443 700 CURVE SMOOTH",
"442 700 OFFCURVE",
"220 700 OFFCURVE",
"205 700 CURVE SMOOTH",
"107 699 OFFCURVE",
"30 620 OFFCURVE",
"30 519 CURVE",
"30 -10 LINE",
"170 -10 LINE",
"170 497 LINE",
"170 539 OFFCURVE",
"199 570 OFFCURVE",
"238 570 CURVE SMOOTH",
"238 570 OFFCURVE",
"407 570 OFFCURVE",
"416 570 CURVE SMOOTH",
"460 570 OFFCURVE",
"499 542 OFFCURVE",
"499 493 CURVE SMOOTH",
"499 444 OFFCURVE",
"460 415 OFFCURVE",
"414 415 CURVE SMOOTH",
"290 415 LINE",
"290 275 LINE",
"440 275 LINE SMOOTH",
"478 275 OFFCURVE",
"510 240 OFFCURVE",
"510 202 CURVE SMOOTH",
"510 161 OFFCURVE",
"478 129 OFFCURVE",
"440 129 CURVE SMOOTH",
"290 129 LINE",
"290 -10 LINE",
"444 -10 LINE"
);
}
);
width = 680;
},
{
guideLines = (
{
angle = 90;
position = "{335, 712}";
},
{
position = "{500, 493}";
},
{
position = "{567, 202}";
},
{
position = "{562, 350}";
},
{
position = "{636, 519}";
}
);
layerId = m002;
paths = (
{
closed = 1;
nodes = (
"557 -10 OFFCURVE",
"650 64 OFFCURVE",
"650 181 CURVE SMOOTH",
"650 271 OFFCURVE",
"611 321 OFFCURVE",
"551 341 CURVE",
"551 357 LINE",
"625 395 OFFCURVE",
"650 451 OFFCURVE",
"650 519 CURVE SMOOTH",
"650 628 OFFCURVE",
"558 700 OFFCURVE",
"443 700 CURVE SMOOTH",
"442 700 OFFCURVE",
"220 700 OFFCURVE",
"205 700 CURVE SMOOTH",
"107 699 OFFCURVE",
"30 620 OFFCURVE",
"30 519 CURVE",
"30 -10 LINE",
"170 -10 LINE",
"170 497 LINE",
"170 539 OFFCURVE",
"199 570 OFFCURVE",
"238 570 CURVE SMOOTH",
"238 570 OFFCURVE",
"407 570 OFFCURVE",
"416 570 CURVE SMOOTH",
"460 570 OFFCURVE",
"499 542 OFFCURVE",
"499 493 CURVE SMOOTH",
"499 444 OFFCURVE",
"460 415 OFFCURVE",
"414 415 CURVE SMOOTH",
"290 415 LINE",
"290 275 LINE",
"440 275 LINE SMOOTH",
"478 275 OFFCURVE",
"510 240 OFFCURVE",
"510 202 CURVE SMOOTH",
"510 161 OFFCURVE",
"478 129 OFFCURVE",
"440 129 CURVE SMOOTH",
"290 129 LINE",
"290 -10 LINE",
"444 -10 LINE"
);
}
);
width = 680;
}
);
leftKerningGroup = H;
rightKerningGroup = o;
unicode = 00DF;
},
{
glyphname = u;
lastChange = "2023-02-11 07:52:16 +0000";
layers = (
{
guideLines = (
{
angle = 90;
position = "{257, 24}";
},
{
position = "{233, 35}";
}
);
layerId = "96BCCF85-5232-4835-A4EF-A1D5F093B6B0";
paths = (
{
closed = 1;
nodes = (
"201 -10 OFFCURVE",
"241 12 OFFCURVE",
"251 35 CURVE",
"261 35 LINE",
"261 0 LINE",
"380 0 LINE",
"380 700 LINE",
"230 700 LINE",
"230 155 LINE",
"230 141 OFFCURVE",
"219 129 OFFCURVE",
"205 129 CURVE",
"190 129 OFFCURVE",
"179 141 OFFCURVE",
"179 155 CURVE",
"179 700 LINE",
"30 700 LINE",
"30 165 LINE",
"30 68 OFFCURVE",
"65 -10 OFFCURVE",
"159 -10 CURVE SMOOTH"
);
}
);
width = 410;
},
{
guideLines = (
{
angle = 90;
position = "{257, 24}";
},
{
position = "{233, 35}";
}
);
layerId = m002;
paths = (
{
closed = 1;
nodes = (
"201 -10 OFFCURVE",
"241 12 OFFCURVE",
"251 35 CURVE",
"261 35 LINE",
"261 0 LINE",
"380 0 LINE",
"380 700 LINE",
"230 700 LINE",
"230 155 LINE",
"230 141 OFFCURVE",
"219 129 OFFCURVE",
"205 129 CURVE",
"190 129 OFFCURVE",
"179 141 OFFCURVE",
"179 155 CURVE",
"179 700 LINE",
"30 700 LINE",
"30 165 LINE",
"30 68 OFFCURVE",
"65 -10 OFFCURVE",
"159 -10 CURVE SMOOTH"
);
}
);
width = 410;
}
);
leftKerningGroup = u;
rightKerningGroup = H;
unicode = 0075;
},
{
glyphname = uhorn;
lastChange = "2023-02-05 07:58:30 +0000";
layers = (
{
layerId = "96BCCF85-5232-4835-A4EF-A1D5F093B6B0";
paths = (
{
closed = 1;
nodes = (
"749 700 LINE",
"749 622 OFFCURVE",
"735 491 OFFCURVE",
"609 491 CURVE",
"609 0 LINE",
"477 0 LINE",
"477 109 LINE",
"462 109 LINE",
"433 37 OFFCURVE",
"383 -10 OFFCURVE",
"274 -10 CURVE",
"114 -10 OFFCURVE",
"30 119 OFFCURVE",
"30 279 CURVE",
"30 700 LINE",
"180 700 LINE",
"179 268 LINE SMOOTH",
"179 191 OFFCURVE",
"241 129 OFFCURVE",
"319 129 CURVE",
"396 129 OFFCURVE",
"458 191 OFFCURVE",
"458 268 CURVE SMOOTH",
"459 700 LINE",
"609 700 LINE",
"609 570 LINE",
"647 570 OFFCURVE",
"659 635 OFFCURVE",
"659 700 CURVE"
);
}
);
width = 779;
},
{
layerId = m002;
paths = (
{
closed = 1;
nodes = (
"749 700 LINE",
"749 622 OFFCURVE",
"735 491 OFFCURVE",
"609 491 CURVE",
"609 0 LINE",
"477 0 LINE",
"477 109 LINE",
"462 109 LINE",
"433 37 OFFCURVE",
"383 -10 OFFCURVE",
"274 -10 CURVE",
"114 -10 OFFCURVE",
"30 119 OFFCURVE",
"30 279 CURVE",
"30 700 LINE",
"180 700 LINE",
"179 268 LINE SMOOTH",
"179 191 OFFCURVE",
"241 129 OFFCURVE",
"319 129 CURVE",
"396 129 OFFCURVE",
"458 191 OFFCURVE",
"458 268 CURVE SMOOTH",
"459 700 LINE",
"609 700 LINE",
"609 570 LINE",
"647 570 OFFCURVE",
"659 635 OFFCURVE",
"659 700 CURVE"
);
}
);
width = 779;
}
);
leftKerningGroup = U;
rightKerningGroup = Uhorn;
unicode = 01B0;
},
{
glyphname = w;
lastChange = "2023-02-16 17:02:46 +0000";
layers = (
{
guideLines = (
{
angle = 90;
position = "{152, 45}";
}
);
layerId = "96BCCF85-5232-4835-A4EF-A1D5F093B6B0";
paths = (
{
closed = 1;
nodes = (
"203 -10 OFFCURVE",
"258 7 OFFCURVE",
"274 44 CURVE",
"284 44 LINE",
"298 7 OFFCURVE",
"358 -10 OFFCURVE",
"393 -10 CURVE SMOOTH",
"471 -10 OFFCURVE",
"529 49 OFFCURVE",
"529 121 CURVE SMOOTH",
"529 700 LINE",
"382 700 LINE",
"382 145 LINE",
"382 136 OFFCURVE",
"375 129 OFFCURVE",
"366 129 CURVE",
"358 129 OFFCURVE",
"351 136 OFFCURVE",
"351 145 CURVE",
"351 700 LINE",
"207 700 LINE",
"207 145 LINE",
"207 136 OFFCURVE",
"200 129 OFFCURVE",
"191 129 CURVE",
"183 129 OFFCURVE",
"176 136 OFFCURVE",
"176 145 CURVE",
"176 700 LINE",
"30 700 LINE",
"30 121 LINE SMOOTH",
"30 49 OFFCURVE",
"93 -10 OFFCURVE",
"165 -10 CURVE SMOOTH"
);
}
);
width = 559;
},
{
layerId = m002;
paths = (
{
closed = 1;
nodes = (
"185 -10 OFFCURVE",
"228 7 OFFCURVE",
"244 44 CURVE",
"254 44 LINE",
"268 7 OFFCURVE",
"312 -10 OFFCURVE",
"347 -10 CURVE",
"425 -10 OFFCURVE",
"468 49 OFFCURVE",
"468 121 CURVE",
"468 700 LINE",
"352 700 LINE",
"352 145 LINE",
"352 136 OFFCURVE",
"345 129 OFFCURVE",
"336 129 CURVE",
"328 129 OFFCURVE",
"321 136 OFFCURVE",
"321 145 CURVE",
"321 700 LINE",
"177 700 LINE",
"177 145 LINE",
"177 136 OFFCURVE",
"170 129 OFFCURVE",
"161 129 CURVE",
"153 129 OFFCURVE",
"146 136 OFFCURVE",
"146 145 CURVE",
"146 700 LINE",
"30 700 LINE",
"30 121 LINE",
"30 49 OFFCURVE",
"75 -10 OFFCURVE",
"147 -10 CURVE"
);
}
);
width = 499;
}
);
leftKerningGroup = u;
rightKerningGroup = u;
unicode = 0077;
},
{
glyphname = x;
lastChange = "2023-02-13 16:55:50 +0000";
layers = (
{
layerId = "96BCCF85-5232-4835-A4EF-A1D5F093B6B0";
paths = (
{
closed = 1;
nodes = (
"179 0 LINE",
"199 225 LINE",
"212 225 LINE",
"232 0 LINE",
"380 0 LINE",
"380 15 LINE",
"285 350 LINE",
"380 685 LINE",
"380 700 LINE",
"233 700 LINE",
"212 475 LINE",
"199 475 LINE",
"178 700 LINE",
"30 700 LINE",
"30 685 LINE",
"126 350 LINE",
"30 15 LINE",
"30 0 LINE"
);
}
);
width = 410;
},
{
layerId = m002;
paths = (
{
closed = 1;
nodes = (
"179 0 LINE",
"199 225 LINE",
"212 225 LINE",
"232 0 LINE",
"380 0 LINE",
"380 15 LINE",
"285 350 LINE",
"380 685 LINE",
"380 700 LINE",
"233 700 LINE",
"212 475 LINE",
"199 475 LINE",
"178 700 LINE",
"30 700 LINE",
"30 685 LINE",
"126 350 LINE",
"30 15 LINE",
"30 0 LINE"
);
}
);
width = 410;
}
);
leftKerningGroup = x;
rightKerningGroup = e;
unicode = 0078;
},
{
glyphname = z;
lastChange = "2023-02-16 17:03:29 +0000";
layers = (
{
layerId = "96BCCF85-5232-4835-A4EF-A1D5F093B6B0";
paths = (
{
closed = 1;
nodes = (
"330 0 LINE",
"330 129 LINE",
"180 129 LINE",
"180 149 LINE",
"330 570 LINE",
"330 700 LINE",
"30 700 LINE",
"30 570 LINE",
"180 570 LINE",
"180 550 LINE",
"30 134 LINE",
"30 0 LINE"
);
}
);
width = 362;
},
{
layerId = m002;
paths = (
{
closed = 1;
nodes = (
"330 0 LINE",
"330 129 LINE",
"180 129 LINE",
"180 149 LINE",
"330 570 LINE",
"330 700 LINE",
"30 700 LINE",
"30 570 LINE",
"180 570 LINE",
"180 550 LINE",
"30 134 LINE",
"30 0 LINE"
);
}
);
width = 362;
}
);
leftKerningGroup = Z;
rightKerningGroup = Z;
unicode = 007A;
},
